<?xml version="1.0" encoding="utf-8"?>
<!-- Generated by IcoMoon.io -->
<!DOCTYPE svg PUBLIC "-//W3C//DTD SVG 1.1//EN" "http://www.w3.org/Graphics/SVG/1.1/DTD/svg11.dtd">
<svg version="1.1" xmlns="http://www.w3.org/2000/svg" xmlns:xlink="http://www.w3.org/1999/xlink" width="512" height="512" viewBox="0 0 512 512">
<g id="icomoon-ignore">
</g>
<path d="M227.152 210.912c-2.704-7.68-8.72-28.688-7.664-46 0.304-4.928 1.168-26.4 0.592-32.448-0.368-3.92 0.384-8.304 0-12.368-0.736-7.76-3.408-32.16-3.536-37.152-0.528-21.888-12.336-54.288-2.96-72.56 4.528-8.784 21.664-14.592 32.448-6.48 14.96 11.248 11.52 47.008 11.2 71.376-0.272 21.008-1.936 49.52 1.184 69.6 3.376 21.856 2.576 48.528-7.664 61.936-5.808 7.552-17.328 13.328-23.6 4.096zM108.016 48.112c21.392-4.368 26.768 17.072 31.84 33.632 2.48 8.096 4.944 16.176 7.072 23.6 7.024 24.496 14.672 57.264 22.416 83.168 3.36 11.232 10.8 22.672 9.44 33.008-0.864 6.56-6.48 14.704-12.976 14.752-8.336 0.064-20.24-23.056-23.008-30.672-3.28-9.008-9.536-24.112-12.976-32.432-6.144-14.88-15.232-30.88-21.232-47.184-5.36-14.56-9.84-25.792-12.976-44.24-1.28-7.536-3.024-14.704-1.76-20.048 1.648-6.992 8.192-12.368 14.16-13.584zM19.536 216.8c16.832-2.448 27.104 12.272 38.928 20.064 11.232 7.408 22.16 12.752 29.488 18.88 5.328 4.432 12.064 12.416 13.568 18.88 3.36 14.496-8.464 30.784-19.456 31.248-8.080 0.352-16.272-9.888-21.824-15.92-12.496-13.536-25.824-24.16-37.744-37.744-7.488-8.544-19.92-29.264-2.96-35.408zM471.92 301.136c-5.648 1.696-12.432 7.328-17.696 11.792-4.416 3.76-11.472 10.224-14.736 14.752-2.384 3.312-6.976 9.808-10.032 14.16-4.336 6.192-14.704 15.664-22.16 22.992-5.456 5.344-19.616 11.36-28.896 10.608-5.296-0.416-8.672-3.872-13.28-7.952-4.368-3.856-8.256-7.664-13.28-14.752-3.216-4.544-7.92-19.728-11.2-27.12-3.296-7.408-2.576-23.952-1.776-29.2 1.184-7.664 2.32-10.416 3.296-17.072 2.512-17.152-4.144-26.464-2.112-39.552 0.928-5.968 3.376-13.968 6.24-19.44 2.752-5.248 12.256-53.232 14.752-60.752 2.176-6.56 2.56-13.904 4.72-20.64 2-6.272 3.872-12.704 5.904-19.472 4.432-14.848 13.728-32.816 8.848-50.72-2.736-10.032-17.664-26.336-28.896-24.784-10.144 1.408-13.008 6.48-18.032 14.144-3.424 5.2-4.208 13.328-5.312 18.288-1.392 6.288-0.784 16.592-1.184 23.008-0.656 10.608-1.808 22.912-2.944 34.208-1.056 10.544-3.44 18.288-5.904 27.728-4.128 15.856-15.712 25.264-17.344 41.296-0.736 7.216-1.616 14.816-3.296 20.032-2.496 7.696-7.088 11.92-15.584 14.192-13.936 3.712-21.248-6.784-34.208-5.312-12.336 1.392-16.864 16.496-28.32 23.008-17.152 9.76-24.528 3.808-34.848 9.424-11.84 6.416-18.352 18.816-24.48 22.4-8.56 5.008-14.8 4.592-20.304 6.512-14.48 5.056-30.624 20.064-29.488 37.744 0.368 5.856 5.264 13.616 8.256 18.288 3.984 6.208 6.8 12.24 9.44 17.696 5.776 11.952 13.328 24.976 17.104 36.56 4.464 13.712 4.768 31.296 5.904 46 0.512 6.704 3.2 13.296 5.312 20.064 2.208 7.040 3.376 14.336 5.904 19.472 5.312 10.8 18.848 21.568 34.208 23.008 16.368 1.52 27.12-3.312 39.52-6.496 8.496-2.176 17.52-4.176 27.136-5.888 18.416-3.296 40.304-6.352 54.272-12.384 10.544-4.544 21.088-12.048 30.672-18.88 17.872-12.72 33.664-23.232 44.24-41.28 4.224-7.216 10.192-11.776 15.328-20.064 5.44-8.736 15.168-17.792 25.36-22.4 8.096-3.664 14.272-7.968 23.6-11.2 9.68-3.376 18.496-9.92 25.952-17.104 7.28-7.008 15.568-14.592 17.696-25.36 3.888-19.888-8.416-35.536-28.352-29.552zM282.896 369.008c-0.784 4.4-3.264 9.792-4.72 15.92-1.616 6.784-0.576 14.816-1.76 18.88-2.096 7.088-16.528 15.552-26.544 7.072-4.96-4.176-6.8-14.464-9.44-19.456-3.712-7.008-14.272-14.992-16.512-23.008-2.352-8.4 1.392-18.176-0.592-28.896-0.608-3.296-4.032-7.472-5.312-10.624-2.448-6.032-6.016-14.496 2.352-16.512 8.688-2.080 14.848 12.208 21.232 15.936 5.168 3.008 12.192 4.384 17.696 7.072 12.352 6.016 27.216 13.312 23.6 33.616z"></path>
</svg>
