<svg id="Layer_1" data-name="Layer 1" xmlns="http://www.w3.org/2000/svg" width="540" height="7.00043" viewBox="0 0 540 7.00043"><defs><style>.cls-1{fill:#fff;}</style></defs><title>cutout</title><path class="cls-1" d="M692.74468,98.06021c-1.60619-.0724-3.46122-0.20425-5.31766-0.22822-2.86484-.03739-5.73092.01678-8.59623-0.00094q-1.10384-.00684-2.20811-0.02709c-1.23228.00958-2.22775,0.0072-3.716,0.03237-14.45418-.30875-26.11327-0.838-40.12161-1.50722-0.83223-.08943-1.961.3478-3.18944,0.21621-9.79517-1.2069-17.48442-.6158-29.61189-0.96863-0.84849-.01077-1.682-0.02061-2.5379-0.03019q-1.21167-.0122-2.45831-0.02372-2.13678-.01942-4.37232-0.03526c-12.52127-.32719-18.07579,1.65968-31.88184.47965-1.25528-.1074-2.50124-0.238-3.73637-0.38281C552.67721,95.49377,534.45185,94.057,532.25,94c-1.10091-.02853-28.56416,1.35881-32.78453,1.47146q-1.96954.05788-3.96242,0.13568-1.99541.07876-4.02882,0.17639C490.54541,95.79171,485.42741,96.99161,484.5,97c-6.49219.05873-8.76087-1.0695-15.12194-1.0029-1.49764.05562-2.687,0.05157-3.85864,0.12082-13.73033.81042-29.61022-.08845-43.825,0.46287-1.51293.05873-3.00627,0.04267-4.47606,0.064-7.34912.10689-14.13014,0.21306-20.16452,0.31518-1.25958.02108-3.04843,0.09539-4.3078,0.12776-4.42146.13185-8.59529,0.44009-12.66,0.74331q-2.03221.15171-4.03342,0.295c-12.42706,1.79847-24.4119-.59851-37.11772-0.4535-1.302.03237-2.61652,0.0827-3.93943,0.14407-5.29155.24568-10.71635,0.67-16.0134,0.82695-0.54962.01631-1.90034-.82648-2.44685-0.81638a3.89417,3.89417,0,0,1-.92379-0.29964c-0.43025.006-1.43815,0.50167-1.87274,0.45879-0.70421-.06929-1.41111.1637-2.12013,0.105-1.14575-.09539-2.297-0.03283-3.455-0.10715-3.47106-.22626-7.32587-0.29432-11.3566-0.37749-1.34348-.02781-14.93205-1.8409-16.307-1.8567-15.3907-.08773-15.15011,1.75914-30.20881,2.44082-1.034.00238-2.01273,0.01393-2.9334,0.01584-6.44594.01508-10.05984,0.028-10.05984,0.028l-15.09344-.40321c-7.19091-.17162-12.06614.06282-17.206-0.0985C203.07977,97.6728,182,101,182,101H722S696.51049,97.568,692.74468,98.06021Z" transform="translate(-182 -93.99957)"/></svg>