<svg id="Layer_1" data-name="Layer 1" xmlns="http://www.w3.org/2000/svg" viewBox="0 0 290.16243 116.24702"><defs><style>.cls-1{fill:#fff;}</style></defs><title>Vector Smart Object</title><path class="cls-1" d="M93.08291,61.87c-0.99886.8931-1.01441,0.93065-.61915,1.4941a0.53783,0.53783,0,0,1-.22425.16529,2.00374,2.00374,0,0,0-1.577.9371,13.943,13.943,0,0,1-5.50839,3.62576,8.4973,8.4973,0,0,1-6.4847-.25014,6.01058,6.01058,0,0,1-2.91635-3.65254,1.214,1.214,0,0,1-.00939-0.59038c0.46161-2.693,1.40317-5.12832,3.70072-6.82845a1.8149,1.8149,0,0,0,.23265-0.291,6.20869,6.20869,0,0,0-.653-0.02655c-3.58374.26424-7.17522,0.45546-10.748,0.8266C65.482,57.57,62.70641,58.05555,59.93173,58.51c-1.76978.28989-3.52156,0.68853-5.28434,1.02291-0.51851.09836-.631,0.33567-0.48373,0.84122q2.39714,8.2274,4.76327,16.46385c0.8961,3.10375,1.799,6.20558,2.68416,9.31247,0.76635,2.69,1.59434,5.36649,2.23421,8.0868a37.52463,37.52463,0,0,1,.54795,4.6329,30.88746,30.88746,0,0,1-.21861,7.533,8.10367,8.10367,0,0,1-4.77045,6.30843,28.36179,28.36179,0,0,1-8.642,2.5259,88.07994,88.07994,0,0,1-10.80048.97834,54.632,54.632,0,0,1-10.57308-.66135,53.54232,53.54232,0,0,1-6.42509-1.46839c-2.98262-.8716-5.91128-1.92637-8.87361-2.86954-1.118-.35594-2.289-0.55159-3.39513-0.93726a20.58547,20.58547,0,0,1-8.49532-5.32316A7.79143,7.79143,0,0,1,.50275,96.71123,25.75132,25.75132,0,0,1,2.64,92.30565,39.70641,39.70641,0,0,1,7.96924,85.085c1.95441-2.13475,4.01-4.1801,6.0792-6.20542,1.45106-1.4203,2.96191-2.7856,4.51293-4.09633a80.845,80.845,0,0,1,8.36953-6.28385c2.04813-1.319,4.07365-2.68491,6.19886-3.8691,1.984-1.10553,4.076-2.021,6.13883-2.98071A73.54063,73.54063,0,0,1,49.325,57.93769a0.4022,0.4022,0,0,0,.33192-0.56035c-0.43391-2.3152-.83683-4.6362-1.267-6.95213a1.30642,1.30642,0,0,0-.30359-0.434,0.63952,0.63952,0,0,1-.14211-0.17071c-0.1598-.69409-0.32106-1.38835-0.45227-2.08812a3.411,3.411,0,0,1,.10548-0.457,5.48177,5.48177,0,0,0-.08466-0.81014,7.19909,7.19909,0,0,1-.1514-0.73457c-0.045-.86281-0.11716-1.72942-0.07753-2.58991a6.79043,6.79043,0,0,1,.36665-2.32449,2.24725,2.24725,0,0,1,1.34849-.83694,1.73058,1.73058,0,0,1,1.25062.10633,2.529,2.529,0,0,1,1.38758,2.16442q0.27425,4.3266.75938,8.639c0.20566,1.84211.58877,3.66394,0.86684,5.49873,0.0711,0.46915.32473,0.40153,0.6431,0.33626,1.76055-.361,3.51442-0.76381,5.286-1.05979a164.77161,164.77161,0,0,1,17.18517-2.08382,49.73881,49.73881,0,0,1,9.94081.09992,51.032,51.032,0,0,1,5.66873,1.227,15.95867,15.95867,0,0,1,2.76615,1.1078,1.78948,1.78948,0,0,1,1.09221,1.61928,9.22055,9.22055,0,0,0,.79582,2.90609,1.303,1.303,0,0,0,1.98587.53618,3.59276,3.59276,0,0,0,1.81684-1.74356,2.79058,2.79058,0,0,1,2.19872-1.33549,2.5509,2.5509,0,0,1,1.99159,1.49476,13.99889,13.99889,0,0,0,.9408,2.30315,2.26733,2.26733,0,0,0,1.71864,1.17793,1.538,1.538,0,0,0,1.85276-1.25848,2.21063,2.21063,0,0,1,3.75771-1.23333,9.12718,9.12718,0,0,0,7.03025,2.28371,32.00351,32.00351,0,0,0,7.65558-1.62078c0.95875-.317.99791-0.39256,0.61449-1.30671-0.46529-1.10933-.31633-1.56944.93932-2.21456a2.34446,2.34446,0,0,1,3.31421,1.41969A6.46721,6.46721,0,0,0,135.7653,62.7a11.74055,11.74055,0,0,0,9.57507.39773,32.43258,32.43258,0,0,0,4.8304-2.62446,0.8917,0.8917,0,0,0,.32871-0.54411,0.819,0.819,0,0,1,.99057-0.65889,1.23832,1.23832,0,0,1,.70686.6803,1.67273,1.67273,0,0,1-.22144,1.93627,13.77894,13.77894,0,0,1-5.70375,4.01828,17.16669,17.16669,0,0,1-7.66566.94655,12.3545,12.3545,0,0,1-5.65061-1.823c-0.80169-.4781-1.57182-1.00909-2.37275-1.48858a0.77088,0.77088,0,0,0-.54381-0.03314c-1.4802.41655-2.94823,0.8776-4.43309,1.27615a32.44615,32.44615,0,0,1-6.81633.914,13.96248,13.96248,0,0,1-6.26341-1.3356,0.87191,0.87191,0,0,0-1.06891.18437,6.17779,6.17779,0,0,1-6.93853.62543,7.37059,7.37059,0,0,1-2.36-1.99318c-0.23714-.36292-0.49543-0.192-0.76989-0.03693a7.70131,7.70131,0,0,1-3.38465,1.1032,4.76751,4.76751,0,0,1-4.2728-1.70046C93.54434,62.31311,93.319,62.11345,93.08291,61.87ZM61.04818,102.55637a31.637,31.637,0,0,0-.73436-7.93151c-1.04029-4.30638-2.352-8.54834-3.59364-12.80454-0.87781-3.00921-1.83292-5.99583-2.74471-8.9952-0.49291-1.62146-.97173-3.24725-1.449-4.8734q-0.98595-3.359-1.95715-6.72237c-0.09979-.34579-0.23473-0.512-0.63721-0.36752-0.71158.25542-1.45629,0.422-2.15973,0.696-2.97375,1.15867-5.98,2.24785-8.891,3.549a62.02362,62.02362,0,0,0-6.6098,3.5,69.40373,69.40373,0,0,0-6.135,4.15572c-2.65528,2.01132-5.2879,4.06938-7.77451,6.28236a77.97488,77.97488,0,0,0-8.97674,9.30738,32.14446,32.14446,0,0,0-5.33982,8.75881,6.11133,6.11133,0,0,0,.70724,5.73787,9.02468,9.02468,0,0,0,4.1344,3.2717c1.95925,0.79577,3.93669,1.548,5.9171,2.29006,1.40221,0.52544,2.81158,1.0366,4.2369,1.49456a67.36934,67.36934,0,0,0,9.78859,2.52028c2.48,0.40211,4.98712.69281,7.49371,0.85705a50.2693,50.2693,0,0,0,6.156-.02543c2.6691-.15337,5.34149-0.36939,7.98987-0.72618a20.37946,20.37946,0,0,0,6.41813-1.64754c1.92079-.94808,3.38427-2.28575,3.71925-4.5214C60.79573,105.09977,60.90367,103.82533,61.04818,102.55637ZM88.29286,57.64586c-1.34969.161-2.68392,0.268-3.99815,0.4923a4.49024,4.49024,0,0,0-3.13247,1.57036,8.35552,8.35552,0,0,0-1.49883,3.557A1.80535,1.80535,0,0,0,80.967,65.35407a5.72144,5.72144,0,0,0,3.24945-.06606,8.35194,8.35194,0,0,0,3.24391-2.191,22.33208,22.33208,0,0,0,3.57157-4.47109c0.299-.48042.13474-0.70337-0.372-0.75661C89.87027,57.78632,89.0789,57.71924,88.29286,57.64586Z" transform="translate(0 0)"/><path class="cls-1" d="M182.08524,14.92446c-0.34065,1.33092-.72857,2.65194-1.01011,3.99525-0.3601,1.71813-.65109,3.45145-0.94058,5.18346-0.24341,1.45632-.43742,2.92084-0.66208,4.38037-0.1518.986-.31743,1.96991-0.47946,2.95432-0.346,2.102-.67087,4.20779-1.048,6.30417a37.70878,37.70878,0,0,1-1.00569,4.786c-0.54494,1.7101-.92871,2.00608-2.79829,2.10856-1.79979.09865-2.8817-1.0175-3.98287-2.11451a21.3392,21.3392,0,0,1-4.7591-7.69345c-0.53893-1.414-.91717-2.889-1.37808-4.33327a5.77491,5.77491,0,0,0-.56878-1.28c0,0.69294-.00529,1.38594.001,2.07883,0.01695,1.8584.04557,3.7167,0.05716,5.57512,0.0157,2.51784-.09015,5.042.053,7.55227,0.25865,4.53708.63083,9.06887,1.3085,13.56848,0.2308,1.53244.42888,3.06989,0.668,4.601,0.20481,1.31108-.5509,1.76422-1.74974,1.81925-0.355.0163-.71155,0.00177-1.06736-0.00123a2.0517,2.0517,0,0,1-1.44009-1.23382,61.02274,61.02274,0,0,1-2.4134-10.011c-0.52824-4.36189-.99624-8.73126-1.46626-13.1q-0.9102-8.46029-1.78241-16.92465c-0.20382-1.94549-.41808-3.8902-0.59063-5.83855-0.12253-1.38363-.18252-2.77278-0.27249-4.15934a1.55091,1.55091,0,0,0-.05342-0.41221,1.30885,1.30885,0,0,1,.16192-1.54964,2.23311,2.23311,0,0,1,2.29966-.76878,3.35214,3.35214,0,0,1,2.56893,2.52039c0.09092,0.37352.29287,0.44268,0.66281,0.32585a2.68625,2.68625,0,0,1,3.36589,1.676c0.69719,2.03665,1.365,4.088,1.928,6.165,1.20639,4.45045,2.09369,8.98949,3.65366,13.341a19.236,19.236,0,0,0,3.32663,5.85988c0.13216,0.15873.30035,0.28747,0.60086,0.57054,0.24387-1.04609.493-1.923,0.64815-2.81619,0.468-2.69422.89953-5.39479,1.34533-8.09288,0.28846-1.74576.521-3.503,0.87731-5.23485,0.71533-3.47667,1.48425-6.94258,2.25891-10.4067,0.41744-1.86677.93173-3.71227,1.33134-5.58254,0.47944-2.244.90166-4.50083,1.31307-6.75859,0.25592-1.40437.81253-1.959,2.11863-1.97764a2.447,2.447,0,0,1,2.4287,2.06191c0.21059,2.22056.33168,4.44958,0.49147,6.675,0.346,4.81917.65353,9.64155,1.05349,14.45624,0.26429,3.18144.598,6.36033,1.02075,9.52432,0.3196,2.39224.77643,4.77,1.26647,7.13469,0.72454,3.49616,1.56623,6.968,2.295,10.46333,0.611,2.93042,1.16369,5.874,1.68023,8.82267,0.2995,1.7097.44462,3.446,0.72239,5.16014,0.13671,0.84359.42545,1.66184,0.62959,2.49541a0.95373,0.95373,0,0,1-.84,1.29884,10.04724,10.04724,0,0,1-1.90075.17287,1.37558,1.37558,0,0,1-1.22643-.98614,12.86877,12.86877,0,0,1-.60806-2.19064c-0.24593-1.47341-.38418-2.96455-0.61768-4.44034-0.43989-2.78011-.86938-5.56326-1.39066-8.32866-0.4512-2.39361-1.09084-4.7521-1.528-7.14786-0.8566-4.69413-1.674-9.39648-2.41957-14.10935-0.37072-2.34349-.529-4.71995-0.81519-7.07762-0.36015-2.96664-.75267-5.92935-1.13338-8.89348a0.717,0.717,0,0,0-.06195-0.16084Z" transform="translate(0 0)"/><path class="cls-1" d="M247.96209,62.728c-0.5618.60539-1.094,1.25314-1.7025,1.8188a7.88713,7.88713,0,0,1-4.162,1.99265c-3.39771.55629-6.54779,0.13237-9.01871-2.59375-0.28085-.30987-0.5719-0.61066-0.86287-0.91117-0.55756-.57587-0.64645-0.54339-1.2462-0.0246a17.11383,17.11383,0,0,1-2.491,1.95328,7.7,7.7,0,0,1-2.81209,1.07071c-1.77694.21661-3.632,0.33294-5.14636-.95419a16.74657,16.74657,0,0,1-1.62582-1.73566,6.02773,6.02773,0,0,1-.49037-0.775c-0.13847.16921-.24867,0.29313-0.34709,0.42577a5.54856,5.54856,0,0,1-4.78863,2.50076,14.842,14.842,0,0,1-3.19969-.33108c-1.67033-.42431-2.5923-1.77309-3.37979-3.19561-0.25928-.46838-0.4683-0.96457-0.76008-1.57258-0.41149.57844-.73657,1.08882-1.11451,1.55646-1.02642,1.27-2.01239,2.58137-3.13266,3.76438-1.14466,1.20877-2.66115,1.18163-4.14249.7807a1.14427,1.14427,0,0,1,.03664-2.23906,4.96941,4.96941,0,0,0,2.04877-1.66459c0.52834-.68866,1.16625-1.29911,1.64763-2.01664,0.88455-1.31848,1.69667-2.686,2.52117-4.04391a3.06239,3.06239,0,0,0,.32279-0.833,2.62709,2.62709,0,0,1,2.4185-1.9285,2.31791,2.31791,0,0,1,2.25419,1.629c0.5076,1.531.99062,3.07091,1.53491,4.58881a11.18391,11.18391,0,0,0,.92584,1.94253,1.8568,1.8568,0,0,0,3.14235.00177c0.54533-.92087.93637-1.93646,1.51333-2.83457,1.17787-1.83348,3.24063-3.11854,5.06663-.62511a27.688,27.688,0,0,1,1.68653,3.21743,4.18074,4.18074,0,0,0,.92952,1.29041,1.92535,1.92535,0,0,0,2.53881-.09364c1.1816-1.06537,2.31712-2.1901,3.39284-3.36245,1.17888-1.28479,2.72329-1.72471,4.057-.42343,1.1538,1.12573,2.228,2.33274,3.37626,3.46448a4.38015,4.38015,0,0,0,5.76542.62423,7.56142,7.56142,0,0,0,2.15991-2.65619c0.65528-1.06368,1.04962-2.28636,1.68565-3.36425A2.59561,2.59561,0,0,1,248.741,55.894a2.07166,2.07166,0,0,1,2.00786,1.28516,14.51376,14.51376,0,0,1,1.02938,3.2189,10.2112,10.2112,0,0,0,2.01475,4.16964,2.50466,2.50466,0,0,0,2.36071,1.04718,33.92688,33.92688,0,0,0,3.49477-.79433,3.60366,3.60366,0,0,0,.6414-0.41826,1.289,1.289,0,0,1,1.63717.38357,1.23381,1.23381,0,0,1-.30018,1.827,10.25441,10.25441,0,0,1-8.03186,1.72448,6.50816,6.50816,0,0,1-4.10991-2.99717C248.91353,64.5123,248.46474,63.59978,247.96209,62.728Z" transform="translate(0 0)"/><path class="cls-1" d="M264.79727,58.42192c0.196-1.15224.35461-2.31256,0.60114-3.45388a2.94782,2.94782,0,0,1,2.26934-1.70946,1.97906,1.97906,0,0,1,2.05248,1.25843,6.0073,6.0073,0,0,1,.21536,3.30924c-0.18961.72935-.42278,1.44776-0.64843,2.16732a5.4893,5.4893,0,0,0,.464,4.018,13.03212,13.03212,0,0,0,7.68519,7.18605,13.63642,13.63642,0,0,0,10.00872-.50916,1.66965,1.66965,0,0,0,1.07259-.96562,0.726,0.726,0,0,1,1.05442-.44881,0.96266,0.96266,0,0,1,.58248.99284c0.11142,1.45331-.98733,1.98078-1.9527,2.5235a15.13724,15.13724,0,0,1-7.8489,1.77628,14.76775,14.76775,0,0,1-5.935-1.25384,17.27434,17.27434,0,0,1-6.47593-4.71234,15.56978,15.56978,0,0,1-2.62131-4.32625,0.83178,0.83178,0,0,0-.75217-0.57234,6.85144,6.85144,0,0,1-1.78274-.39465,3.08179,3.08179,0,0,1-1.477-1.96059,12.17751,12.17751,0,0,1-.6041-4.613c0.12615-3.85435.2898-7.7077,0.46963-11.56,0.12732-2.72775.30844-5.453,0.457-8.17978a6.05732,6.05732,0,0,0-.04652-0.83742c-0.08048-.94354-0.222-1.88616-0.2306-2.83013a1.86043,1.86043,0,0,1,1.10127-1.49745,2.61327,2.61327,0,0,1,3.5136.55734,1.746,1.746,0,0,1,.24018.69478,15.1641,15.1641,0,0,1,.16052,1.99636,16.347,16.347,0,0,1-.22708,1.63606c-0.06586.56909-.09038,1.14286-0.14988,1.71282-0.04705.451-.12434,0.89874-0.18006,1.34893-0.16837,1.36015-.384,2.7169-0.48765,4.08208q-0.30146,3.97072-.49251,7.94954c-0.095,1.99347-.10863,3.99086-0.15214,5.98665a6.00481,6.00481,0,0,0,.05174.63807Z" transform="translate(0 0)"/><path class="cls-1" d="M48.02313,27.32016a5.38416,5.38416,0,0,1-2.83472-1.10627,8.16173,8.16173,0,0,1-1.064-1.11985,0.79776,0.79776,0,0,1,.07719-1.18114,4.9174,4.9174,0,0,1,1.11775-.86817,5.049,5.049,0,0,1,1.569-.54355,2.80792,2.80792,0,0,1,1.19011.2474,6.24336,6.24336,0,0,1,.59773.38988,0.995,0.995,0,0,1,.60356,1.00388,1.04784,1.04784,0,0,0,.41931.97566c0.66778,0.4976.54541,0.92129-.06279,1.45448A2.15591,2.15591,0,0,1,48.02313,27.32016Z" transform="translate(0 0)"/></svg>