<svg id="Layer_2" data-name="Layer 2" xmlns="http://www.w3.org/2000/svg" viewBox="0 0 13.32929 12.86693"><title>splash_2</title><path fill="#41766a" d="M49.6948,87.61721a0.69856,0.69856,0,0,1,.5073-0.3594,0.73594,0.73594,0,0,1-.5742.5567,0.35193,0.35193,0,0,1,.0669-0.1973m0.9326,5.5185c0-.1132.1163-0.082,0.1963-0.0981a0.19583,0.19583,0,0,1-.1963.0981m8.9893-2.5546c-0.5146,0-.0449,1.25289-0.3765,1.3344-1.0747.27249,0.2618,0.9971,0.2618,1.2036a1.27957,1.27957,0,0,0-.8721-0.1455c-0.1055.19439,0.3179,0.2207,0.1767,0.4077-0.1391.1851-.4477-0.3344-0.5937-0.0292-0.0474.0986,0.1099,0.44089-.0991,0.4228-0.7852-.06491-0.3379.6875-0.7408,0.7358a1.03692,1.03692,0,0,0-.8183-0.1308c-0.0825.0493-.1099,0.7212-0.1607,0.6782a1.27456,1.27456,0,0,0-.3999-0.6255c-0.2319-.0478-1.0605.001-1.0605,0.3721a0.77728,0.77728,0,0,1-.1675-0.24371,2.071,2.071,0,0,0-.5527.523c0.0215-.11669.5317-1.21779-0.1841-0.88089-0.3726.1753-.2119-0.18411-0.4385-0.269-0.331-.1245-0.5014.8603-0.7578,0.6055-0.2588-.2593.793-0.5889,0.332-0.8692-0.2876-.1753.0113-0.3662-0.2182-0.541-0.0772-.0576-0.4199.1738-0.4448,0.0225-0.0254-.15091.4902-0.8052-0.1475-0.729-0.1162.0136-.7954,0.5932-0.8433,0.3042,0.8174,0,.9063-2.1836-0.7529-1.6377a1.23486,1.23486,0,0,1,.7861-0.295,0.65464,0.65464,0,0,0,.3633-0.0229c0.2901-.1084-0.0044-0.3203.0249-0.4907,0.0152-.0899.6494-0.3404,0.1934-0.4771-0.4024-.1211-0.2129-0.2988.1054-0.2212,0.4151,0-.1137-0.33051-0.1137-0.4258,0,0.2261.7685-.5395,0.3354-0.5395,1.2603,0-.0366-0.6157.1157-0.854,0.1392-.2168.5166,0.4023,0.6851,0.3066,0.8306-.4687-0.1885-0.7475.0674-1,0.2163-.2163.4473,0.4575,0.7241,0.357A4.47,4.47,0,0,0,54.6875,86.75a0.3596,0.3596,0,0,0,.1646.24561c0-.14061-0.066-0.2681-0.066-0.4092a3.36053,3.36053,0,0,0,.2364.5562c0.2417-.1211-0.1558-1.0147.1245-1.0147-0.1148,0,.2749,1.6612.6577,0.8809,0.2685-.5484.3633-2.4063,0.7905-2.65581,0.4082-.23919.2056,1.81791,0.148,2.13091-0.0777.41109,0.2363,0.2212,0.248,0.4614,0.0293,0.5713-.0493.4439,0.3657,0.2793,0,0.6221.4571-.0298,0.6387-0.1313a0.97637,0.97637,0,0,1-.1963.312,3.82674,3.82674,0,0,0,1.0645-1.0327c0,0.5249-.9849.9101-0.8828,1.3149,0.1396,0.5503.7378,0.042,0.9121,0.7051,0.1264,0.48239.2636,0.873,0.3798,1.3213,0.044,0.186.8638,0.8672,0.3438,0.8672m-8.793,2.4238c0.0435,0,.0659.0102,0.0659,0.0327A0.1982,0.1982,0,0,1,50.8237,93.00491Zm0.4424-.2134c0.2129,0-.2534.3022-0.3765,0.1807a0.74712,0.74712,0,0,0,.3765-0.1807m1.228-5.1904a0.15848,0.15848,0,0,1-.1318-0.0987,0.10343,0.10343,0,0,1,.1318.0987m0.3433-3.0786c0.0884-.0874.1108-0.0752,0.148,0.0332a0.52233,0.52233,0,0,0-.148-0.0332m1.2935,1.8188a0.61157,0.61157,0,0,1-.4087.229,0.45752,0.45752,0,0,1,.4087-0.229m-0.1465,8.8086a1.06505,1.06505,0,0,1,.0976-0.1802,1.64636,1.64636,0,0,1-.2451.5572l0.1475-.377m0.1142-.2954c0.0547,0,.0264.08249,0.0157,0.0986a0.12891,0.12891,0,0,1-.0157-0.0986m0.0493,0c-0.0659,0,0-.0859,0,0m0.0323-.0498c-0.0523-.0103-0.0625-0.0318-0.0323-0.0645l0.0323,0.0645m0-.1299a0.09444,0.09444,0,0,1,.0332.0654c-0.1172,0-.0244-0.039-0.0332-0.0654m0.0654,0h0m0.3447,0.8189a2.12266,2.12266,0,0,0,.1465-0.3111,1.50165,1.50165,0,0,1-.2129.7202c0.022-.1362.044-0.2729,0.0664-0.4091m0.1631-9.0552c0.0899,0-.022.1636,0.0327,0.1636a0.68995,0.68995,0,0,1-.0986-0.3599c0.0352,0.0351.124,0.1406,0.0659,0.1963m1.8833,9.8408a0.2908,0.2908,0,0,1,0,.2461c-0.0259-.0776-0.0918-0.1846,0-0.2461m0.1309,0.4419,0.0322,0.3115c-0.2173,0-.167-0.3633-0.1309-0.4751a0.64616,0.64616,0,0,0,.0987.1636m0.3764-1.981c0.0533,0,.0269.0933,0.0166,0.1143a0.15682,0.15682,0,0,1-.0166-0.1143m0.065,0.2129h0M57.2915,95.624l-0.0337.04981a0.29382,0.29382,0,0,1-.0806-0.2129h0.1797c-0.0215.0542-.0434,0.1089-0.0654,0.16309m-0.0825-.50679c0.0381,0.0254.0434,0.0517,0.0171,0.0815-0.0054-.0278-0.0113-0.0551-0.0171-0.0815m0.0332,0.5893c0.1089,0,.0454.0904,0.082,0.1636-0.1328,0-.082-0.0825-0.082-0.1636m0.2783,1.0977c-0.1562,0-.1494-0.2954-0.1963-0.7217a2.46026,2.46026,0,0,1,.1963.7217m0.4751-1.9995a0.167,0.167,0,0,1-.1963.1167c0-.1343.0899-0.1167,0.1963-0.1167m-0.1313.59029c0.0224,0.01081.0439,0.022,0.0659,0.03321-0.0327.05279-.0537,0.0415-0.0659-0.03321m0.1645-8.33489c-0.0059.0385-.0176,0.0444-0.0332,0.017a1.04,1.04,0,0,1,.148-0.2285c0.0688,0.06939-.063.187-0.1148,0.2115m0.2456-.4082c0.0166,0.0102.0322,0.021,0.0493,0.0327a0.53512,0.53512,0,0,1-.1484.164,0.52674,0.52674,0,0,1,.0991-0.1967m2.9141-1.4908c0.4321,0.2871-1.0645,1.2476-1.0645,1.2447-0.1147-.0386-1.0674-0.4712-1.0639-0.4742a0.54069,0.54069,0,0,1-.1802.441,0.45985,0.45985,0,0,1,.082-0.2447,0.13076,0.13076,0,0,0-.0981.0645c0-.4082.0229-2.1157,0.8271-2.023a1.764,1.764,0,0,1,1.0064.1895c0.2964,0.186.2724,0.7148,0.4912,0.8022m-1.3755,8.1543a0.24021,0.24021,0,0,1,.1963.1973,0.64386,0.64386,0,0,1-.4414-0.312,0.65032,0.65032,0,0,1,.2451.1147m0.1641-1.7842a0.10082,0.10082,0,0,1,.1469-0.0981,0.10082,0.10082,0,0,1-.1469.0981m0.1796-2.7998q0.2322,0.02205-.1303.0977a0.58286,0.58286,0,0,1,.1303-0.0977m0.6392-.2778a0.88213,0.88213,0,0,1-.5405.2778,0.89968,0.89968,0,0,1,.5405-0.2778m0.5562-.3125h0m0.8837-.4253c0.0904-.104.1265-0.1006,0.1089,0.0117a1.66449,1.66449,0,0,1-.894.4136c0-.3149.6391-0.2285,0.7851-0.4253m-0.1298-.0815a0.17122,0.17122,0,0,1-.148.0976c0-.0932.0957-0.0796,0.148-0.0976m0-.0659a0.083,0.083,0,0,1,.0971.0327c-0.0425.0522-.0757,0.0425-0.0971-0.0327m0.7041,7.0732c0.3681,0-.0357.8623-0.3277,0.0986,0.1255,0,.2061-0.0986.3277-0.0986m-0.066-7.0732c-0.1064.0019-.1494-0.0362-0.1308-0.1143,0.1416-.043.1855-0.0049,0.1308,0.1143" transform="translate(-49.6279 -84.16577)"/></svg>