<svg id="Layer_2" data-name="Layer 2" xmlns="http://www.w3.org/2000/svg" viewBox="0 0 8.08653 9.8555"><title>splash_1</title><path fill="#948e00" d="M354.78219,192.6406a0.22913,0.22913,0,0,1,.2285-0.1318c-0.0322.0644-.1865,0.2754-0.2939,0.1631v-0.0313h0.0654m0.0674-2.2275H354.751v-0.0664a0.09141,0.09141,0,0,1,.09859.0664m7.9229,0.164c0.2451,0.3721-1.0674.042-.5557,0.5889a3.72828,3.72828,0,0,0,.4521.7051,2.34422,2.34422,0,0,0-.50089-0.0625,1.81491,1.81491,0,0,1-.21391.4053,0.453,0.453,0,0,0,.29491.622,1.53645,1.53645,0,0,1-.29491.295c0.041,0.0625.2627,0.1562,0.2627,0.1972,0.2305,0.2783-.668-0.1972-0.7695-0.1972-0.4102,0-.1299.5517,0.0478,0.6562a0.365,0.365,0,0,1,.2295.3262,0.73743,0.73743,0,0,0-.3271-0.0967v-0.0322a0.6327,0.6327,0,0,0-.3594-0.4278c-0.624,0,.0683.4629-0.58009,0.3663-0.30661-.043-0.19141.2675-0.14061,0.3876v0.0977h0.0322a4.58049,4.58049,0,0,1,.3936.8506,0.77517,0.77517,0,0,1-.32819-0.458v-0.0635h-0.03321a0.42811,0.42811,0,0,0-.2295-0.2949h-0.0664v-0.0342a0.87186,0.87186,0,0,1-.9814-0.2285,4.22629,4.22629,0,0,0-1.1123.4258,0.4917,0.4917,0,0,1-.1973.0664c0-.4903-0.4306-0.5586-0.6933-0.9619-0.30859-.4707-0.5645.2392-0.7813,0.2392-0.0801-.3623.4961-0.6826-0.0986-0.8838v0.0655c0.0058-.001-0.3369.0097-0.2715,0.0673a0.785,0.785,0,0,1,.0439-0.624h0.0332c0-.7441-0.8222.0498-1.0166-0.0986a1.41735,1.41735,0,0,0,.753-0.5606,1.00175,1.00175,0,0,1-.0655-0.6836c-0.2695-.1689-0.0127-0.331.0245-0.5263,0.06731-.3848-0.5899-0.2002-0.7442-0.3584a0.74046,0.74046,0,0,0,.9278-0.667c0.038-.124.4013-0.0508,0.3203-0.2744a3.81153,3.81153,0,0,1-.3955-0.3018,1.25461,1.25461,0,0,0,1.0791-.5576c0.0166-.5127-0.752-1.0518-0.752-1.3398a1.45853,1.45853,0,0,1,.50781.7519c0.30179,0.3828.457,0.1953,0.86619,0.1953,0.1797-.2383-0.3271-0.5664-0.0644-0.7539a2.07645,2.07645,0,0,0,.3271.6563h0.0977v-0.0323a2.87281,2.87281,0,0,1,.8525-0.5586c-0.168.6602,0.6465-.0097,0.8037,0.2129,0.4737,0.6641.5157-.0488,0.9307-0.0488-0.4873,0,.5674.9336,0.4844,0.46a0.77649,0.77649,0,0,0,.8593.8515v-0.0342h0.1309v0.0342a1.059,1.059,0,0,1,.3613-0.0664c-1.2822.2656-.0029,0.6533,0.1621,0.9492-0.6972.4161-.3398,0.7539,0.295,0.7539m-7.5967-3.7988a0.046,0.046,0,0,1-.0332-0.0654,0.26452,0.26452,0,0,1,.06541.0996c-0.03711.0078-.02731-0.0078-0.03221-0.0342m0.0976,0.0977c0.0118,0.0224.0225,0.0439,0.0323,0.0654-0.0528.0059-.0215-0.0254-0.0323-0.0654m0.1319,0.1972c-0.0752-.0615.0029-0.0156,0.0322,0.0323-0.0303,0-.0586-0.0127-0.0322-0.0323m0.2929,1.9327a0.11176,0.11176,0,0,1,.1329.0976c-0.0918,0-.1573-0.0264-0.1329-0.0976m0.2637,5.5c0.0205-.0313.042-0.0635,0.0654-0.0977,0.2276,0.2266.1114,0.1465,0.0332,0.1318-0.0488.0137-.0937,0.0137-0.0986-0.0341m0.1963-.292,0.0332,0.0644c-0.0547.0029-.02339-0.0263-0.0332-0.0644m0.0635-.0342c0-.0801-0.0108-0.1426.0674-0.1631a0.222,0.222,0,0,1-.0674.1631m0.0674-.2305a0.04559,0.04559,0,0,1,.0312.0674h-0.0312v-0.0674m0.7851,0.7529c0.1162-.1132.083,0.003,0.0664,0.0987-0.0537.0107-.0761-0.0215-0.0664-0.0987m0.0987-.4238h0.0322v0.1299c-0.0469-.0146-0.0488-0.0703-0.0322-0.1299m0.0322-.1318a0.04682,0.04682,0,0,1,.0342.0674h-0.0342v-0.0674m0.1972-6.8447a1.05675,1.05675,0,0,1-.1308-0.4258,0.61208,0.61208,0,0,1,.1621.4912h-0.0313v-0.0654m0.294,7.499c0.0273,0.082.0674,0.1513,0.0986,0.2295a0.36636,0.36636,0,0,1-.0986.0322v-0.2617m1.5068-7.2031v0.0312c-0.0439.0059-.0273-0.0127,0-0.0312m0.3282-1.834c-0.0596-.0586-0.251-0.3604-0.03329-0.3604a0.60973,0.60973,0,0,0,.03329.3604m-0.0987.458h-0.0332V186.124c0.0469,0.0039.0469,0.0508,0.0332,0.0977m0-.1973c-0.0537-.1621-0.0312-0.2392.06541-0.2275a0.18794,0.18794,0,0,1-.06541.2275m0.6221,8.4502c0.0107,0.0205.0215,0.044,0.0312,0.0654-0.0517.003-.0214-0.0273-0.0312-0.0654m0.0976,0.1631h-0.0312v-0.0645l0.0312,0.0645m0.0176,0.0156h-0.0176v0.0488c-0.0039-.0244-0.0185-0.0791.0176-0.0488m-0.0176.0488c0.0118,0.0225.0225,0.0459,0.0332,0.0665h-0.0332v-0.0665m0.09871,0.2295a0.64082,0.64082,0,0,1-.06551-0.163,0.28771,0.28771,0,0,1,.0987.1953c-0.0488.0136-.0166-0.0166-0.03319-0.0323m0.03319,0.0323a0.04775,0.04775,0,0,1,.0332.0664h-0.0332v-0.0664m0.0654,0.1328H360.415v0.0996c-0.10931-.0459-0.09761-0.0615-0.09761-0.166h0.0322v0.0664" transform="translate(-354.71679 -185.4033)"/></svg>