<svg id="Layer_1" data-name="Layer 1" xmlns="http://www.w3.org/2000/svg" viewBox="0 0 500 5.77779"><defs><style>.cls-1{fill:#231f20;fill-rule:evenodd;}</style></defs><title>stroke_1</title><path class="cls-1" d="M494.43113,4.54929c-3.65421.79288-7.50728,0.54207-11.21516,0.44785-1.98166-.05-3.96526-0.09625-5.946-0.02172-0.92763.03485-1.85441,0.09712-2.7755,0.20737-0.45538.02829-.48366-0.45721-0.93711-0.52788-1.46788-.23285-3.278.30255-4.76759,0.37332-2.23624.10745-4.479,0.09239-6.71527,0.02259C457.6679,4.91691,453.268,4.57091,448.886,4.126c0.1339-.06217.2678-0.1254,0.4017-0.18758-1.566-.15562-3.08569.47324-4.65445,0.37332-0.166-.43655-0.2093-0.15746-1.20587-0.11034a11.57523,11.57523,0,0,1-3.59754-.43925c-0.91635.02732-1.97983,0.84848-3.06868,0.87387-2.28433.05377-4.57713-.4101-6.85208-0.04238,0.24791-.04711.2961-0.14143,0.13863-0.28006-5.93.68359-11.93921,0.42806-17.89655,0.61853,0.97669-.76739-0.90786-0.215-0.9428-0.20833-1.31322.25351-2.57374-.016-3.84178,0.12444-1.86475.20737-5.00043,0.98518-6.69925,0.33934-1.10209-.41946-10.37421.00666-10.41292-0.166a8.98452,8.98452,0,0,1,1.30106-.33461c0.33-.31308-2.585-0.20457-2.67742-0.19993-1.943.09152-3.888,0.14616-5.8301,0.17638-3.94643.06121-7.89189,0.02819-11.83736-.00386-2.42671-.01883-4.73931-0.52788-7.10944-0.40344a20.6746,20.6746,0,0,1-2.78777-.06787c-1.07-.14993-1.93175.478-3.01685,0.31481,1.15018-.263.31771-0.41483-0.31955-0.30922-1.24072.20553-2.50877,0.15369-3.75981,0.25457a0.44846,0.44846,0,0,0,.47332-0.30265c-1.52165.43462-3.07536-.13853-4.60261,0.16315,0.15746-.1.313-0.198,0.47045-0.29705-1.27935-.19231-1.51037.52044-2.69259,0.3932,0.264-.01226.36965-0.12357,0.31395-0.3319-4.02839,1.20114-8.33684.199-12.41428,0.38558-1.4283.066-1.89787-.62027-3.31477-0.55809,0.18758,0.41579-2.34755.37052-2.54835,0.60994a0.32172,0.32172,0,0,0,.3375.30265,30.51452,30.51452,0,0,0-6.30807-.164c0.81083-.22716-1.24632-0.7448.41773-0.78438-0.45258-.07829-0.87774-0.29319-1.32742-0.379a1.415,1.415,0,0,1,.824-0.0782,23.97093,23.97093,0,0,1-3.84275-.0029,21.30837,21.30837,0,0,1-4.91839,1.10306c0.71739-.15369-0.23951-0.72211-0.72125-0.53927-0.57885.21972-2.2541,1.25105-2.87166,0.79384-0.00473-.00377-5.67265-0.31964-5.4954-0.4129,0.05184-.02645.64585-0.13013,0.64392-0.13207-0.39784-.51378-5.29837.43462-5.31815,0.39031,0.16219,0.38847.81082-.02452,1.07,0.01892-1.003.58541-2.65193,0.42516-3.75789,0.42236a0.58071,0.58071,0,0,0,.51388-0.41956,37.07909,37.07909,0,0,1-5.83194.74577c1.52532-.98238-1.73945-0.43559-2.438-0.38751a18.29921,18.29921,0,0,1-4.81007.01786c-0.08573-.06121-4.25844.04055-4.233,0.034a48.8996,48.8996,0,0,1-6.28355.24511,7.90976,7.90976,0,0,0-2.63881-.03775,5.43021,5.43021,0,0,1-2.18719.429c0.04991-.12347.09992-0.247,0.14983-0.36955a15.432,15.432,0,0,0-2.18526-.16692c0.56659,0.28093.90786,0.25554,1.0266-.08013a1.335,1.335,0,0,1-1.33118-.05561c-0.25737.11971-.20736,0.166,0.149,0.1367a7.78915,7.78915,0,0,1-2.79336-.02645,0.35463,0.35463,0,0,0,.46851-0.35536c-0.75233-.90506-4.17735.82773-4.59595,0.59864-0.78438-.2706-2.91973.49969-2.54545-0.85794-0.16026.00473-2.27591,0.87494-2.1703,0.4771,0.06787,0.5383-2.44553.20553-2.85467,0.4798-1.41749-.20457-2.85563-0.11874-4.27785-0.25921-1.75489-.17445-3.4396.22716-5.22432,0.04151a1.2446,1.2446,0,0,0,.73775-0.23951c-1.09031-.23382-2.08255-0.00473-3.188-0.2149-1.2468-.23671-2.5275-0.87117-2.87262.43076-1.6738-.83246-3.66356.43462-5.4091-0.22716a2.55466,2.55466,0,0,0,1.13318-.38085c-0.51282-1.0182-4.02656.15079-4.86606,0.00656,0.24376,0.16972.42429,0.43085,0.66989,0.59767-2.04914-.76546-4.66439.01516-6.5834-0.0782-1.82614-.08862-3.657.01883-5.48314-0.08486a10.31839,10.31839,0,0,1-2.28944-.33847c-0.11131-.03205-2.20332-0.18381-1.93175.06034,0.41386,0.15466,1.05923-.199,1.37781-0.0028-0.28614.01313-2.64681,0.24415-1.5372-.40826-1.50128-.23662-2.55395.68166-4.0029,0.74673-1.212.05368-1.85443-.35922-3.22008,0.01033-1.59937.43462-1.25385-.907-2.38375-0.85881-1.17846.04991-2.0807,0.494-3.1578-.22349,0.87726,0.33-.95835.29039-1.17334,0.33654l0.43327-.09326a3.54659,3.54659,0,0,0-1.91573-.03118c0.3766,0.43375,1.58007.38278,2.08351,0.44032-1.32269.51851-2.43752,0.02259-3.79274,0.00656-0.7867-.01033-2.02462.58078-2.76228,0.13293a8.67093,8.67093,0,0,1,1.3557-.115c-1.61683-.40537-1.92992.44215-3.20356,0.26017a2.92559,2.92559,0,0,0,.78583-0.39591q-0.8606-.1089-1.721-0.21876c0.01216,0.12164.02491,0.24135,0.03717,0.362a5.95253,5.95253,0,0,0-2.69721.19231c-1.84921.55346-3.245-.52884-5.164-0.18661-0.82261.147-2.867,0.56369-3.66125,0.05088-0.64961-.41956-0.64672-0.98808-1.57542-0.6807-0.0419,0-2.40026.4714-1.30946,0.891C171.0296,4.33719,164.50991,6.13881,158.3424,4.67c1.17276-.16779-1.228-1.0936-1.40851-0.35826a1.26728,1.26728,0,0,0,1.20722.62509,21.85555,21.85555,0,0,1-6.65272-.17821c0.849,0.20833-1.83039-.181-2.26163-0.15842a5.34536,5.34536,0,0,0-2.15051.38751c-0.7141.45065-1.52918-.33094-2.31685-0.15842a8.54616,8.54616,0,0,1-3.45572.23662c-0.42564-.05464-0.8202-0.43645-1.24729-0.47227-0.31057.02636-1.499,0.31018-.39021,0.46291-1.63383-.20457-3.91728-0.908-5.48787-0.57508a40.0657,40.0657,0,0,1-7.37666.692c-1.788.04055-4.56776-.28942-5.8164-0.2621-0.73959-.12917-0.80755.36009-1.42975,0.24231,0.33895-.23478-1.1549-0.48366-0.21074-0.77125-1.25946-.18188-2.08207.39224-3.26622,0.49592-0.05889.23478,0.84713-.131,0.76421,0.199-0.38519.27243-3.52783,0.33374-2.73641-.51571-1.20491.63542-1.64513-.0613-0.239-0.62886,1.90018-.76459-0.71034-0.6081-0.85225-0.89376-0.11218-.22436.91307-0.36009,1.02853-0.41666,0.21683-.10368-3.615.543-1.60545,0.96066-0.14809.00753-3.40678,1.22277-3.26486,0.97582,0.19231-.33567,1.25675.10745,1.53864-0.21972,0.16827-.19424-3.1244-0.04528-3.361-0.07636,1.98031,0.31018-3.5679.64672-1.72429,0.90033-0.31674.44978-2.83208,0.15369-2.8203,0.0641,0.0391-.28846.49023-0.39031,0.49776-0.676,0.01892-.70609-2.89666.31115-1.8412,0.86074-0.27388-.04335-1.19728-0.33461-0.5049-0.71642-0.83671-.1924-2.36492.76073-2.98712-0.084-0.34271.46484-2.95507,0.12067-3.91534,0.15659-0.09567.0028-2.6864-.61283-2.56148-0.02076,0.09055,0.428,2.17966.18565,2.637,0.48453a10.20982,10.20982,0,0,0-4.45741.17445c0.41859-.58831-1.03191.06787-0.80041,0.08862-1.06483.10272-1.39721-.63542-2.44795-0.577,0.43655-.06314.86036-0.2149,1.29633-0.28373-1.08838.22812-1.38775-.594-2.34368,0.35353-0.81267.80417-.89569,0.11594-1.7408,0.36762,0.3375-.06121.64807-0.26674,0.98422-0.33654a16.94244,16.94244,0,0,0-2.45075-.58541c-0.45016.06121-2.15611,0.59488-.60569,0.8089-0.31018.00087-2.19106-.66467-1.76532-0.149,0.04142,0.05088-3.5373-.50722-4.04876-0.66371,0.41811-.15562.80137-0.44688,1.22895-0.57228-0.3041.04991-.63165-0.03862-0.94-0.01323,1.079-.46194-0.733-0.35633-0.19462-0.84655a6.1251,6.1251,0,0,0-1.97182.20177C75.93182,3.978,72.17394,4.324,72.88389,4.99047c-1.78752.12637-2.69306-1.51026-4.48338-.659,0.36965,0.1452-.16073.50345,0.26162,0.56475a4.593,4.593,0,0,1-2.13815.37428c0.92581-.2037-0.4827-0.51861-0.4799-0.84008,0.00329-.45248,1.81253-0.12251,2.10572-0.19231a5.25451,5.25451,0,0,0-.99271-0.68157C66.89546,3.5085,64.12652,3.61971,64.399,3.944c0.15369,0.378.81508,0.099,1.0823,0.20553-0.24656-.098-2.75243-0.082-3.14651.39977,0.46957-.018,1.5957.0085,1.75074,0.66178a5.29681,5.29681,0,0,1-1.40474.16315c0.0641-.09142.12917-0.18294,0.19327-0.27436-1.53671-.13477-2.53647.84945-4.05861-0.14143,0.47661-.56659,2.56437.3319,2.80669-0.311,0.09374-.24984-3.01685-0.03591-3.38737-0.08775q0.495-.07356.98943-0.148c-0.82261-.04335-3.11214-1.52542-3.7937-0.28469,0.11787,0.12627.23758,0.25168,0.35961,0.37428-1.48864.04431-4.81229,1.01154-6.10341,0.01226A10.33326,10.33326,0,0,1,51.64244,4.471c0.93286,0.03958,2.63784.21306,3.43632-.41193-0.683-.42429,1.96805-0.0754,2.18719-0.55722-1.70681-.02539-2.11643-1.23976-3.73472-0.8956-0.09615.38751,0.63349,0.50905,0.7561,0.81074-0.84945-.04808-5.23426.76932-5.65469,0.21779q0.00709-.51045.63918-0.38558c-2.54034.10088-5.08714,0.03205-7.62419-.11314a0.35144,0.35144,0,0,1,.40025.28383c-0.28711.23758-2.81885,0.36289-2.40923-.44032-1.13887.20273-.37525-0.09142-1.03046-0.30265-1.063-.34223-2.69258.23478-3.781,0.33943-2.56293.24888-5.11359-.11874-7.69862,0.02076-0.857.04615-2.264,0.395-3.023-.1452a4.80644,4.80644,0,0,0-1.61587-.58078,2.36078,2.36078,0,0,1,.371.28663c-0.6444.543-3.61366-1.05305-4.80814,0.099,0.11266-.16026.22436-0.32051,0.33654-0.48077,0.0057,0.001-2.06034-.13573-1.00256-0.379-1.3251-.41763-2.63832.05184-3.97472,0.05937,0.3403,0.09528.65425,0.28383,0.99464,0.379C13.6942,2.36113,8.286,2.52612,8.23693,2.1,8.2487,2.20088,5.91911,1.68613,5.65141,1.721,5.98988,1.63052,8.63853.68579,8.76162,1.10158a3.7538,3.7538,0,0,1-.67037.46011c-0.131.32051,2.702,0.63069,3.06165,0.08486a3.46134,3.46134,0,0,0-1.40609.15929c-0.5775-.691,2.90747-0.81363.45489-0.85978a11.06459,11.06459,0,0,1,2.68119-.2037c-0.85833.19047,0.4714,0.37525,0.29416,0.45441-0.02732-.43925,7.305-0.641,8.07107-0.57982a6.61364,6.61364,0,0,1-2.70436.96732c2.7953,0.50065,4.77136-.80321,7.4007-1.01067,3.95637-.312,8.13093.44312,11.77229,0.21683,3.86157-.24038,8.36243-0.60617,12.17206.01323C55.07268,1.64655,61.01534.53683,66.31275,0.68955c-0.279.13293-.52035,0.347-0.80176,0.4743,0.71883-.27726,1.00353.2649,1.71908,0.21866-1.00024-.30922,3.54338-0.625,3.87432-0.61843,2.69683,0.05377,5.27153-.28,7.70712-0.40064a41.20712,41.20712,0,0,1,5.0212.27427c1.25337,0.09055,2.27109.62982,3.50525,0.2678A22.189,22.189,0,0,1,95.38208.54059c3.565,0.29232,7.24093-.22812,10.838-0.23845,1.96381-.00377,3.92809.0056,5.89189-0.03495q1.17715-.02534,2.3545-0.0782c1.38872-.066.93431,0.297,1.75267,0.32717,6.29147-.83342,12.6425.10745,18.94719-0.36588-0.10137.22069-.20312,0.44032-0.30448,0.66091,0.71555,0.08959,2.64537.32244,3.212-.35353,0.31588-.37525,1.92-0.23758,2.767-0.2649,1.98079-.06507,3.83338-0.00193,5.81978-0.11218a63.2167,63.2167,0,0,0,6.96984.15552c0.09712-.09239,3.35532.91172,4.02279,0.18294a0.348,0.348,0,0,0-.33094-0.378,38.56606,38.56606,0,0,0,6.244.08862c1.27837-.03495,4.30227.50152,5.12489,0.07163,1.28359-.67124,9.1109.94657,9.51626,0.001-0.3347.77965,1.04407-.083,1.23358-0.10841A48.47067,48.47067,0,0,1,186.19312.156c4.439,0.27436,8.77765.25264,13.22086,0.18951,8.06258-.11411,15.90022.21963,23.71816,0.31578,6.5503,0.08022,13.648-.41193,20.43486.30931a1.81965,1.81965,0,0,0-.89134.26867,29.34878,29.34878,0,0,0,3.89458.03765,0.24839,0.24839,0,0,0-.31211-0.27427c3.45814,0.17058,6.92225.14326,10.38367,0.06314,3.74283-.08766,7.79854-0.68166,11.51115-0.16219,0.86171,0.12067,1.60748.85794,2.24946,0.79288a4.078,4.078,0,0,0,1.48391-.29512c1.17372-.16026,2.51813.94,3.61549,0.4827-0.67027-.54014,2.40692-0.31771,2.57191-0.29406a14.46608,14.46608,0,0,0,4.27166.16682c-0.03485.08206-.07163,0.16315-0.10561,0.24511A51.10605,51.10605,0,0,1,294.0923.91961q7.1301-.03389,14.26214-0.12347c9.39559-.10561,18.78838-0.231,28.18214-0.22156,9.54928,0.166,19.1004.12637,28.64881,0.21123,4.8345,0.04142,9.66619.115,14.49779,0.25921,3.54859,0.10561,6.85863.725,10.42895,0.50529-0.23382.05377-.25737,0.13013-0.0698,0.22725,0.06314-1.05305,18.07187-.47613,19.81981-0.46484a0.58106,0.58106,0,0,0-.79481.362c0.42806,0.33847,3.39027-.42043,2.5691-0.59767,14.83915-.36009,29.94321.11594,44.76537,0.84945,6.8539,0.33943,13.68232.16122,20.55042,0.56379C484.62536,2.94181,492.31557,3.1794,500,2.89094c-1.4,1.33022-3.75123,1.54424-5.56887,1.65835M271.085,4.982c0.2593-.01883.49689-0.03765,0.69392-0.05184A2.67548,2.67548,0,0,0,271.085,4.982Zm-2.39456.15746c-0.33943.00666-.07733-0.017,0,0M293.0741,5.395c0.082-.00473.1621-0.01226,0.24231-0.01979C293.191,5.45908,293.09572,5.49769,293.0741,5.395Zm-203.40048.0113a0.25637,0.25637,0,0,1-.11787.08862A0.30175,0.30175,0,0,1,89.67361,5.40627Zm-6.03651-.051-0.21548.0726C83.50417,5.39681,83.57291,5.37422,83.63711,5.3553Zm-14.275-.49023a2.72347,2.72347,0,0,1-.7.03118A2.97436,2.97436,0,0,1,69.36213,4.86507Zm-27.15071-.132c-0.47188-.02636-1.36516-0.476-2.16885-0.6109,0.19752-.06883.24086-0.182,0.12917-0.34127-0.06931-.04055,2.82735.58735,2.03968,0.95217m-2.16885-.6109a3.2923,3.2923,0,0,1-.86828.15746A1.13868,1.13868,0,0,1,40.04257,4.1222Zm-0.00135-.48646a1.4033,1.4033,0,0,1,.13052.1452C40.04923,3.71683,40.01293,3.67155,40.04122,3.63574Zm-21.98866-.939-0.09664.13767A0.40829,0.40829,0,0,1,18.05256,2.6967ZM5.65141,1.721l-0.41859.11121A1.4064,1.4064,0,0,1,5.65141,1.721Zm4.55028-.77492c-0.08534.02076-.1702,0.04431-0.25361,0.07067A0.24626,0.24626,0,0,1,10.20169.94606Zm144.35077-.73824q-0.46107.01419-.922,0.02829a1.49917,1.49917,0,0,1,.922-0.02829m81.03692,0.42612a1.34862,1.34862,0,0,1-.70242.083q0.35145-.04113.70242-0.083M3.33553,0.67922c0.47893,0.27147,1.8077.42612,0.89511,0.77685C4.028,1.2043,3.279.91864,3.33553,0.67922ZM0,0.89422A1.08946,1.08946,0,0,1,1.1436.717C-0.658.815,2.26684,1.14309,0,.89422ZM39.15547,3.83557a2.7839,2.7839,0,0,1-1.12478.099c0.5775-.02452.4629-0.35073,1.12478-0.099M44.35855,4.3315l2.973-.43085C47.27365,4.13919,45.455,4.31354,44.35855,4.3315ZM55.471,5.246c-0.10754-.13207.18236-0.18951,0.34271-0.30642C56.58158,5.14986,56.42123,5.25634,55.471,5.246Zm0.75233-.841a3.40217,3.40217,0,0,1,1.23734.20833C57.04681,4.57758,56.145,4.72181,56.22333,4.40506Zm1.23734,0.20833a0.23538,0.23538,0,0,1,.197.0726C57.59361,4.65954,57.52622,4.636,57.46067,4.61339ZM75.94882,5.28463c-0.50442-.18671-1.98079.28759-1.763-0.06314A3.77089,3.77089,0,0,1,75.94882,5.28463Zm7.05471-.363c0.4742,0.10088-.288.248-0.6807,0.00377,0.22677-.00087.45354-0.0028,0.6807-0.00377m149.15225,0.132c-0.28422.02076-.56843,0.07453-0.85129,0.11228l0.05512-.24048c0.2649,0.04248.53077,0.08582,0.79617,0.1282M298.7901,5.77679c-0.79569.02076,0.20736-.28942-0.84472-0.26114C298.78343,5.36949,298.62791,5.73721,298.7901,5.77679ZM332.774,4.58414c-0.02162-.16122-0.04055-0.32331-0.06217-0.48366,0.47324,0.445.09519,0.37428,0.06217,0.48366" transform="translate(0 0)"/></svg>