<svg id="Layer_1" data-name="Layer 1" xmlns="http://www.w3.org/2000/svg" viewBox="0 0 221.4845 5.98359"><title>stroke_2</title><path d="M547.61993,84.52716c0.17719-.18152.38513-0.39441,0.67627-0.69257a3.76754,3.76754,0,0,0-2.12933-.764,14.6708,14.6708,0,0,0-1.63568,1.35022,15.24091,15.24091,0,0,0-1.22467,1.80139c-0.67017-.03015-1.444-0.08514-2.21851-0.09521-1.19519-.01556-2.39093.007-3.5863-0.00037q-0.46058-.00284-0.92116-0.01126c-0.51411.004-.9294,0.003-1.5503,0.01344C529,86,524.13593,85.77923,518.29167,85.5c-0.34712-.03734-0.818.1451-1.33061,0.09025-4.0864-.5035-7.29439-0.25691-12.35383-0.40417-0.354-.00452-0.70177-0.00856-1.05886-0.01254q-0.5055-.00521-1.02559-0.00991-0.89144-.00807-1.824-0.0147c-5.22384-.13652-7.5411.69239-13.301,0.20006-0.52363-.04476-1.04342-0.0993-1.55878-0.15967-0.9678-.03786-1.902-0.06815-2.82063-0.09191-0.4593-.01188-0.03336-1.499-0.48709-1.50365-3.11338-.04764-8.402-0.78566-8.29608.21288,0.13983,1.31837-9.80284,1.28857-11.56359,1.33555q-0.82161.02413-1.65309,0.05658-0.83248.03287-1.68083,0.07367-0.58113.00512-1.16156,0.01036c-2.70849.02446-5.403,0.05087-8.05677,0.07869-0.62481.02326-1.12105,0.02154-1.6098,0.05039C442.78125,85.75,436.15625,85.375,430.226,85.605c-0.63114.02448-1.25422,0.01783-1.86739,0.02673-3.06595.04453-5.89494,0.08882-8.41253,0.13141-0.52541.00889-1.27174,0.03981-1.7971,0.05331-1.84469.05506-3.586,0.1836-5.28171,0.31016q-0.84787.06328-1.68271,0.1231C406,87,401,86,395.69919,86.06055c-0.54323.01343-1.09164,0.03441-1.64353,0.06-2.20755.10254-4.47077,0.27948-6.68071,0.345-0.2293.0068-.79279-0.34477-1.02079-0.34058-0.20963.00385,0.08329-1.66667-.125-1.66667-0.111,0-.14985,1.54014-0.26042,1.54167-0.17944.00247-.6,0.20927-0.78122,0.19141-0.29379-.029-0.58877.06833-0.88454,0.04375-0.478-.03973-0.95831-0.01365-1.44138-0.04461-1.4481-.09446-3.0563-0.12282-4.73788-0.15756-0.56053-.01158-1.12922-0.00512-1.70285-0.01172C370,85.98466,365,85.99233,358.71761,86.27669c-0.43143.001-.8397,0.00577-1.22386,0.00666-2.68912.0062-4.19688,0.01161-4.19688,0.01161L347,86.42293c-3-.07159-8.5256.44838-10.66986,0.38111a1.50453,1.50453,0,0,1-1.61972-1.18292c-0.10371-.45848-0.00563-0.95852-0.09914-1.42089a1.17928,1.17928,0,0,0-.4454-0.81256,23.455,23.455,0,0,0-2.78913-.31325c-0.6006-.042-1.205-0.00787-1.89925-0.00787-0.2752.6831-.95229,0.50483-1.59323,0.431-0.41372-.04765-0.85349-0.18029-1.07258.35478,0.34448,0.2589.6517,0.48959,0.95595,0.7182l0.65819-.26174c-0.60137,1.26475-.18722,2.25161.94782,2.46984,0.4691,0.09024.9671,0.03856,1.43187,0.14178,1.0658,0.23669,2.47056-.10385,2.75249,1.56616a1.58584,1.58584,0,0,0,.55055.5505,2.20061,2.20061,0,0,0,.17553-0.82931c-0.18193-.87373-0.17178-0.94763.74276-0.9058C337.60528,87.41983,344,87.10876,347,87.24231l5.04688,0.04675,5.26145-.11425c0.56071-.01185,1.13524-0.024,1.70579-0.0299C365,87,371,87,376.50433,86.90544c0.56856,0.02275,1.1374.03958,1.703,0.05193,1.69673,0.037,3.36415.03369,4.907,0.02833q0.70606,0.00276,1.43131.00148c0.23835-.0003.92212,0.242,0.81679,0.66632a1.19282,1.19282,0,0,0-.22821.70721c0.12573,0.17121.66709-.1768,0.8953,0.40272,0.15872,0.403.59148-.40248,0.85446-0.32305,0.84837,0.25625-.1961-0.62122.02329-0.5924,0.40376,0.053.56655-.86172,0.82373-0.86148,2.81053,0.00259,5.47022-.00781,8.23968-0.03392q0.83084-.00783,1.67616-0.01572C402,87,406,87,409.54606,86.90985c0.54327-.01336,1.087-0.02932,1.63426-0.04941,2.18912-.08037,4.43542-0.227,6.84591-0.47133,0.51547-.01207,1.36433-0.03356,1.8832-0.0444,2.48628-.05193,5.28794-0.10129,8.3294-0.14735q0.91243-.01382,1.853-0.02723C436,86,443,86,448.71154,85.967c0.39427-.00324.77726-0.0063,1.16114-0.00932,2.64136-.02059,5.32371-0.03873,8.01987-0.05416q0.57775-.00331,1.15627-0.00645c0.49593,0.00858.99915,0.00309,1.50846-.01312s1.0247-.04315,1.545-0.0775c0.58977,0.01935,1.18057.01677,1.7719-.00059C469,85,476.46875,85.625,481.50738,85.83663c0.4956,0.09163.9924,0.168,1.48995,0.21695a9.61433,9.61433,0,0,0,2.99082-.12951q0.75239,0.0183,1.50352.03407c5.51176,0.11346,7.04939.07712,13.001,0.03514,0.592,0.0073,1.171-.00456,1.73645.00351,0.65966,0.00942,1.3024-.0214,1.95676.02535,5.52246,0.39453,8.31413-.31381,13.39147-0.03438,0.66037,0.03634,1.03495.09872,1.71,0.15961C525,86,529.45833,86.79167,536.18752,87.02622q0.74212-.00464,1.48417-0.00556c1.33026,0.00012,2.66064-.00069,3.99078.01451,0.61237,0.007,1.2251.03948,1.83624,0.08129,1.31995,0.09027,2.63892.19409,3.93988,0.291C548.01172,86.39728,547.38873,85.46478,547.61993,84.52716Z" transform="translate(-326.81171 -83.05346)"/></svg>