<svg xmlns="http://www.w3.org/2000/svg" xmlns:xlink="http://www.w3.org/1999/xlink" preserveAspectRatio="xMidYMid" width="516" height="33" viewBox="0 0 516 33">
  <defs>
    <style>

      .cls-2 {
        fill: #e2dcc7;
      }
    </style>
  </defs>
  <path d="M515.984,30.994 C515.984,30.994 381.443,30.994 381.443,30.994 C380.199,31.777 378.723,32.196 377.071,32.099 C373.605,31.896 371.509,29.348 372.023,27.146 C372.744,24.083 375.179,23.072 377.906,22.679 C370.227,26.116 376.215,32.861 380.831,28.779 C384.140,25.852 385.245,18.432 378.846,15.356 C374.214,13.130 368.957,13.999 364.427,17.091 C360.036,20.087 355.867,24.997 351.800,27.990 C344.969,33.017 334.727,32.590 327.920,27.782 C322.400,23.884 317.960,19.244 313.680,14.413 C315.512,16.943 316.523,20.668 315.325,23.719 C311.983,32.221 302.773,32.353 296.252,29.708 C291.255,27.683 286.884,24.217 281.338,20.652 C266.095,10.858 257.843,27.928 256.980,30.106 C256.980,30.106 256.962,30.148 256.962,30.148 C256.962,30.148 256.947,30.106 256.947,30.106 C256.084,27.928 247.830,10.858 232.587,20.652 C227.041,24.217 222.670,27.683 217.673,29.708 C211.152,32.353 201.942,32.221 198.600,23.719 C197.400,20.668 198.413,16.943 200.245,14.413 C195.965,19.244 191.525,23.884 186.004,27.782 C179.196,32.590 168.956,33.017 162.127,27.990 C158.060,24.997 153.887,20.087 149.496,17.091 C144.966,13.999 139.710,13.130 135.079,15.356 C128.680,18.432 129.783,25.852 133.096,28.779 C137.712,32.861 143.698,26.116 136.018,22.679 C138.746,23.072 141.181,24.083 141.900,27.146 C142.418,29.348 140.322,31.896 136.854,32.099 C135.137,32.200 133.611,31.742 132.338,30.898 C132.338,30.898 -0.012,30.898 -0.012,30.898 C-0.012,30.898 130.258,28.895 130.258,28.895 C128.621,26.670 127.894,23.570 128.434,20.508 C129.637,13.674 137.035,11.080 143.123,12.185 C150.475,13.522 154.944,19.163 160.207,24.002 C157.975,20.611 157.853,15.992 159.451,12.315 C160.950,8.860 163.439,6.192 168.030,5.689 C172.225,5.230 175.611,6.845 178.471,10.568 C182.251,15.488 177.031,25.294 170.657,21.097 C169.202,20.138 168.446,18.332 168.767,16.894 C169.448,13.813 172.785,14.066 174.569,16.167 C170.939,14.879 170.268,17.010 170.967,18.515 C171.757,20.221 174.668,21.436 176.860,18.342 C179.418,14.728 177.476,10.812 174.353,8.844 C170.463,6.396 164.164,6.892 161.397,12.721 C159.441,16.839 159.860,21.731 162.913,25.087 C168.266,30.970 177.039,30.764 184.051,26.253 C191.606,21.394 198.216,12.979 203.315,8.782 C215.369,-1.143 230.990,-2.721 243.199,4.375 C247.893,7.103 251.993,11.078 254.942,16.427 C255.796,17.977 256.498,19.660 256.962,21.371 C257.429,19.660 258.127,17.977 258.983,16.427 C261.932,11.078 266.032,7.103 270.726,4.375 C282.935,-2.721 298.554,-1.143 310.612,8.782 C315.711,12.979 322.319,21.394 329.874,26.253 C336.886,30.764 345.659,30.970 351.012,25.087 C354.067,21.731 354.482,16.839 352.528,12.721 C349.763,6.892 343.460,6.396 339.573,8.844 C336.449,10.812 334.507,14.728 337.065,18.342 C339.257,21.436 342.168,20.221 342.958,18.515 C343.657,17.010 342.986,14.879 339.356,16.167 C341.140,14.066 344.477,13.813 345.160,16.894 C345.477,18.332 344.723,20.138 343.267,21.097 C336.894,25.294 331.675,15.488 335.454,10.568 C338.316,6.845 341.700,5.230 345.897,5.689 C350.488,6.192 352.975,8.860 354.476,12.315 C356.074,15.992 355.949,20.611 353.718,24.002 C358.981,19.163 363.450,13.522 370.802,12.185 C376.888,11.080 384.288,13.674 385.491,20.508 C386.037,23.613 385.283,26.757 383.599,28.989 C383.599,28.989 515.984,30.994 515.984,30.994 ZM224.986,2.000 C215.349,2.402 209.440,6.676 203.156,11.897 C204.983,11.009 207.183,10.651 209.659,11.895 C215.871,15.019 210.652,22.204 205.933,20.437 C208.127,19.766 212.035,17.087 209.606,14.552 C204.434,9.153 194.564,21.166 204.121,27.447 C215.190,34.723 227.051,19.242 237.019,16.337 C244.810,14.066 252.486,18.214 256.054,24.471 C253.136,11.641 238.960,1.417 224.986,2.000 ZM288.939,2.000 C274.964,1.417 260.789,11.641 257.870,24.471 C261.439,18.214 269.115,14.066 276.908,16.337 C286.875,19.242 298.737,34.723 309.804,27.447 C319.361,21.166 309.491,9.153 304.321,14.552 C301.889,17.087 305.798,19.766 307.994,20.437 C303.273,22.204 298.056,15.019 304.268,11.895 C306.743,10.651 308.942,11.009 310.769,11.897 C304.484,6.676 298.576,2.402 288.939,2.000 Z" id="path-1" class="cls-2" fill-rule="evenodd"/>
</svg>
