<svg xmlns="http://www.w3.org/2000/svg" xmlns:xlink="http://www.w3.org/1999/xlink" preserveAspectRatio="xMidYMid" width="444" height="22" viewBox="0 0 444 22">
  <defs>
    <style>

      .cls-2 {
        fill: #e2dcc7;
      }
    </style>
  </defs>
  <path d="M304.298,2.148 C305.343,3.599 305.803,5.602 305.455,7.581 C304.670,12.047 299.832,13.744 295.856,13.021 C291.050,12.146 288.129,8.459 284.688,5.296 C286.148,7.513 286.228,10.533 285.184,12.936 C284.206,15.193 282.577,16.938 279.577,17.265 C276.833,17.566 274.621,16.511 272.755,14.076 C270.283,10.862 273.692,4.453 277.859,7.196 C278.809,7.823 279.305,9.003 279.094,9.942 C278.649,11.955 276.469,11.792 275.301,10.419 C277.674,11.260 278.114,9.867 277.659,8.882 C277.141,7.768 275.238,6.974 273.804,8.997 C272.134,11.358 273.404,13.919 275.443,15.203 C277.986,16.804 282.104,16.479 283.910,12.670 C285.190,9.978 284.916,6.781 282.921,4.587 C279.421,0.743 273.688,0.878 269.107,3.827 C264.167,7.002 259.848,12.503 256.515,15.246 C248.637,21.732 238.429,22.765 230.448,18.124 C227.381,16.341 224.701,13.744 222.772,10.248 C222.215,9.235 221.756,8.134 221.453,7.017 C221.148,8.134 220.693,9.235 220.133,10.248 C218.205,13.744 215.524,16.341 212.458,18.124 C204.477,22.765 194.269,21.732 186.390,15.246 C183.058,12.503 178.738,7.002 173.801,3.827 C169.218,0.878 163.484,0.743 159.984,4.587 C157.989,6.781 157.715,9.978 158.994,12.670 C160.802,16.479 164.920,16.804 167.463,15.203 C169.503,13.919 170.774,11.358 169.101,8.997 C167.668,6.974 165.767,7.768 165.249,8.882 C164.792,9.867 165.231,11.260 167.602,10.419 C166.437,11.792 164.256,11.955 163.809,9.942 C163.602,9.003 164.095,7.823 165.048,7.196 C169.212,4.453 172.625,10.862 170.153,14.076 C168.282,16.511 166.072,17.566 163.329,17.265 C160.329,16.938 158.702,15.193 157.721,12.936 C156.677,10.533 156.758,7.513 158.215,5.296 C154.777,8.459 151.856,12.146 147.052,13.021 C143.073,13.744 138.236,12.047 137.450,7.581 C137.101,5.602 137.562,3.600 138.606,2.149 C138.606,2.149 -0.012,0.904 -0.012,0.904 C-0.012,0.904 139.834,0.904 139.834,0.904 C140.699,0.279 141.755,-0.066 142.953,0.004 C145.220,0.137 146.591,1.804 146.252,3.242 C145.782,5.245 144.190,5.905 142.408,6.161 C147.426,3.916 143.515,-0.492 140.497,2.174 C138.333,4.087 137.610,8.938 141.793,10.947 C144.820,12.402 148.255,11.835 151.218,9.814 C154.087,7.856 156.813,4.648 159.470,2.690 C163.935,-0.595 170.628,-0.315 175.077,2.826 C178.685,5.375 181.586,8.408 184.383,11.565 C183.186,9.911 182.526,7.476 183.308,5.483 C185.494,-0.075 191.513,-0.161 195.773,1.568 C199.041,2.891 201.897,5.156 205.521,7.486 C215.483,13.887 220.878,2.732 221.441,1.307 C221.441,1.307 221.453,1.282 221.453,1.282 C221.453,1.282 221.463,1.307 221.463,1.307 C222.028,2.732 227.421,13.887 237.383,7.486 C241.011,5.156 243.867,2.891 247.130,1.568 C251.392,-0.161 257.411,-0.075 259.596,5.483 C260.380,7.476 259.720,9.911 258.522,11.565 C261.319,8.408 264.222,5.375 267.830,2.826 C272.278,-0.315 278.972,-0.595 283.436,2.690 C286.092,4.648 288.820,7.856 291.690,9.814 C294.648,11.835 298.085,12.402 301.112,10.947 C305.294,8.938 304.573,4.087 302.408,2.174 C299.391,-0.492 295.479,3.916 300.498,6.161 C298.713,5.905 297.124,5.245 296.653,3.242 C296.315,1.804 297.687,0.137 299.950,0.004 C301.149,-0.066 302.206,0.279 303.071,0.904 C303.071,0.904 442.859,0.904 442.859,0.904 C442.859,0.904 304.298,2.148 304.298,2.148 ZM208.416,10.307 C201.905,8.408 194.150,-1.710 186.916,3.047 C180.671,7.149 187.121,15.002 190.501,11.475 C192.090,9.816 189.536,8.067 188.102,7.628 C191.186,6.474 194.596,11.167 190.536,13.210 C188.917,14.023 187.480,13.789 186.286,13.210 C190.395,16.621 194.257,19.414 200.554,19.678 C209.688,20.058 218.953,13.377 220.860,4.991 C218.526,9.081 213.510,11.792 208.416,10.307 ZM255.989,3.047 C248.755,-1.710 241.001,8.408 234.487,10.307 C229.394,11.792 224.378,9.081 222.046,4.991 C223.954,13.377 233.219,20.058 242.350,19.678 C248.651,19.414 252.511,16.621 256.620,13.210 C255.426,13.789 253.988,14.023 252.369,13.210 C248.312,11.167 251.719,6.474 254.806,7.628 C253.370,8.067 250.817,9.816 252.405,11.475 C255.784,15.002 262.233,7.149 255.989,3.047 Z" id="path-1" class="cls-2" fill-rule="evenodd"/>
</svg>
