<svg xmlns="http://www.w3.org/2000/svg" xmlns:xlink="http://www.w3.org/1999/xlink" preserveAspectRatio="xMidYMid" width="1373" height="52" viewBox="0 0 1373 52">
  <defs>
    <style>

      .cls-2 {
        fill: #d4cfbd;
      }
    </style>
  </defs>
  <path d="M775.542,27.309 C775.543,28.284 775.462,29.270 775.291,30.254 C773.568,40.171 762.961,43.936 754.242,42.331 C743.704,40.390 737.300,32.204 729.755,25.181 C732.955,30.105 733.132,36.808 730.843,42.143 C728.697,47.154 725.126,51.029 718.548,51.755 C712.532,52.424 707.682,50.080 703.589,44.675 C698.169,37.539 705.644,23.310 714.782,29.401 C716.864,30.792 717.952,33.411 717.490,35.496 C716.514,39.966 711.733,39.603 709.172,36.555 C714.376,38.422 715.340,35.330 714.342,33.144 C713.206,30.669 709.034,28.907 705.891,33.398 C702.228,38.641 705.014,44.325 709.484,47.176 C715.059,50.732 724.089,50.010 728.049,41.553 C730.857,35.575 730.256,28.479 725.882,23.607 C718.207,15.071 705.635,15.373 695.591,21.919 C695.591,21.919 680.312,32.148 680.312,32.148 C670.556,39.122 655.881,39.743 646.091,32.449 C640.265,28.103 634.288,20.979 627.996,16.633 C621.501,12.146 613.969,10.887 607.331,14.118 C598.158,18.579 599.743,29.349 604.490,33.595 C611.106,39.516 619.682,29.729 608.678,24.745 C612.587,25.313 616.076,26.778 617.109,31.225 C617.851,34.417 614.846,38.116 609.875,38.414 C603.431,38.796 598.845,33.638 597.788,27.324 C597.788,27.324 0.010,28.919 0.010,28.919 C0.010,28.919 597.556,24.538 597.556,24.538 C597.555,23.563 597.637,22.576 597.808,21.592 C599.532,11.674 610.138,7.909 618.862,9.514 C629.395,11.456 635.800,19.641 643.340,26.664 C640.144,21.740 639.967,15.037 642.256,9.702 C644.406,4.691 647.974,0.816 654.551,0.091 C660.567,-0.578 665.412,1.765 669.515,7.170 C674.935,14.307 667.451,28.535 658.321,22.444 C656.231,21.054 655.151,18.435 655.605,16.349 C656.585,11.880 661.366,12.243 663.923,15.290 C658.723,13.423 657.760,16.515 658.762,18.701 C659.898,21.176 664.065,22.938 667.209,18.448 C670.876,13.205 668.090,7.520 663.616,4.669 C658.041,1.114 649.011,1.836 645.046,10.292 C642.243,16.270 642.843,23.367 647.218,28.238 C654.892,36.774 667.464,36.472 677.514,29.926 C677.514,29.926 692.792,19.698 692.792,19.698 C702.543,12.723 717.223,12.102 727.009,19.396 C732.834,23.742 738.816,30.866 745.108,35.213 C751.595,39.699 759.131,40.958 765.768,37.727 C774.937,33.267 773.356,22.496 768.610,18.251 C761.994,12.330 753.417,22.116 764.421,27.101 C760.508,26.533 757.023,25.067 755.991,20.621 C755.248,17.428 758.258,13.729 763.220,13.432 C769.669,13.049 774.253,18.208 775.310,24.524 C775.310,24.524 1372.991,23.896 1372.991,23.896 C1372.991,23.896 775.542,27.309 775.542,27.309 Z" id="path-1" class="cls-2" fill-rule="evenodd"/>
</svg>
