<svg version="1" xmlns="http://www.w3.org/2000/svg" viewBox="0 0 50 50"><path d="M21 49.693V29H.295C1.947 39 11 48.01 21 49.693zM49.705 21C48.045 11 39 1.914 29 .284V21h20.705zM29 49.716C39 48.086 48.046 39 49.705 29H29v20.716zM21 .307C11 1.99 1.947 11 .295 21H21V.307z" fill="#EC1C24"/><path d="M21 49.693c1 .2 2.738.307 4.07.307 1.283 0 1.93-.097 3.93-.284V29h20.705c.194-1 .295-2.693.295-4s-.1-3-.295-4H29V.284C27 .097 26.353 0 25.07 0 23.737 0 22 .106 21 .307V21H.295C.1 22 0 23.693 0 25s.1 3 .295 4H21v20.693z" fill="#FFF"/></svg>