<svg xmlns="http://www.w3.org/2000/svg" preserveAspectRatio="xMidYMid" width="370" height="89" viewBox="0 0 370 89"><path style="fill: #fff; stroke: #000; stroke-width: 2; stroke-opacity: .2;" d="M369.932 60.344c.056.743.114 1.512-.017 2.235-.14.77-.315 1.658-.794 2.225-2.336 2.76-4.764 5.453-8.02 7.198-3.94 2.112-8.485.83-10.687-2.977-.676-1.168-.94-2.426-.95-3.754-.018-2.554-.03-5.107-.056-7.66-.004-.343-.087-.685-.197-1.496-.648.76-1.05 1.188-1.402 1.652-2.48 3.26-3.668 7.047-4.36 11.006-.2 1.14-.23 2.345-.11 3.497.25 2.37-1.13 3.948-3.534 3.876-2.674-.08-6.972-3.29-6.476-6.758.164-1.154.023-2.35.02-3.527l-.394-.24c-.467.464-.942.918-1.4 1.39-2.798 2.88-5.96 5.245-9.533 7.13-6.328 3.335-14.89.405-16.93-7.74-.133-.533-.276-1.063-.47-1.812-.516.333-.903.576-1.283.83-2.018 1.343-4.022 2.707-6.058 4.022-.463.298-1.03.435-1.552.64-2.57 1.01-4.775.414-6.62-1.57-.925-.995-1.778-2.06-2.806-3.257-.458.73-.848 1.34-1.227 1.957-1.084 1.76-2.297 3.41-3.972 4.67-3.03 2.278-6.48 1.967-9.053-.813-1.465-1.584-2.458-3.432-3.08-5.49-.118-.39-.303-.762-.52-1.3-1.166 1.283-2.148 2.488-3.26 3.557-1.21 1.16-2.493 2.26-3.83 3.273-5.672 4.3-11.765.703-13.335-4.894-.77-2.74-.99-5.533-.577-8.325.537-3.627 1.257-7.226 1.905-10.836.142-.79.313-1.573.46-2.3-1.98-1.45-3.805-1.123-4.67.892-.51 1.183-.88 2.485-1 3.763-.378 4.09-1.867 7.796-4.233 11.032-2.306 3.153-4.923 6.168-8.59 7.874-1.498.696-3.15 1.132-4.78 1.453-1.552.306-2.936-.33-4.087-1.416-.9-.848-1.798-1.697-2.793-2.638-1.203 1.49-2.282 2.93-3.474 4.272-.82.924-1.747 1.774-2.716 2.545-1.61 1.28-3.434 1.353-5.305.64-2.01-.765-3.485-2.136-4.45-4.056-1.107-2.202-1.634-4.545-1.84-6.992-.543-6.434.622-12.646 2.422-18.77.757-2.576 1.828-5.04 3.38-7.25.75-1.066 1.595-2.08 2.508-3.006 1.438-1.458 3.242-2.302 5.245-2.7 2.162-.43 4.107-.143 5.486 1.806.806 1.138 1.902 1.664 3.277 1.894 1.652.275 3.292.694 4.894 1.186 2.57.79 2.983 1.492 2.464 4.114-.82 4.15-1.73 8.28-2.556 12.427-.34 1.706-.64 3.43-.798 5.16-.147 1.606.4 3.077 1.47 4.303.977 1.12 1.93 1.243 3.082.26.94-.803 1.705-1.81 2.587-2.687 2.53-2.518 3.544-5.608 3.677-9.108.057-1.478.453-2.94.64-4.417.075-.602.126-1.254-.02-1.83-1.148-4.513-.707-9.033-.068-13.54.29-2.05 1.492-3.058 3.575-3.078.976-.01 1.986.196 2.927.483 1.385.423 1.762 1.217 1.32 2.594-.36 1.124-.834 2.212-1.23 3.325-.66 1.85-.046 2.578 1.938 2.88 1.506.23 2.696-.215 3.526-1.538.365-.58.756-1.148 1.188-1.677.785-.96 1.343-1.08 2.428-.46.53.305 1.077.693 1.42 1.18.797 1.13 1.882 1.57 3.19 1.653.31.02.626.048.926.125 1.276.328 1.727 1.155 1.238 2.395-.225.572-.57 1.11-.932 1.612-.93 1.29-1.48 2.693-1.7 4.285-.6 4.37-1.412 8.718-1.878 13.102-.177 1.673.17 3.474.624 5.122.477 1.728 1.66 2.198 3.37 1.594.86-.305 1.722-.764 2.413-1.353.988-.842 1.84-1.85 2.713-2.822 1.12-1.25 1.55-2.702 1.662-4.414.42-6.373 1.457-12.625 4.712-18.275.616-1.07 1.345-2.116 2.206-2.993 2.417-2.464 5.595-3.004 8.775-1.635.677.292 1.353.587 2.176.944.146-.537.314-.924.35-1.322.37-4.277.74-8.555 1.068-12.836.12-1.536.356-3.1-.964-4.375-.628-.608-.374-1.356.09-2.04 1.47-2.173 3.63-3.163 6.12-3.542.86-.13 1.743-.085 2.616-.118 2.732-.102 6.024 3.984 3.975 7.15-.914 1.412-1.294 2.916-1.463 4.56-.818 7.923-1.7 15.84-2.54 23.763-.267 2.536-.592 5.074-.676 7.618-.06 1.85.166 3.723.396 5.57.105.843.428 1.7.825 2.458.915 1.748 2.246 2.178 3.853 1.1 1.388-.93 2.642-2.078 3.857-3.233.342-.324.458-1.006.476-1.53.226-6.693 1.42-13.233 3.05-19.707.517-2.062.546-1.992 2.696-2.38 1.71-.31 3.454-.633 5.067-1.25 5.735-2.2 10.82 1.586 12.806 5.287 1.69 3.15 1.614 6.464 1.274 9.835-.094.925-.33 1.836-.515 2.75-1.036 5.113-4.366 7.92-9.26 9.122-1.274.314-2.563.494-3.88.102-.508-.15-1.074-.105-1.72-.158-.042 1.83.09 3.49.76 5.042.783 1.815 2.387 2.464 4.225 2.577 2.177.134 4.203-.44 6.06-1.572 3.176-1.936 5.892-4.382 8.155-7.335.638-.832.896-1.725.92-2.766.098-4.48.23-8.962.386-13.442.054-1.554.183-3.107.328-4.656.052-.55.176-1.12.4-1.62.55-1.22 1.573-1.66 2.745-.98 1.084.628 1.932.5 2.94-.08 1.25-.72 1.805-.565 2.748.523.284.327.494.722.79 1.04 1.28 1.375 1.34 2.732.664 4.557-1.972 5.315-2.03 10.924-2.178 16.494l.424.203c.368-.515.838-.984 1.088-1.55 1.127-2.56 2.248-5.126 3.26-7.733.764-1.97 1.484-3.975 1.993-6.02.506-2.042.78-4.147 1.043-6.238.11-.884.37-1.547 1.173-1.96 1.432-.73 2.833-1.536 4.304-2.18.997-.438 1.868-.188 2.628.76.513.64 1.33 1.083 2.08 1.48 1.733.91 1.963 1.383 1.446 3.258-1.176 4.26-2.464 8.492-3.45 12.794-.58 2.527-.814 5.16-.923 7.757-.054 1.318.35 2.723.834 3.98.884 2.3 2.65 2.822 4.572 1.302 1.554-1.23 2.865-2.76 4.324-4.116.598-.555 1.03-1.712 2.06-1.24.878.402.425 1.456.482 2.228zm-149.818-23.32c-.793-.33-1.512-.01-2.02.583-.518.606-1.048 1.275-1.316 2.01-.87 2.39-1.794 4.783-2.38 7.25-.987 4.167-1.732 8.392-2.544 12.42.303 1.334.43 2.464.825 3.492.56 1.46 1.82 1.763 2.965.722.673-.613 1.242-1.408 1.657-2.223 1.196-2.348 1.89-4.873 2.25-7.473.51-3.696.957-7.4 1.408-11.105.15-1.234.29-2.474.33-3.715.024-.847-.33-1.61-1.176-1.962zm65.122 1.238c-.863-.432-1.65-.21-2.195.45-.667.804-1.296 1.69-1.71 2.642-.545 1.247-1.027 2.565-1.25 3.9-.782 4.656-1.44 9.333-2.145 14.002.043.015.086.03.13.043.07 1.05.038 2.118.234 3.143.416 2.17 2.177 2.77 3.875 1.332.45-.38.832-.96 1.003-1.523.343-1.126.596-2.292.75-3.458.5-3.82.94-7.65 1.402-11.474l.873-7.225c.1-.832-.193-1.446-.967-1.833zm30.14 16.966c1.92.027 4.065-1.558 4.472-3.568.55-2.725.904-5.49 1.342-8.238l-.24-.036c-.002-.496.037-.996-.01-1.487-.105-1.05-.177-2.11-.41-3.13-.16-.69-.384-1.647-1.3-1.57-.565.05-1.168.592-1.592 1.058-.403.443-.66 1.053-.87 1.63-1.622 4.458-2.38 9.104-2.9 13.794-.132 1.18.288 1.53 1.508 1.546zM220.95 27.345c-1.837-.424-2.895-1.632-3.126-3.512-.083-.676-.227-1.384-.114-2.038.348-2.012.806-4.006 1.237-6.085 1.737-.185 3.155-.456 4.575-.46 2.192-.007 3.173.797 3.785 2.887.803 2.74.4 5.317-1.326 7.605-1.267 1.68-3.062 2.057-5.03 1.603zm3.342-9.966c-.145-.488-.75-1.042-1.24-1.153-.33-.075-.998.482-1.22.91-1.215 2.346-1.487 4.84-.82 7.402.19.724.55 1.45 1.428 1.54.98.1 1.53-.593 1.75-1.383.34-1.242.496-2.535.72-3.744-.203-1.272-.286-2.46-.618-3.574zm-27.37 50.038c-.01 3.31-.323 6.582-1.083 9.812-.745 3.16-2.214 5.768-5.138 7.453-1.562.9-2.985 2.037-4.514 3-5.177 3.26-11.66.143-12.344-5.918-.063-.556-.207-1.13-.13-1.67.467-3.223-.336-3.098 3.377-4.133.338.5.677 1.077 1.09 1.596 1.047 1.308 2.07 2.64 3.21 3.864.833.892 1.954 1.285 3.216 1.263 1.86-.03 2.633-.77 2.595-2.612-.01-.558-.13-1.113-.156-1.67-.14-3.048-.262-6.094-.393-9.14-.036-.854-.08-1.707-.134-2.83-.603.318-.968.476-1.296.69-.99.648-2.005 1.267-2.94 1.988-4.55 3.51-11.657-.542-12.66-4.938-.12-.537-.294-1.062-.446-1.598-1.717.537-3.343 1.392-5.003 1.465-1.657.073-3.35-.638-5.336-1.072-.17.28-.522.837-.85 1.406-1.264 2.19-2.904 4.002-4.99 5.473-4.18 2.943-11.534 1.33-13.89-3.615-.69-1.45-1.208-2.98-1.866-4.63-1.723 1.24-3.413 2.55-5.59 3.052-2.526.584-4.01-1.293-5.992-2.272-.28.46-.498.898-.784 1.286-1.106 1.5-2.14 3.064-3.376 4.448-1.33 1.49-3.16 2.202-5.125 2.455-3.41.44-6.254-1.236-7.534-4.54-.558-1.44-.823-2.994-1.218-4.497-.105-.403-.197-.81-.38-1.562-.67.6-1.17 1.008-1.62 1.463-1.933 1.948-3.862 3.902-6.232 5.337-2.085 1.263-4.26 1.874-6.77 1.427-3.385-.6-5.965-3.796-5.927-7.17.028-2.552.176-5.102.26-7.653.02-.586.003-1.173.002-1.76l-.454-.184c-.455.456-.964.87-1.357 1.375-2.942 3.776-4.528 8.133-5.342 12.79-.158.902-.04 1.865.037 2.792.1 1.224-.414 2.058-1.496 2.53-.62.268-1.282.49-1.947.592-2.894.436-7.435-3.246-7.015-6.516.53-4.13.686-8.306.99-12.463.308-4.218.582-8.44.907-12.656.2-2.604.44-5.206.73-7.8.067-.595.317-1.217.64-1.724.64-1 1.557-1.312 2.574-.7 1.183.71 2.157.592 3.305-.05 1.19-.663 1.897-.445 2.804.573.328.37.568.82.894 1.193 1.153 1.317 1.187 2.595.426 4.227-1.623 3.48-2.058 7.285-2.497 11.06-.187 1.606-.314 3.22-.427 4.834-.032.457.08.923.485 1.527.447-.623.933-1.222 1.332-1.873 2.127-3.472 3.56-7.263 4.937-11.065.842-2.33 1.45-4.748 2.154-7.128.07-.237.157-.5.12-.733-.345-2.133.922-3.24 2.615-4.005 1.287-.583 2.612-1.124 3.973-1.488.473-.127 1.313.168 1.62.558.687.875 1.533 1.397 2.504 1.862 1.604.77 1.738 1.26 1.223 2.962-1.566 5.18-3.155 10.355-4.63 15.56-.662 2.344-.94 4.785-.573 7.214.172 1.145.53 2.323 1.085 3.334.824 1.502 2.225 1.858 3.653.903 1.334-.893 2.463-2.085 3.722-3.096 2.368-1.904 3.377-4.196 3.427-7.37.066-4.205.92-8.398 1.463-12.593.797-6.17 1.605-12.338 2.436-18.503.284-2.1.487-4.16 0-6.29-.453-1.984.52-3.516 2.268-4.5 1.62-.91 3.38-1.22 5.23-1.116 2.975.168 6.268 3.686 4.71 7.513-2.508 6.16-3.622 12.663-4.458 19.218-.827 6.477-1.632 12.958-2.417 19.44-.335 2.767.125 5.46.956 8.094.13.405.36.802.63 1.132.86 1.056 1.866 1.042 2.585-.11.454-.73.846-1.554 1.022-2.387 1.515-7.13 1.57-14.2-1.104-21.12-.6-1.557-.65-1.63.658-2.696 1.347-1.097 2.75-2.16 4.256-3.016 1.652-.94 2.864-.67 4.22.698 1.686 1.7 2.597 3.77 2.75 6.17.36 5.67-1.042 10.982-3.252 16.133-.025.057-.06.11-.082.168-.315.886-1.223 1.747-.234 2.714 1.055 1.032 2.244 1.818 3.834 1.417 1.882-.474 4.152-3.022 4.346-4.954.592-5.917 2.088-11.616 3.995-17.23.537-1.583.892-3.236 1.196-4.882.385-2.088.998-2.748 3.055-2.45 2.326.338 4.737.25 7.096.112 1.065-.062 2.122-.632 3.133-1.08 1.46-.645 1.79-.67 2.64.644 2.427 3.75 4.428 7.77 4.704 12.25.196 3.19-.36 6.438-.732 9.643-.206 1.784-.735 3.53-1.09 5.3-.284 1.428.1 2.073 1.473 2.56 1.403.5 2.75.377 3.845-.66 1.82-1.73 3.304-3.602 3.746-6.264.97-5.84 2.63-11.515 4.662-17.08.327-.897.81-1.508 1.68-1.85 1.393-.546 2.794-1.072 4.164-1.67 1.293-.562 2.503-.42 3.462.542 1.076 1.077 2.19 1.205 3.567.745.693-.232 1.515-.072 2.217-.288 3.665-1.13 6.08 1.263 8.923 2.915-1.866 2.62-1.853 5.54-1.896 8.376-.122 7.907-.09 15.816-.11 23.725zm-41.907-9.123c-1.243-2.444-2.11-5.02-2.637-7.725-.695-3.56-.75-7.152-.755-10.754 0-.644-.084-1.29-.15-2.218-1.407 1.146-1.82 2.453-2.224 3.726-1.71 5.393-2.014 10.974-1.968 16.567.017 2.088.278 4.228 1.29 6.15 1.032 1.96 2.777 2.217 4.16.493.923-1.152 1.594-2.507 2.357-3.783.492-.824.36-1.598-.075-2.455zm3.39-16.87c-.038-.234-.57-.565-.834-.533-.253.03-.597.44-.663.738-.482 2.153-.336 4.29.405 6.366.123.345.488.604.95 1.147.77-2.782.54-5.255.142-7.72zm29.465-2.196c-.514-1.49-1.687-1.69-2.69-.5-.51.608-.885 1.35-1.23 2.075-1.898 3.965-2.74 8.254-3.75 12.485-.418 1.75-.637 3.547-.838 4.705-.03 2.575.688 4.527 1.748 5.4 1.128.93 2.075.815 2.75-.46.402-.76.7-1.606.87-2.45.5-2.497.91-5.014 1.367-7.52.682-3.732 1.416-7.454 2.03-11.195.136-.817.015-1.753-.257-2.54zM63.667 46.615c-.28 6.775-.244 13.563-.387 20.345-.037 1.738-.184 3.478-.377 5.206-.374 3.352-1.753 6.2-4.398 8.38-2.066 1.706-4.16 3.382-6.157 5.165-2.062 1.84-4.132 1.935-6.465.53-2.114-1.273-4.006-2.78-5.452-4.765-2.097-2.878-1.26-6.056 2.033-7.845.84.46.73 1.346.825 2.105.362 2.91 1.384 4.137 3.805 4.487 3.017.437 4.925-.537 5.96-3.256.48-1.263.814-2.63.92-3.974.236-2.976.293-5.967.404-8.953.016-.418-.07-.84-.137-1.534-.563.325-.963.534-1.34.778-1.675 1.078-3.274 2.292-5.025 3.225-3.82 2.036-8.316.723-10.608-2.934-1.84-2.937-1.847-6.15-1.384-9.398.553-3.878 1.345-7.724 1.816-11.61.282-2.334.16-4.72.2-7.082.03-1.68-.014-3.363.05-5.04.046-1.224.336-1.603 1.524-1.7 1.424-.118 2.884-.173 4.29.023.793.11 1.59.68 2.24 1.218 1.245 1.027 2.385 2.18 3.57 3.276.937.868 1.05 1.522-.026 2.298-1.313.948-1.72 2.22-1.952 3.653-.812 4.97-1.683 9.933-2.374 14.92-.173 1.244.084 2.612.427 3.845.457 1.646 1.856 2.292 3.532 1.895 1.425-.337 2.402-1.204 3.12-2.47 1.09-1.926 1.13-4.063 1.31-6.156.65-7.565 1.232-15.134 1.85-22.7.033-.42.162-.832.267-1.353l4.424-.005c-.023.014.113-.027.18-.118 1.395-1.906 2.126-1.994 3.84-.378.542.51 1.042 1.077 1.48 1.677.705.968.875 2.076.455 3.197-1.817 4.855-2.233 9.955-2.443 15.046zm-31-34.388c-2.218-.68-4.54-.707-6.853-.33-1.845.3-3.694.587-5.55.806-.955.112-1.43.53-1.584 1.49-.802 4.972-1.648 9.937-2.462 14.908-.067.41-.008.842-.007 1.45.766.065 1.43.192 2.088.164 3.673-.156 7.344-.352 11.016-.527.56-.028 1.124-.048 1.684-.025 1.983.083 2.98 1.233 2.62 3.19-.165.9-.566 1.773-.957 2.613-.573 1.23-.664 2.382.224 3.5.115.144.205.313.29.48.836 1.65.45 2.34-1.36 2.322-.87-.01-1.735-.196-2.605-.224-4.43-.14-8.824.31-13.443.694-.148 1.133-.356 2.156-.404 3.187-.227 4.85-.432 9.7-.6 14.553-.076 2.212.456 4.314 1.578 6.32-1.98 1.76-3.93 3.3-6.697 2.825-3.045-.522-5.052-2.558-6.735-4.94-.277-.393-.217-1.088-.17-1.63.26-2.912.572-5.82.85-8.73.447-4.707.938-9.41 1.308-14.122.447-5.707.805-11.422 1.166-17.136.184-2.918.296-5.84.426-8.762.03-.675.003-1.352.002-2.374-2.027-.117-3.81-.222-5.743-.335C-.328 7.798.025 3.987.17.005c1.472.155 2.76.267 4.04.43 4.78.603 9.558.753 14.372.335 4.41-.383 8.837-.543 13.26-.765.675-.034 1.366.09 2.04.202 1.82.298 1.63.424 2.074 2.184.416 1.648 1.126 3.1.032 4.774-.227.348.26 1.303.613 1.855.602.94.368 1.605-.38 2.28-1.032.93-2.052 1.387-3.552.928z" id="path-1" class="cls-2" fill-rule="evenodd"/></svg>