<svg xmlns="http://www.w3.org/2000/svg" xmlns:xlink="http://www.w3.org/1999/xlink" preserveAspectRatio="xMidYMid" width="1000" height="82" viewBox="0 0 1000 82">
  <defs>
    <style>

      .cls-2 {
        fill: #d4cfbd;
      }
    </style>
  </defs>
  <path d="M537.189,3.355 C536.201,4.161 535.225,5.037 534.265,5.902 C532.238,7.721 530.325,9.439 528.533,10.377 C528.190,10.755 527.691,11.308 527.543,11.497 C524.220,15.775 522.242,21.249 521.818,27.331 C521.415,32.943 522.393,38.745 524.644,44.108 C526.887,49.415 530.434,54.049 534.905,57.512 C537.053,59.190 539.516,60.658 542.225,61.876 C544.887,63.069 547.619,63.947 550.352,64.482 C552.476,64.903 554.702,65.115 556.963,65.115 C560.341,65.115 563.827,64.646 567.328,63.722 C572.294,62.426 577.564,60.216 583.440,56.970 C588.932,53.923 594.120,50.447 598.468,47.448 C600.719,45.894 602.957,44.315 605.198,42.733 C607.852,40.859 610.514,38.982 613.201,37.140 C613.201,37.140 614.219,36.485 614.219,36.485 C615.792,34.588 616.944,32.378 617.557,30.090 C618.091,28.120 618.262,26.097 618.066,24.062 C617.897,22.036 617.365,20.079 616.478,18.239 C615.555,16.307 614.350,14.706 612.886,13.472 C611.384,12.186 609.561,11.252 607.605,10.773 C606.624,10.523 605.599,10.395 604.558,10.395 C601.586,10.395 598.621,11.449 596.426,13.288 C593.470,15.753 592.136,19.907 593.109,23.638 C593.596,25.588 594.591,27.278 595.914,28.400 C597.296,29.583 599.126,30.262 600.998,30.262 C602.826,30.262 604.706,29.563 606.027,28.395 C607.338,27.222 608.092,25.388 607.993,23.605 C607.953,22.735 607.706,21.844 607.275,21.027 C607.164,20.818 607.061,20.649 606.939,20.464 C606.816,20.296 606.685,20.116 606.536,19.958 C606.231,19.632 605.896,19.355 605.525,19.130 C605.448,19.079 605.369,19.034 605.289,18.989 C605.672,19.907 605.692,20.919 605.339,21.854 C604.976,22.825 604.255,23.598 603.310,24.024 C602.801,24.256 602.264,24.372 601.709,24.372 C600.187,24.372 598.801,23.476 598.175,22.091 C597.517,20.649 597.802,18.996 598.848,17.864 C598.848,17.864 598.780,17.758 598.780,17.758 C598.780,17.758 599.363,17.357 599.363,17.357 C600.474,16.590 601.865,16.169 603.277,16.169 C604.512,16.169 605.712,16.484 606.738,17.079 C607.305,17.397 607.829,17.796 608.288,18.262 C608.520,18.492 608.729,18.744 608.949,19.029 C609.120,19.261 609.317,19.564 609.458,19.821 C610.093,20.919 610.473,22.177 610.562,23.451 C610.761,26.037 609.753,28.632 607.862,30.396 C606.027,32.096 603.587,33.047 600.855,33.074 C598.412,33.074 595.937,32.169 594.064,30.595 C592.247,29.071 590.933,26.914 590.265,24.347 C589.684,22.001 589.792,19.430 590.581,17.104 C591.375,14.807 592.862,12.721 594.767,11.232 C597.457,9.169 600.850,8.034 604.323,8.034 C605.634,8.034 606.930,8.195 608.175,8.513 C610.428,9.073 612.583,10.160 614.406,11.653 C616.117,13.046 617.594,14.953 618.678,17.167 C619.716,19.271 620.352,21.516 620.571,23.847 C620.765,26.168 620.536,28.488 619.890,30.744 C619.641,31.619 619.326,32.479 618.945,33.319 C622.532,31.016 625.680,29.185 628.702,27.633 C635.236,24.296 640.804,22.439 646.229,21.791 C647.519,21.638 648.825,21.559 650.130,21.559 C652.023,21.559 653.881,21.725 655.651,22.056 C658.925,22.647 661.929,23.746 664.579,25.330 C667.366,26.988 669.786,29.250 671.576,31.871 C673.413,34.548 674.638,37.628 675.122,40.775 C675.377,42.420 675.425,44.057 675.266,45.636 C675.097,47.296 674.732,48.885 674.179,50.361 C672.990,53.580 670.870,56.301 668.211,58.027 C666.749,58.973 665.136,59.609 663.545,59.863 C662.993,59.954 662.431,60.002 661.867,60.002 C660.664,60.002 659.512,59.792 658.441,59.381 C655.235,58.153 652.833,55.118 652.323,51.650 C652.043,49.831 652.273,48.068 652.984,46.544 C653.407,45.659 653.964,44.925 654.635,44.363 C655.338,43.772 656.104,43.348 656.966,43.066 C657.599,42.854 658.262,42.746 658.940,42.746 C660.150,42.746 661.332,43.101 662.259,43.742 C663.460,44.534 664.415,45.763 665.085,47.367 C665.085,47.367 665.297,47.924 665.297,47.924 C665.443,48.394 665.508,48.797 665.508,49.195 C665.508,51.557 663.588,53.476 661.228,53.476 C658.872,53.476 656.956,51.557 656.956,49.195 C656.956,47.298 658.194,45.687 659.905,45.129 C659.631,45.066 659.341,45.034 659.048,45.034 C658.595,45.034 658.146,45.109 657.707,45.266 C657.160,45.452 656.613,45.768 656.169,46.154 C655.771,46.504 655.431,46.981 655.161,47.561 C654.683,48.623 654.539,49.937 654.761,51.264 C655.164,53.812 657.011,56.095 659.358,56.950 C660.094,57.222 660.888,57.361 661.720,57.361 C663.414,57.361 665.186,56.788 666.713,55.746 C668.856,54.316 670.555,52.056 671.500,49.385 C671.946,48.126 672.236,46.769 672.360,45.354 C672.473,44.025 672.415,42.642 672.191,41.245 C671.744,38.538 670.668,35.897 669.073,33.609 C667.507,31.367 665.403,29.437 662.986,28.027 C660.654,26.657 657.999,25.714 655.098,25.219 C653.586,24.950 652.008,24.813 650.410,24.813 C649.147,24.813 647.885,24.896 646.629,25.056 C641.606,25.699 636.413,27.492 630.291,30.696 C624.796,33.586 619.581,37.052 615.205,40.059 C612.538,41.895 609.896,43.772 607.250,45.651 C605.490,46.903 603.728,48.154 601.954,49.395 C602.185,49.387 602.415,49.382 602.647,49.382 C603.590,49.382 604.532,49.453 605.455,49.599 C610.070,50.255 614.436,52.740 617.428,56.410 C618.184,57.328 618.839,58.284 619.419,59.346 C619.953,60.322 620.395,61.450 620.732,62.706 C621.352,65.087 621.411,67.559 620.904,69.847 C620.410,72.193 619.374,74.418 617.912,76.282 C616.382,78.214 614.544,79.713 612.440,80.742 C610.688,81.571 608.739,82.008 606.804,82.008 C606.342,82.008 605.879,81.983 605.417,81.935 C602.934,81.657 600.635,80.737 598.773,79.271 C597.815,78.522 596.963,77.636 596.240,76.633 C595.496,75.576 594.936,74.408 594.629,73.262 C593.951,70.879 594.201,68.190 595.312,65.889 C596.436,63.553 598.331,61.737 600.653,60.774 C601.654,60.360 602.728,60.153 603.842,60.153 C605.351,60.153 606.831,60.539 608.112,61.266 C609.215,61.873 610.194,62.756 610.942,63.811 C611.119,64.055 611.308,64.363 611.452,64.625 C611.615,64.931 611.754,65.226 611.865,65.529 C612.094,66.139 612.235,66.787 612.283,67.451 C612.505,70.071 611.139,72.718 608.883,74.034 C608.883,74.034 608.233,74.373 608.233,74.373 C608.233,74.373 608.185,74.289 608.185,74.289 C607.812,74.403 607.424,74.463 607.033,74.463 C605.901,74.463 604.830,73.969 604.096,73.111 C602.702,71.487 602.891,69.027 604.517,67.630 C605.220,67.030 606.115,66.699 607.041,66.699 C608.124,66.699 609.150,67.148 609.883,67.938 C609.876,67.854 609.868,67.768 609.859,67.685 C609.674,66.056 608.495,64.452 606.849,63.592 C606.005,63.140 605.031,62.903 604.038,62.903 C603.237,62.903 602.433,63.062 601.719,63.362 C600.101,64.058 598.679,65.463 597.916,67.130 C597.147,68.758 596.986,70.662 597.459,72.496 C597.684,73.359 598.064,74.173 598.621,74.993 C599.151,75.790 599.786,76.509 600.509,77.125 C602.002,78.386 603.847,79.203 605.712,79.428 C606.133,79.483 606.554,79.508 606.978,79.508 C608.505,79.508 610.015,79.155 611.341,78.479 C614.801,76.748 617.370,73.227 618.043,69.292 C618.380,67.322 618.295,65.317 617.798,63.490 C617.299,61.664 616.392,59.919 615.096,58.299 C612.666,55.219 608.991,53.032 605.009,52.298 C604.028,52.117 603.033,52.028 602.034,52.028 C600.333,52.028 598.624,52.286 597.160,52.700 C592.630,55.767 588.831,58.135 585.207,60.158 C578.991,63.616 573.607,65.887 568.268,67.299 C564.434,68.326 560.593,68.845 556.850,68.845 C554.385,68.845 551.957,68.616 549.643,68.165 C546.601,67.587 543.589,66.613 540.687,65.276 C537.723,63.924 535.016,62.285 532.644,60.403 C527.712,56.531 523.815,51.370 521.377,45.485 C518.983,39.771 518.015,33.402 518.582,27.064 C518.882,23.835 519.577,20.755 520.646,17.909 C521.337,16.065 522.181,14.335 523.169,12.743 C520.215,13.762 517.344,14.277 514.609,14.277 C508.469,14.277 504.471,11.777 502.200,9.678 C501.381,8.919 500.642,8.074 499.997,7.156 C499.349,8.074 498.611,8.921 497.792,9.678 C495.518,11.777 491.518,14.277 485.380,14.277 C482.645,14.277 479.777,13.762 476.823,12.743 C477.808,14.332 478.653,16.063 479.343,17.909 C480.415,20.755 481.110,23.835 481.410,27.066 C481.977,33.405 481.009,39.774 478.612,45.483 C476.178,51.367 472.281,56.529 467.350,60.406 C464.971,62.287 462.263,63.927 459.304,65.276 C456.403,66.613 453.388,67.587 450.354,68.165 C448.032,68.616 445.607,68.845 443.140,68.845 C439.399,68.845 435.558,68.326 431.724,67.302 C426.380,65.887 420.999,63.616 414.785,60.158 C411.145,58.127 407.347,55.756 403.031,52.792 C401.366,52.286 399.659,52.028 397.955,52.028 C396.960,52.028 395.964,52.117 394.983,52.298 C391.001,53.032 387.323,55.219 384.893,58.299 C383.595,59.924 382.688,61.669 382.194,63.490 C381.694,65.322 381.611,67.330 381.949,69.292 C382.622,73.230 385.188,76.748 388.657,78.479 C389.977,79.153 391.485,79.508 393.012,79.508 C393.435,79.508 393.859,79.483 394.285,79.428 C396.143,79.205 397.988,78.386 399.478,77.127 C400.201,76.511 400.836,75.795 401.373,74.983 C401.925,74.173 402.306,73.359 402.532,72.496 C403.006,70.662 402.842,68.758 402.069,67.121 C401.312,65.463 399.893,64.055 398.275,63.362 C397.557,63.059 396.755,62.900 395.953,62.900 C394.961,62.900 393.988,63.140 393.138,63.592 C391.495,64.452 390.317,66.058 390.134,67.698 C390.123,67.776 390.113,67.857 390.108,67.935 C390.842,67.145 391.870,66.696 392.952,66.696 C393.877,66.696 394.771,67.030 395.475,67.632 C397.095,69.025 397.287,71.482 395.898,73.111 C395.160,73.971 394.088,74.463 392.957,74.463 C392.569,74.463 392.180,74.403 391.810,74.289 C391.810,74.289 391.742,74.403 391.742,74.403 C391.742,74.403 391.109,74.034 391.109,74.034 C388.853,72.720 387.487,70.074 387.706,67.458 C387.756,66.790 387.898,66.142 388.122,65.536 C388.235,65.226 388.374,64.931 388.546,64.610 C388.687,64.358 388.873,64.053 389.047,63.816 C389.791,62.759 390.771,61.879 391.870,61.268 C393.158,60.539 394.638,60.153 396.148,60.153 C397.264,60.153 398.338,60.360 399.339,60.774 C401.658,61.735 403.556,63.551 404.683,65.889 C405.789,68.195 406.038,70.881 405.363,73.255 C405.050,74.410 404.493,75.578 403.747,76.640 C403.029,77.636 402.177,78.522 401.219,79.268 C399.351,80.737 397.055,81.660 394.573,81.935 C394.116,81.983 393.655,82.008 393.196,82.008 C391.258,82.008 389.307,81.569 387.545,80.739 C385.445,79.713 383.605,78.214 382.080,76.279 C380.615,74.413 379.580,72.190 379.088,69.852 C378.582,67.557 378.642,65.085 379.262,62.701 C379.592,61.462 380.034,60.332 380.573,59.349 C381.148,58.287 381.808,57.328 382.556,56.410 C385.556,52.740 389.925,50.255 394.527,49.599 C395.459,49.453 396.402,49.382 397.345,49.382 C397.577,49.382 397.806,49.387 398.038,49.395 C396.241,48.136 394.454,46.867 392.669,45.598 C390.045,43.737 387.427,41.878 384.787,40.057 C380.397,37.042 375.171,33.574 369.707,30.696 C363.579,27.492 358.386,25.699 353.365,25.056 C352.105,24.896 350.840,24.813 349.577,24.813 C347.979,24.813 346.406,24.950 344.891,25.217 C341.992,25.714 339.338,26.657 337.004,28.024 C334.592,29.434 332.487,31.367 330.919,33.609 C329.321,35.900 328.245,38.538 327.801,41.245 C327.574,42.642 327.516,44.025 327.632,45.354 C327.753,46.769 328.043,48.123 328.495,49.385 C329.435,52.054 331.133,54.314 333.286,55.749 C334.808,56.788 336.578,57.361 338.272,57.361 C339.103,57.361 339.897,57.222 340.639,56.947 C342.980,56.095 344.828,53.809 345.234,51.259 C345.453,49.940 345.309,48.626 344.828,47.561 C344.566,46.986 344.228,46.512 343.820,46.154 C343.376,45.768 342.832,45.452 342.272,45.260 C341.844,45.109 341.398,45.034 340.944,45.034 C340.651,45.034 340.367,45.064 340.089,45.129 C341.798,45.689 343.033,47.301 343.033,49.195 C343.033,51.557 341.118,53.476 338.761,53.476 C336.404,53.476 334.486,51.557 334.486,49.195 C334.486,48.787 334.554,48.371 334.690,47.929 C334.690,47.929 334.897,47.389 334.897,47.389 C335.572,45.765 336.527,44.537 337.720,43.749 C338.657,43.101 339.840,42.746 341.050,42.746 C341.727,42.746 342.391,42.854 343.013,43.063 C343.885,43.348 344.651,43.772 345.365,44.365 C346.035,44.935 346.587,45.666 347.011,46.549 C347.717,48.066 347.943,49.829 347.671,51.647 C347.154,55.121 344.752,58.155 341.549,59.381 C340.478,59.792 339.325,60.002 338.123,60.002 C337.558,60.002 336.996,59.954 336.447,59.866 C334.834,59.606 333.261,58.985 331.779,58.024 C329.120,56.301 327.000,53.580 325.810,50.361 C325.255,48.870 324.890,47.278 324.729,45.639 C324.567,44.055 324.613,42.418 324.867,40.778 C325.356,37.622 326.581,34.542 328.413,31.871 C330.208,29.250 332.628,26.988 335.411,25.330 C338.063,23.746 341.065,22.647 344.334,22.059 C346.109,21.725 347.966,21.559 349.859,21.559 C351.168,21.559 352.473,21.638 353.764,21.791 C359.186,22.439 364.753,24.296 371.287,27.636 C374.322,29.190 377.470,31.024 381.047,33.319 C380.666,32.479 380.351,31.619 380.101,30.744 C379.453,28.481 379.224,26.160 379.421,23.839 C379.638,21.514 380.273,19.269 381.311,17.170 C382.400,14.950 383.877,13.041 385.584,11.653 C387.411,10.155 389.569,9.070 391.815,8.515 C393.063,8.195 394.360,8.034 395.669,8.034 C399.142,8.034 402.532,9.169 405.224,11.235 C407.130,12.718 408.617,14.804 409.414,17.110 C410.198,19.425 410.309,21.996 409.724,24.357 C409.053,26.914 407.742,29.071 405.931,30.592 C404.027,32.191 401.612,33.072 399.001,33.072 C398.999,33.072 398.996,33.072 398.996,33.072 C396.402,33.047 393.962,32.096 392.127,30.393 C390.242,28.632 389.231,26.037 389.425,23.456 C389.514,22.192 389.894,20.936 390.524,19.831 C390.676,19.559 390.874,19.261 391.048,19.022 C391.258,18.744 391.470,18.489 391.696,18.267 C392.165,17.796 392.687,17.395 393.244,17.084 C394.280,16.484 395.480,16.166 396.717,16.166 C398.126,16.166 399.515,16.590 400.629,17.357 C400.629,17.357 401.192,17.786 401.192,17.786 C401.192,17.786 401.144,17.864 401.144,17.864 C402.187,18.996 402.474,20.649 401.817,22.091 C401.189,23.476 399.802,24.372 398.283,24.372 C397.728,24.372 397.189,24.256 396.680,24.024 C394.769,23.156 393.899,20.919 394.703,18.992 C394.617,19.037 394.534,19.085 394.454,19.135 C394.094,19.355 393.758,19.630 393.458,19.958 C393.307,20.116 393.176,20.296 393.072,20.437 C392.932,20.649 392.828,20.815 392.717,21.030 C392.284,21.847 392.036,22.737 391.996,23.613 C391.898,25.391 392.652,27.222 393.960,28.390 C395.285,29.563 397.166,30.262 399.051,30.262 C400.864,30.262 402.696,29.583 404.080,28.400 C405.401,27.278 406.397,25.585 406.888,23.630 C407.859,19.907 406.523,15.753 403.566,13.288 C401.371,11.449 398.406,10.395 395.434,10.395 C394.393,10.395 393.368,10.523 392.377,10.776 C390.434,11.252 388.609,12.186 387.099,13.475 C385.645,14.703 384.437,16.305 383.509,18.242 C382.630,20.073 382.095,22.031 381.924,24.071 C381.730,26.102 381.901,28.128 382.433,30.093 C383.048,32.380 384.203,34.588 385.619,36.343 C385.619,36.343 386.788,37.138 386.788,37.138 C389.478,38.980 392.138,40.856 394.791,42.731 C397.032,44.312 399.271,45.894 401.524,47.448 C405.877,50.449 411.070,53.930 416.550,56.970 C422.428,60.216 427.698,62.426 432.664,63.722 C436.165,64.646 439.651,65.115 443.029,65.115 C445.290,65.115 447.515,64.903 449.640,64.482 C452.370,63.947 455.102,63.072 457.764,61.876 C460.472,60.663 462.934,59.192 465.089,57.512 C469.561,54.046 473.107,49.410 475.343,44.108 C477.597,38.750 478.574,32.948 478.171,27.328 C477.750,21.254 475.771,15.780 472.452,11.504 C472.308,11.323 471.855,10.818 471.590,10.455 C469.662,9.439 467.746,7.716 465.717,5.895 C464.759,5.032 463.789,4.159 463.262,3.518 C463.262,3.518 0.008,1.526 0.008,1.526 C0.008,1.526 0.010,0.063 0.010,0.063 C0.010,0.063 403.571,0.015 457.759,0.015 C464.474,0.015 464.474,0.015 464.300,0.275 C470.062,7.032 477.818,10.909 485.584,10.909 C489.844,10.909 493.595,9.701 495.871,7.597 C496.973,6.581 497.887,5.387 498.588,4.053 C498.868,3.521 499.108,2.976 499.309,2.421 C499.309,2.421 500.005,0.522 500.005,0.522 C500.005,0.522 500.685,2.426 500.685,2.426 C500.885,2.978 501.124,3.523 501.404,4.053 C502.102,5.387 503.017,6.581 504.121,7.597 C506.584,9.875 510.372,11.179 514.518,11.179 C521.733,11.179 529.196,7.363 535.553,0.423 C535.578,0.363 535.621,0.312 535.694,0.269 C535.697,0.265 535.709,0.260 535.709,0.260 C536.146,0.015 537.575,0.015 542.230,0.015 C596.375,0.015 999.982,0.063 999.982,0.063 C999.982,0.063 999.985,1.526 999.985,1.526 C999.985,1.526 537.189,3.355 537.189,3.355 Z" id="path-1" class="cls-2" fill-rule="evenodd"/>
</svg>
