<svg xmlns="http://www.w3.org/2000/svg" xmlns:xlink="http://www.w3.org/1999/xlink" preserveAspectRatio="xMidYMid" width="1000" height="83" viewBox="0 0 1000 83">
  <defs>
    <style>

      .cls-2 {
        fill: #d4cfbd;
      }
    </style>
  </defs>
  <path d="M671.576,50.377 C669.786,53.011 667.366,55.285 664.579,56.950 C661.929,58.542 658.925,59.647 655.651,60.241 C653.881,60.573 652.023,60.740 650.130,60.740 C648.825,60.740 647.519,60.661 646.229,60.507 C640.804,59.856 635.236,57.990 628.702,54.636 C625.680,53.077 622.532,51.236 618.945,48.922 C619.326,49.766 619.641,50.631 619.890,51.510 C620.536,53.777 620.765,56.109 620.571,58.441 C620.352,60.783 619.716,63.040 618.678,65.154 C617.594,67.379 616.117,69.296 614.406,70.695 C612.583,72.196 610.428,73.288 608.175,73.851 C606.930,74.171 605.634,74.333 604.323,74.333 C600.850,74.333 597.457,73.192 594.767,71.118 C592.862,69.623 591.375,67.526 590.581,65.217 C589.792,62.880 589.684,60.296 590.265,57.939 C590.933,55.359 592.247,53.191 594.064,51.660 C595.937,50.078 598.412,49.168 600.855,49.168 C603.587,49.196 606.027,50.151 607.862,51.860 C609.753,53.632 610.761,56.241 610.562,58.839 C610.473,60.119 610.093,61.384 609.458,62.487 C609.317,62.745 609.120,63.050 608.949,63.283 C608.729,63.569 608.520,63.823 608.288,64.054 C607.829,64.522 607.305,64.923 606.738,65.242 C605.712,65.841 604.512,66.157 603.277,66.157 C601.865,66.157 600.474,65.734 599.363,64.964 C599.363,64.964 598.780,64.560 598.780,64.560 C598.780,64.560 598.848,64.454 598.848,64.454 C597.802,63.316 597.517,61.655 598.175,60.206 C598.801,58.814 600.187,57.913 601.709,57.913 C602.264,57.913 602.801,58.030 603.310,58.263 C604.255,58.692 604.976,59.468 605.339,60.444 C605.692,61.384 605.672,62.401 605.289,63.323 C605.369,63.277 605.448,63.232 605.525,63.181 C605.896,62.956 606.231,62.677 606.536,62.350 C606.685,62.190 606.816,62.010 606.939,61.840 C607.061,61.655 607.164,61.485 607.275,61.275 C607.706,60.454 607.953,59.559 607.993,58.684 C608.092,56.892 607.338,55.049 606.027,53.870 C604.706,52.697 602.826,51.994 600.998,51.994 C599.126,51.994 597.296,52.677 595.914,53.866 C594.591,54.993 593.596,56.692 593.109,58.651 C592.136,62.401 593.470,66.576 596.426,69.053 C598.621,70.900 601.586,71.960 604.558,71.960 C605.599,71.960 606.624,71.831 607.605,71.580 C609.561,71.098 611.384,70.160 612.886,68.867 C614.350,67.628 615.555,66.018 616.478,64.076 C617.365,62.228 617.897,60.261 618.066,58.225 C618.262,56.180 618.091,54.147 617.557,52.167 C616.944,49.867 615.792,47.647 614.219,45.741 C614.219,45.741 613.201,45.082 613.201,45.082 C610.514,43.231 607.852,41.345 605.198,39.461 C602.957,37.872 600.719,36.285 598.468,34.723 C594.120,31.710 588.932,28.216 583.440,25.154 C577.564,21.892 572.294,19.671 567.328,18.368 C563.827,17.440 560.341,16.969 556.963,16.969 C554.702,16.969 552.476,17.181 550.352,17.605 C547.619,18.142 544.887,19.024 542.225,20.224 C539.516,21.448 537.053,22.923 534.905,24.609 C530.434,28.090 526.887,32.746 524.644,38.080 C522.393,43.469 521.415,49.300 521.818,54.940 C522.242,61.052 524.220,66.553 527.543,70.852 C527.691,71.043 528.190,71.598 528.533,71.978 C530.325,72.921 532.238,74.647 534.265,76.475 C535.225,77.344 536.201,78.224 537.189,79.035 C537.189,79.035 999.985,80.873 999.985,80.873 C999.985,80.873 999.982,82.343 999.982,82.343 C999.982,82.343 596.375,82.391 542.230,82.391 C537.575,82.391 536.146,82.391 535.709,82.145 C535.709,82.145 535.697,82.140 535.694,82.136 C535.621,82.092 535.578,82.042 535.553,81.981 C529.196,75.007 521.733,71.172 514.518,71.172 C510.372,71.172 506.584,72.482 504.121,74.771 C503.017,75.793 502.102,76.992 501.404,78.333 C501.124,78.865 500.885,79.413 500.685,79.968 C500.685,79.968 500.005,81.882 500.005,81.882 C500.005,81.882 499.309,79.973 499.309,79.973 C499.108,79.415 498.868,78.868 498.588,78.333 C497.887,76.992 496.973,75.793 495.871,74.771 C493.595,72.657 489.844,71.443 485.584,71.443 C477.818,71.443 470.062,75.339 464.300,82.130 C464.474,82.391 464.474,82.391 457.759,82.391 C403.571,82.391 0.010,82.343 0.010,82.343 C0.010,82.343 0.008,80.873 0.008,80.873 C0.008,80.873 463.262,78.871 463.262,78.871 C463.789,78.226 464.759,77.349 465.717,76.482 C467.746,74.652 469.662,72.921 471.590,71.899 C471.855,71.534 472.308,71.027 472.452,70.845 C475.771,66.548 477.750,61.047 478.171,54.943 C478.574,49.295 477.597,43.464 475.343,38.080 C473.107,32.752 469.561,28.092 465.089,24.609 C462.934,22.921 460.472,21.443 457.764,20.224 C455.102,19.022 452.370,18.142 449.640,17.605 C447.515,17.181 445.290,16.969 443.029,16.969 C439.651,16.969 436.165,17.440 432.664,18.368 C427.698,19.671 422.428,21.892 416.550,25.154 C411.070,28.209 405.877,31.707 401.524,34.723 C399.271,36.285 397.032,37.875 394.791,39.464 C392.138,41.347 389.478,43.234 386.788,45.084 C386.788,45.084 385.619,45.883 385.619,45.883 C384.203,47.647 383.048,49.865 382.433,52.164 C381.901,54.139 381.730,56.175 381.924,58.216 C382.095,60.266 382.630,62.233 383.509,64.074 C384.437,66.021 385.645,67.630 387.099,68.865 C388.609,70.160 390.434,71.098 392.377,71.577 C393.368,71.831 394.393,71.960 395.434,71.960 C398.406,71.960 401.371,70.900 403.566,69.053 C406.523,66.576 407.859,62.401 406.888,58.659 C406.397,56.694 405.401,54.993 404.080,53.866 C402.696,52.677 400.864,51.994 399.051,51.994 C397.166,51.994 395.285,52.697 393.960,53.875 C392.652,55.049 391.898,56.890 391.996,58.677 C392.036,59.557 392.284,60.451 392.717,61.272 C392.828,61.488 392.932,61.655 393.072,61.868 C393.176,62.010 393.307,62.190 393.458,62.350 C393.758,62.679 394.094,62.956 394.454,63.176 C394.534,63.227 394.617,63.275 394.703,63.321 C393.899,61.384 394.769,59.136 396.680,58.263 C397.189,58.030 397.728,57.913 398.283,57.913 C399.802,57.913 401.189,58.814 401.817,60.206 C402.474,61.655 402.187,63.316 401.144,64.454 C401.144,64.454 401.192,64.532 401.192,64.532 C401.192,64.532 400.629,64.964 400.629,64.964 C399.515,65.734 398.126,66.160 396.717,66.160 C395.480,66.160 394.280,65.841 393.244,65.237 C392.687,64.925 392.165,64.522 391.696,64.048 C391.470,63.825 391.258,63.569 391.048,63.290 C390.874,63.050 390.676,62.751 390.524,62.477 C389.894,61.366 389.514,60.104 389.425,58.834 C389.231,56.241 390.242,53.632 392.127,51.863 C393.962,50.151 396.402,49.196 398.996,49.171 C398.996,49.171 398.999,49.171 399.001,49.171 C401.612,49.171 404.027,50.055 405.931,51.662 C407.742,53.191 409.053,55.359 409.724,57.929 C410.309,60.302 410.198,62.885 409.414,65.212 C408.617,67.529 407.130,69.625 405.224,71.116 C402.532,73.192 399.142,74.333 395.669,74.333 C394.360,74.333 393.063,74.171 391.815,73.849 C389.569,73.291 387.411,72.201 385.584,70.695 C383.877,69.301 382.400,67.382 381.311,65.151 C380.273,63.042 379.638,60.786 379.421,58.449 C379.224,56.117 379.453,53.784 380.101,51.510 C380.351,50.631 380.666,49.766 381.047,48.922 C377.470,51.229 374.322,53.072 371.287,54.633 C364.753,57.990 359.186,59.856 353.764,60.507 C352.473,60.661 351.168,60.740 349.859,60.740 C347.966,60.740 346.109,60.573 344.334,60.238 C341.065,59.647 338.063,58.542 335.411,56.950 C332.628,55.285 330.208,53.011 328.413,50.377 C326.581,47.693 325.356,44.597 324.867,41.426 C324.613,39.779 324.567,38.133 324.729,36.541 C324.890,34.894 325.255,33.294 325.810,31.796 C327.000,28.561 329.120,25.826 331.779,24.095 C333.261,23.129 334.834,22.505 336.447,22.244 C336.996,22.156 337.558,22.107 338.123,22.107 C339.325,22.107 340.478,22.318 341.549,22.731 C344.752,23.963 347.154,27.012 347.671,30.503 C347.943,32.331 347.717,34.103 347.011,35.626 C346.587,36.514 346.035,37.249 345.365,37.821 C344.651,38.417 343.885,38.843 343.013,39.130 C342.391,39.340 341.727,39.449 341.050,39.449 C339.840,39.449 338.657,39.092 337.720,38.440 C336.527,37.649 335.572,36.414 334.897,34.782 C334.897,34.782 334.690,34.240 334.690,34.240 C334.554,33.796 334.486,33.378 334.486,32.967 C334.486,30.594 336.404,28.665 338.761,28.665 C341.118,28.665 343.033,30.594 343.033,32.967 C343.033,34.871 341.798,36.491 340.089,37.053 C340.367,37.119 340.651,37.150 340.944,37.150 C341.398,37.150 341.844,37.074 342.272,36.922 C342.832,36.729 343.376,36.412 343.820,36.024 C344.228,35.664 344.566,35.188 344.828,34.610 C345.309,33.540 345.453,32.219 345.234,30.894 C344.828,28.330 342.980,26.034 340.639,25.177 C339.897,24.901 339.103,24.761 338.272,24.761 C336.578,24.761 334.808,25.336 333.286,26.381 C331.133,27.823 329.435,30.095 328.495,32.777 C328.043,34.044 327.753,35.406 327.632,36.828 C327.516,38.163 327.574,39.553 327.801,40.957 C328.245,43.677 329.321,46.329 330.919,48.631 C332.487,50.884 334.592,52.826 337.004,54.243 C339.338,55.617 341.992,56.565 344.891,57.065 C346.406,57.333 347.979,57.470 349.577,57.470 C350.840,57.470 352.105,57.387 353.365,57.227 C358.386,56.580 363.579,54.778 369.707,51.558 C375.171,48.666 380.397,45.180 384.787,42.151 C387.427,40.321 390.045,38.453 392.669,36.582 C394.454,35.307 396.241,34.031 398.038,32.767 C397.806,32.775 397.577,32.779 397.345,32.779 C396.402,32.779 395.459,32.709 394.527,32.561 C389.925,31.902 385.556,29.405 382.556,25.717 C381.808,24.794 381.148,23.831 380.573,22.764 C380.034,21.775 379.592,20.640 379.262,19.395 C378.642,16.999 378.582,14.515 379.088,12.208 C379.580,9.858 380.615,7.625 382.080,5.749 C383.605,3.805 385.445,2.299 387.545,1.267 C389.307,0.433 391.258,-0.008 393.196,-0.008 C393.655,-0.008 394.116,0.017 394.573,0.066 C397.055,0.342 399.351,1.270 401.219,2.745 C402.177,3.495 403.029,4.385 403.747,5.387 C404.493,6.453 405.050,7.627 405.363,8.788 C406.038,11.174 405.789,13.873 404.683,16.190 C403.556,18.541 401.658,20.365 399.339,21.332 C398.338,21.747 397.264,21.955 396.148,21.955 C394.638,21.955 393.158,21.567 391.870,20.835 C390.771,20.221 389.791,19.337 389.047,18.274 C388.873,18.036 388.687,17.729 388.546,17.476 C388.374,17.154 388.235,16.857 388.122,16.545 C387.898,15.937 387.756,15.285 387.706,14.614 C387.487,11.985 388.853,9.326 391.109,8.005 C391.109,8.005 391.742,7.635 391.742,7.635 C391.742,7.635 391.810,7.749 391.810,7.749 C392.180,7.635 392.569,7.574 392.957,7.574 C394.088,7.574 395.160,8.069 395.898,8.933 C397.287,10.570 397.095,13.040 395.475,14.439 C394.771,15.045 393.877,15.379 392.952,15.379 C391.870,15.379 390.842,14.928 390.108,14.134 C390.113,14.213 390.123,14.294 390.134,14.373 C390.317,16.021 391.495,17.635 393.138,18.500 C393.988,18.954 394.961,19.194 395.953,19.194 C396.755,19.194 397.557,19.035 398.275,18.731 C399.893,18.033 401.312,16.619 402.069,14.953 C402.842,13.308 403.006,11.394 402.532,9.551 C402.306,8.684 401.925,7.866 401.373,7.052 C400.836,6.235 400.201,5.516 399.478,4.897 C397.988,3.632 396.143,2.808 394.285,2.585 C393.859,2.530 393.435,2.504 393.012,2.504 C391.485,2.504 389.977,2.861 388.657,3.538 C385.188,5.278 382.622,8.814 381.949,12.771 C381.611,14.743 381.694,16.761 382.194,18.601 C382.688,20.431 383.595,22.186 384.893,23.818 C387.323,26.914 391.001,29.111 394.983,29.849 C395.964,30.031 396.960,30.120 397.955,30.120 C399.659,30.120 401.366,29.862 403.031,29.352 C407.347,26.374 411.145,23.991 414.785,21.950 C420.999,18.475 426.380,16.193 431.724,14.771 C435.558,13.741 439.399,13.220 443.140,13.220 C445.607,13.220 448.032,13.450 450.354,13.904 C453.388,14.484 456.403,15.463 459.304,16.807 C462.263,18.163 464.971,19.811 467.350,21.701 C472.281,25.598 476.178,30.785 478.612,36.698 C481.009,42.435 481.977,48.836 481.410,55.207 C481.110,58.453 480.415,61.549 479.343,64.408 C478.653,66.264 477.808,68.003 476.823,69.600 C479.777,68.576 482.645,68.058 485.380,68.058 C491.518,68.058 495.518,70.571 497.792,72.680 C498.611,73.441 499.349,74.292 499.997,75.215 C500.642,74.292 501.381,73.443 502.200,72.680 C504.471,70.571 508.469,68.058 514.609,68.058 C517.344,68.058 520.215,68.576 523.169,69.600 C522.181,68.000 521.337,66.262 520.646,64.408 C519.577,61.549 518.882,58.453 518.582,55.209 C518.015,48.838 518.983,42.438 521.377,36.696 C523.815,30.782 527.712,25.595 532.644,21.704 C535.016,19.813 537.723,18.165 540.687,16.807 C543.589,15.463 546.601,14.484 549.643,13.904 C551.957,13.450 554.385,13.220 556.850,13.220 C560.593,13.220 564.434,13.741 568.268,14.774 C573.607,16.193 578.991,18.475 585.207,21.950 C588.831,23.983 592.630,26.363 597.160,29.446 C598.624,29.862 600.333,30.120 602.034,30.120 C603.033,30.120 604.028,30.031 605.009,29.849 C608.991,29.111 612.666,26.914 615.096,23.818 C616.392,22.191 617.299,20.437 617.798,18.601 C618.295,16.766 618.380,14.751 618.043,12.771 C617.370,8.816 614.801,5.278 611.341,3.538 C610.015,2.859 608.505,2.504 606.978,2.504 C606.554,2.504 606.133,2.530 605.712,2.585 C603.847,2.811 602.002,3.632 600.509,4.900 C599.786,5.518 599.151,6.241 598.621,7.042 C598.064,7.866 597.684,8.684 597.459,9.551 C596.986,11.394 597.147,13.308 597.916,14.943 C598.679,16.619 600.101,18.031 601.719,18.731 C602.433,19.032 603.237,19.192 604.038,19.192 C605.031,19.192 606.005,18.954 606.849,18.500 C608.495,17.635 609.674,16.023 609.859,14.386 C609.868,14.302 609.876,14.216 609.883,14.132 C609.150,14.926 608.124,15.377 607.041,15.377 C606.115,15.377 605.220,15.045 604.517,14.441 C602.891,13.037 602.702,10.565 604.096,8.933 C604.830,8.071 605.901,7.574 607.033,7.574 C607.424,7.574 607.812,7.635 608.185,7.749 C608.185,7.749 608.233,7.665 608.233,7.665 C608.233,7.665 608.883,8.005 608.883,8.005 C611.139,9.328 612.505,11.988 612.283,14.621 C612.235,15.288 612.094,15.940 611.865,16.553 C611.754,16.857 611.615,17.154 611.452,17.461 C611.308,17.724 611.119,18.033 610.942,18.279 C610.194,19.339 609.215,20.226 608.112,20.837 C606.831,21.567 605.351,21.955 603.842,21.955 C602.728,21.955 601.654,21.747 600.653,21.332 C598.331,20.363 596.436,18.538 595.312,16.190 C594.201,13.879 593.951,11.176 594.629,8.781 C594.936,7.630 595.496,6.456 596.240,5.394 C596.963,4.385 597.815,3.495 598.773,2.742 C600.635,1.270 602.934,0.344 605.417,0.066 C605.879,0.017 606.342,-0.008 606.804,-0.008 C608.739,-0.008 610.688,0.431 612.440,1.264 C614.544,2.299 616.382,3.805 617.912,5.746 C619.374,7.620 620.410,9.856 620.904,12.213 C621.411,14.512 621.352,16.997 620.732,19.389 C620.395,20.652 619.953,21.785 619.419,22.766 C618.839,23.833 618.184,24.794 617.428,25.717 C614.436,29.405 610.070,31.902 605.455,32.561 C604.532,32.709 603.590,32.779 602.647,32.779 C602.415,32.779 602.185,32.775 601.954,32.767 C603.728,34.014 605.490,35.271 607.250,36.529 C609.896,38.417 612.538,40.303 615.205,42.149 C619.581,45.171 624.796,48.654 630.291,51.558 C636.413,54.778 641.606,56.580 646.629,57.227 C647.885,57.387 649.147,57.470 650.410,57.470 C652.008,57.470 653.586,57.333 655.098,57.062 C657.999,56.565 660.654,55.617 662.986,54.240 C665.403,52.824 667.507,50.884 669.073,48.631 C670.668,46.331 671.744,43.677 672.191,40.957 C672.415,39.553 672.473,38.163 672.360,36.828 C672.236,35.406 671.946,34.042 671.500,32.777 C670.555,30.093 668.856,27.821 666.713,26.384 C665.186,25.336 663.414,24.761 661.720,24.761 C660.888,24.761 660.094,24.901 659.358,25.174 C657.011,26.034 655.164,28.328 654.761,30.888 C654.539,32.222 654.683,33.542 655.161,34.610 C655.431,35.193 655.771,35.672 656.169,36.024 C656.613,36.412 657.160,36.729 657.707,36.916 C658.146,37.074 658.595,37.150 659.048,37.150 C659.341,37.150 659.631,37.117 659.905,37.053 C658.194,36.493 656.956,34.874 656.956,32.967 C656.956,30.594 658.872,28.665 661.228,28.665 C663.588,28.665 665.508,30.594 665.508,32.967 C665.508,33.367 665.443,33.773 665.297,34.245 C665.297,34.245 665.085,34.805 665.085,34.805 C664.415,36.417 663.460,37.652 662.259,38.447 C661.332,39.092 660.150,39.449 658.940,39.449 C658.262,39.449 657.599,39.340 656.966,39.127 C656.104,38.843 655.338,38.417 654.635,37.824 C653.964,37.259 653.407,36.521 652.984,35.631 C652.273,34.100 652.043,32.328 652.323,30.501 C652.833,27.015 655.235,23.965 658.441,22.731 C659.512,22.318 660.664,22.107 661.867,22.107 C662.431,22.107 662.993,22.156 663.545,22.246 C665.136,22.502 666.749,23.141 668.211,24.092 C670.870,25.826 672.990,28.561 674.179,31.796 C674.732,33.279 675.097,34.876 675.266,36.544 C675.425,38.131 675.377,39.776 675.122,41.429 C674.638,44.592 673.413,47.687 671.576,50.377 Z" id="path-1" class="cls-2" fill-rule="evenodd"/>
</svg>
