<svg version="1" xmlns="http://www.w3.org/2000/svg" viewBox="0 0 50 50"><path d="M2.175 14.63C1.69 15.714 1.28 17 .95 18h6.257l-5.032-3.37zM18 .95C14 2.185 9.752 4.576 6.71 7.775L18 15.336V.95zM32 49.048c4-1.237 8.242-3.63 11.283-6.826L32 34.664v14.384zM47.826 35.37c.486-1.086.895-2.37 1.223-3.37h-6.253l5.03 3.37zM43.282 7.777C40.242 4.58 36 2.19 32 .952v14.382l11.282-7.557zM6.708 42.223C9.75 45.423 14 47.813 18 49.05V34.66L6.708 42.223zM.95 32c.33 1 .74 2.285 1.224 3.37L7.204 32H.952zM49.05 18c-.33-1-.74-2.284-1.224-3.37L42.796 18h6.253z" fill="#303187"/><path d="M42.797 18l5.03-3.28c-.583-1.302-1.268-2.59-2.054-3.762L35.193 18H32v-.803L44.24 8.94c-.334-.398-.64-.785-1-1.163L32 15.334V.952c-1-.253-2-.46-3-.612V21h20.66c-.152-1-.358-2-.61-3h-6.253zM29 49.66c1-.153 2-.36 3-.612V34.664l11.198 7.557c.976-1.025 1.826-2.042 2.618-3.222L35.194 32h4.823l7.13 4.687c.24-.46.467-.885.68-1.362L42.797 32h6.252c.25-1 .457-2 .61-3H29v20.66zM.34 29c.152 1 .358 2 .61 3h6.254l-5.03 3.282c.58 1.3 1.266 2.59 2.052 3.76L14.81 32H18v.8L5.755 41.06c.335.4.64.786.998 1.163L18 34.66v14.39c1 .253 2 .46 3 .61V29H.34zM21 .34c-1 .152-2 .357-3 .61v14.387L6.8 7.777C5.822 8.8 4.973 9.82 4.18 11l10.63 7H9.986l-7.13-4.69c-.243.46-.47.887-.682 1.363L7.207 18H.95c-.252 1-.458 2-.61 3H21V.34z" fill="#FFF"/><path d="M18 32h-3.19L4.227 39c.5.745.952 1.417 1.527 2.103L18 32.8V32zM32 18h3.192l10.58-7c-.5-.745-.955-1.417-1.53-2.103L32 17.197V18zM14.81 18L4.23 11c-.498.742-.954 1.47-1.37 2.267L9.987 18h4.823zM35.194 32l10.58 7c.497-.744.953-1.473 1.37-2.27L40.017 32h-4.822z" fill="#EC1C24"/><path d="M29 .34C28 .12 26.393 0 24.996 0 23.602 0 22 .12 21 .34V21H.34C.12 22 0 23.605 0 25s.12 3 .34 4H21v20.66c1 .22 2.602.34 3.996.34 1.397 0 3.004-.12 4.004-.34V29h20.66c.22-1 .34-2.605.34-4s-.12-3-.34-4H29V.34z" fill="#EC1C24"/></svg>