<svg version="1" xmlns="http://www.w3.org/2000/svg" xmlns:xlink="http://www.w3.org/1999/xlink" viewBox="0 0 50 50"><defs><circle id="a" cx="25" cy="25" r="24.5"/></defs><use xlink:href="#a" overflow="visible" fill="#FFF"/><clipPath id="b"><use xlink:href="#a" overflow="visible"/></clipPath><g clip-path="url(#b)" stroke="#FFF"><path fill="#303187" d="M-4.75.087h59.5v50.287h-59.5z"/><path fill="#FFF" d="M-4.75 5.076h7.457l15.61 10.454V.087h13.376v15.44l15.602-10.45h7.455v4.99L42.44 18.31h12.31V31.69H42.44l12.31 8.244v4.992h-7.452L31.693 34.47v15.904H18.317V34.467L2.704 44.924H-4.75v-4.99l12.31-8.246H-4.75V18.31H7.563L-4.75 10.066z"/><path fill="#EC1C24" d="M18.317 32.644v-.956h-3.304L-4.75 44.924h4.728zM31.693 17.353v.958h3.295L54.75 5.077h-4.73zM-4.75 8.24l15.037 10.07h4.728L-4.75 5.077zM34.99 31.688l19.76 13.236v-3.167l-15.034-10.07z"/><path fill="#EC1C24" d="M29.017 20.988V.088H20.99v20.9H-4.75v8.025h25.74v21.36h8.027v-21.36H54.75v-8.025z"/></g><use xlink:href="#a" overflow="visible" fill="none" stroke="#FFF"/></svg>