<?xml version="1.0" encoding="utf-8"?>
<!-- Generator: Adobe Illustrator 19.2.1, SVG Export Plug-In . SVG Version: 6.00 Build 0)  -->
<!DOCTYPE svg PUBLIC "-//W3C//DTD SVG 1.1//EN" "http://www.w3.org/Graphics/SVG/1.1/DTD/svg11.dtd">
<svg version="1.1" id="Layer_1" xmlns="http://www.w3.org/2000/svg" xmlns:xlink="http://www.w3.org/1999/xlink" x="0px" y="0px"
	 width="100px" height="150.9170074px" viewBox="0 0 100 150.9170074" style="enable-background:new 0 0 100 150.9170074;"
	 xml:space="preserve">
<style type="text/css">
	.st0{fill:#F4DB73;stroke:#AF8F58;stroke-width:0.874785;stroke-miterlimit:10;}
	.st1{fill:#FFF3C0;}
	.st2{fill:#B78534;}
	.st3{fill:#CEA645;}
	.st4{fill:#F4BC1E;}
	.st5{fill:#F9D023;}
	.st6{fill:#FCEE21;}
	.st7{fill:#AD8618;}
	.st8{fill:#7F5E13;}
	.st9{fill:#C68D28;}
	.st10{fill:#E0AC07;}
	.st11{fill:#EAC511;}
	.st12{fill:#CCCCCC;}
	.st13{fill:#A06E1F;}
	.st14{fill:#A57A0F;}
	.st15{fill:#C64F6E;}
	.st16{fill:#962F6A;}
	.st17{fill:#DB8DB6;}
	.st18{fill:#A32E52;}
	.st19{fill:#E8A3CB;}
	.st20{fill:#722F49;}
	.st21{fill:#E6E6E6;}
	.st22{fill:#FFFFFF;}
	.st23{fill:#A8A8A8;}
	.st24{fill:#C9C9C9;}
	.st25{fill:#FFCFF0;}
	.st26{fill:#FFE9F7;}
	.st27{fill:#FFFBD7;}
	.st28{fill:#FCEE86;}
	.st29{fill:#544F43;}
	.st30{fill:#8E8E8E;}
</style>
<g>
	<polygon class="st0" points="46.2370338,120.4199905 29.6164742,101.3860626 4.8191619,96.5146942 5.0306263,117.7264557 
		3.7367444,135.7928009 12.5398397,141.1278076 29.4852753,129.825119 	"/>
</g>
<polygon class="st1" points="5.3544631,130.287323 6.7723451,116.4592819 6.524024,103.1844177 9.5777321,107.8094711 
	13.6195936,105.7658768 7.7172241,123.570549 "/>
<polygon class="st2" points="14.5898905,139.6598663 11.3994493,137.3128052 23.1724091,125.0860977 33.0318718,112.0913391 
	48.3984566,117.259491 42.2086983,122.440155 26.5375023,131.8690643 "/>
<polygon class="st3" points="11.1533785,138.0306091 7.365448,135.8436432 10.7045813,125.9777679 15.7887058,113.6726608 
	21.9157047,106.5595322 32.2203827,113.4968796 23.1776485,126.5350037 "/>
<path class="st4" d="M39.1742668,120.2621613l-0.0000114-0.0000076c-2.9226761-1.6874084-3.9333534-5.4592972-2.2459412-8.3819733
	l39.5759811-68.5476227c1.9342499-3.3502159,6.2578964-4.5087318,9.6081085-2.5744858l0.0046921,0.0027084
	c3.3502197,1.9342461,4.5087357,6.2578964,2.5744858,9.6081085l-38.6756897,66.988266
	C47.8333206,121.1374817,42.9545898,122.4447327,39.1742668,120.2621613z"/>
<path class="st5" d="M22.7130852,113.5365982l-0.0000191-0.0000153c-5.5386124-3.1977158-7.453887-10.3456192-4.2561684-15.8842316
	L53.928154,36.2143326c3.1977196-5.5386105,10.3456268-7.453886,15.8842316-4.2561684l0.0000229,0.0000114
	c5.5386124,3.1977196,7.4538879,10.3456268,4.2561722,15.8842354l-35.4712601,61.438015
	C35.399601,114.8190384,28.2516975,116.734314,22.7130852,113.5365982z"/>
<path class="st6" d="M7.7959671,102.1458893l-0.0000124-0.0000076c-3.3812885-1.9521866-4.5505524-6.3159332-2.5983648-9.6972275
	l39.0619507-67.65728c1.9521866-3.3812885,6.3159409-4.5505524,9.6972275-2.5983658l0.0000153,0.0000076
	c3.3812866,1.9521885,4.5505524,6.3159409,2.598362,9.6972294L17.4931965,99.5475311
	C15.5410089,102.9288177,11.1772556,104.0980835,7.7959671,102.1458893z"/>
<g>
	<path class="st7" d="M35.8155327,113.5391922c-3.4335823,2.7367477-9.5442238,3.9264297-14.0179768,1.3435059l-0.4431591-0.2558594
		c-4.5299797-2.6153793-6.4255724-7.7126236-5.9559917-11.8439941c-2.0469618,1.9974823-5.4379053,1.8850937-7.647531,0.6093674
		c-3.5585828-2.0545502-4.2209301-8.2894669-2.4713602-11.319809l6.6140885-11.0185471L5.8256578,92.4386292
		c-1.1156316,2.8071136-0.8793693,7.7360229,2.1753893,9.4996872c2.6515512,1.5308762,6.2059841,1.6437073,7.8340321-1.1761551
		l10.0673542-16.2707825l-8.7202568,16.2703018c-1.5957355,4.3443222,0.1138191,9.5018158,5.0470066,12.3499908l0.4431572,0.2558594
		c4.1235657,2.3807373,10.6827354,2.2320938,13.8383484-1.6155777l11.8792229-19.4090347L37.042099,112.4352951"/>
</g>
<g>
	<path class="st8" d="M37.0997124,112.3355026c-1.6555977,2.8675842-0.5854797,5.9751892,2.6956635,7.8695602
		c3.1087685,1.7948456,6.6884613-0.0981445,7.3127022-0.4918823c0.6619301-0.4175034,1.2109375-0.8581238,1.7283783-1.3169632
		s1.5767403-1.7833099,1.5767403-1.7833099c-0.7254143,1.4751511-1.6067886,2.912178-3.8931808,4.1917496
		c-3.471283,1.9426956-23.4437943,13.7696381-31.2890358,19.0569916c-1.2096739,0.8152771-0.7299385-0.2036896-1.070981-0.1132812
		c-0.9402628,0.2492523,27.5195446-17.3860245,26.7118511-17.6170731c-0.4334679-0.1240005-1.2589417-0.5840836-1.759243-0.8894348
		c-2.9977226-1.8296127-3.8886185-4.9421844-3.220253-7.8357239"/>
</g>
<path class="st9" d="M73.9478912,48.739933l12.5537567,5.5846329l-36.2840424,62.5542107
	c0,0,13.5412979-25.2000504,14.4977875-27.1520615s3.9103317-6.517746,4.8520889-11.7611313
	c0.9417572-5.2433929,0.3154984-6.8886566-0.5182114-8.5063782c-0.6933975-1.345459-2.25811-1.5562439-3.9604568-0.6451263
	c-0.8693008,0.4652557-1.572506,1.1965103-2.4876213,2.2675171s-7.3776817,10.0083694-7.3776817,10.0083694L73.9478912,48.739933z"
	/>
<path class="st10" d="M54.4019432,35.7985306L75.671257,46.7669067L60.8731537,71.3044739
	c0.1856499,0.055069,4.0182953-9.2963562,3.5051651-13.5068054c-0.2721558-2.2331886-1.0840797-4.448494-2.0090561-5.7054482
	c-2.1002235-2.8540001-4.7319832-3.526535-6.6288795-3.8271828c-1.7949448-0.2844849-3.5435905,0.1637306-5.1040192,0.9673843
	c-1.5604324,0.8036537-2.7919044,1.9234962-4.4529228,3.9948502s-6.6877594,9.3965759-6.6877594,9.3965759l-5.7768745,8.9123611
	L54.4019432,35.7985306z"/>
<path class="st11" d="M41.9387321,28.3015385l12.0794525,8.3629818l-8.0540009,13.6583481
	c0,0,1.2563324-4.7690773,1.0069885-6.9954338c-0.2493553-2.226368-0.7923851-3.3606033-1.5892448-4.3888588
	c-0.7968559-1.0282555-1.2231941-1.3375359-2.1831436-1.8286285c-0.9599571-0.4911003-1.5124245-0.6206703-2.5595436-0.3413734
	c-1.0471306,0.2792892-1.9758835,0.8163185-2.3859406,1.5265541c-0.4100533,0.7102394-12.4031143,20.6172142-12.4031143,20.6172142
	l-9.616724,15.7864494l-4.2996826,6.3560867l29.8331127-52.306282L41.9387321,28.3015385z"/>
<polygon class="st12" points="88.5499649,51.2141762 86.8394623,53.5936623 73.629837,47.3139038 52.4903297,34.9406509 
	76.165596,46.4209862 "/>
<polygon points="15.1549206,139.9860687 13.28269,137.7687683 10.2816458,135.5310669 6.464416,133.8322449 3.473326,133.1154327 
	2.1381962,140.6554413 0,149.3535461 1.1718587,150.6535797 3.2626989,150.9168549 9.3659201,144.5079651 "/>
<path class="st13" d="M64.0049133,43.3142128l11.1713104,5.9867897l11.043602,5.3659096L71.7129745,79.7935104l7.5893173-14.8946533
	l2.0307922-5.2670059l-0.2108002-3.425621l-1.6000595-2.4810562l-2.9838181-1.6806221l-2.5578613-0.2351799l-1.8074646,1.8184509
	l-5.0879135,7.5003433c0,0,4.1625519-7.9714661,4.5516357-8.9042511c0.3890762-0.9327927,0.4872589-1.8741379-0.0711899-2.6505699
	c-1.7860641-2.483223-4.5176697-4.3128433-4.5176697-4.3128433L64.0049133,43.3142128z"/>
<polygon class="st14" points="53.7939529,36.619236 62.812088,41.9942093 55.8453979,38.8979301 53.4046936,38.7514305 
	49.8561134,43.7313728 51.7365265,39.7454109 51.8003616,37.5936852 48.180378,34.2410431 43.4928131,31.5346775 
	40.7147751,32.5191956 29.6598911,51.0107269 21.3533592,64.5232773 41.830925,28.7855625 "/>
<g>
	<path class="st15" d="M69.2761154,37.3927727l-4.1546021-2.3986626
		c-10.4168091-6.0141449-21.6004562-6.3261623-15.5863113-16.7429714l6.2700577-10.8600655
		c5.0872879-8.8114452,18.4129105-8.7099485,28.8297195-2.6958022l1.1239548,0.6489153
		c10.4168015,6.0141459,17.167511,17.5037231,12.0802231,26.3151684l-6.27005,10.8600693
		C85.5549622,52.9362335,79.6929169,43.4069176,69.2761154,37.3927727z"/>
	<path class="st16" d="M85.6316376,47.6001511c-2.8266754,0-5.7836533-2.2111664-9.4207916-4.9308815
		c-2.1110153-1.57864-4.5040131-3.3677979-7.153717-4.8978233l-4.1544495-2.3988304
		c-2.6497002-1.5295372-5.395668-2.7070732-7.818325-3.7460499c-4.6921654-2.0123177-8.3983498-3.6016541-9.4135017-6.6539192
		c-0.6198845-1.8645153-0.1341858-4.13451,1.4857788-6.9402809l6.2698326-10.8598976
		c5.3786583-9.317235,19.1858025-8.7693052,29.4272728-2.8558464l1.1240616,0.649056
		c5.2663498,3.040597,9.6502686,7.5212708,12.026741,12.2921972c2.5850372,5.189045,2.6608887,10.3814926,0.2134323,14.6200466
		L91.9476547,42.738308c-1.6194763,2.8052826-3.342514,4.3610725-5.2673187,4.75634
		C86.3322296,47.5661163,85.9831467,47.6001511,85.6316376,47.6001511z M69.4946899,37.0139732
		c2.6944351,1.5557899,5.109314,3.3614769,7.2402573,4.9547043c3.9123306,2.9258575,7.0059204,5.2362022,9.7693863,4.6693115
		c1.6656723-0.3422737,3.1986084-1.7609596,4.6858444-4.3372498l6.2703171-10.8603821
		c2.2957687-3.9760151,2.2111664-8.8743229-0.2387161-13.7925625c-2.3020782-4.6211815-6.5600815-8.9676685-11.6815491-11.9246407
		l-1.124054-0.649056c-9.8690567-5.6975937-23.1277885-6.3062963-28.232235,2.5359368l-6.2698326,10.8598976
		c-1.4872398,2.5762901-1.9496002,4.6134033-1.4128532,6.2270489c0.8906898,2.678875,4.4378929,4.2001457,8.9282875,6.1254349
		c2.4445381,1.0487003,5.215786,2.2369328,7.9107056,3.7927227L69.4946899,37.0139732z"/>
</g>
<path class="st17" d="M53.8354988,13.0738802l-0.1777153,1.328392l7.6487617,4.2476606c0,0,0.986702,0.4013195,2.2874527-0.3207741
	c1.3007545-0.7220955,4.0450935-2.916523,5.8359489-3.3977451c1.7908478-0.4812222,3.1039047-0.0507822,5.3434753,1.242239
	c2.2395782,1.2930202,21.5280762,12.4292355,21.5280762,12.4292355l-0.2459946-0.7403107
	c0,0-36.5011177-21.9202194-37.1340523-22.2856464s-1.469986,1.3797097-1.469986,1.3797097L53.8354988,13.0738802z"/>
<path class="st18" d="M98.3136063,30.2936172l-3.841835,6.8729477l-12.8968811-5.8045826l-6.3034515-3.8076515
	c0,0-1.0332184-1.7749958,0.9309006-1.0618935c1.9641113,0.7131023,5.7312088,2.2146244,7.485611,1.7965336
	s4.0471268-2.1733398,4.5226593-2.3660736c0.9312592-0.3774395,1.907547-0.31884,2.7913971,0.191452
	C91.8858566,26.6246395,98.3136063,30.2936172,98.3136063,30.2936172z"/>
<path class="st19" d="M86.4851608,7.2605371c0.0314255-0.4656029-3.3048477-2.1816263-6.0073242-3.2999768
	c-2.7024841-1.1183572-5.5325699-1.9315863-7.5498734-2.0861664c-2.0173111-0.1545801-5.080101-0.4918828-7.2153931-0.0411699
	c-2.1352997,0.4507066-3.7704468,1.3585302-4.3575172,1.8613471s-0.6464958,0.8683448-0.3573456,1.0563307
	c0.2891388,0.1879792,5.0629616,1.5131488,8.7155571,2.2541142s9.6858292,1.488523,11.3775787,1.4340968
	C82.7825775,8.3846807,86.3963013,8.5770979,86.4851608,7.2605371z"/>
<polygon class="st20" points="53.8358955,9.9385452 51.0864105,14.6643457 70.652626,27.5392113 93.6688843,39.7964935 
	97.1911316,33.6228828 95.6326218,33.8384094 93.5091858,36.0636673 83.276535,31.3343163 62.1539459,19.2233562 
	54.1218605,13.7442684 54.3484077,11.6023073 "/>
<path class="st21" d="M93.4459534,43.6051331l0.7504425-1.2998009c0.5561447-0.9632759,1.2239609-2.6971359,0.3906403-3.178257
	L82.688118,33.5198784L62.1382179,21.6553879l-11.0494003-7.6420193c-0.833374-0.4811478-2.5490227,0.6477451-3.1052017,1.6110764
	l-0.7503815,1.2996941c-0.5164604,0.8945408-0.3506737,1.9701786,0.3419456,2.5054684
	c-0.8098831-0.33218-1.824276,0.0620079-2.3407707,0.9566021l-0.7503777,1.2996922
	c-0.5164642,0.8945427-0.3506737,1.9701786,0.3419418,2.5054703c-0.8098831-0.33218-1.824276,0.062006-2.3407707,0.9566021
	l-0.7503777,1.2996922c-0.5561485,0.9632778-0.2272301,2.2362747,0.6061401,2.7174225l11.3336411,7.8061218l20.2654953,11.7002907
	l11.899086,5.607296c0.8333206,0.4811211,1.5522385-0.1869125,2.1083527-1.150135l0.7504425-1.2998009
	c0.5164642-0.8945389,0.3505936-1.97015-0.34198-2.5054169c0.8098373,0.3321533,1.8243103-0.0620575,2.340744-0.9565468
	l0.7504425-1.2998009c0.5164642-0.8945389,0.3505936-1.97015-0.34198-2.5054131
	C91.9150467,44.893837,92.9295197,44.4996223,93.4459534,43.6051331z"/>
<polygon class="st22" points="49.237133,16.2271709 50.6179352,14.9290276 66.2509079,25.3947792 83.0440674,35.090313 
	93.5696106,39.8955421 81.0986938,34.6690674 56.4846191,21.0240517 "/>
<polygon class="st22" points="46.1753845,21.5302734 47.633007,20.0990734 63.3428001,30.4317703 79.4708023,39.2382202 
	90.5846786,45.0655861 78.0753555,39.9056396 59.5301018,29.7456818 "/>
<polygon class="st22" points="43.5510292,26.0757885 45.4261627,25.3065205 60.7184448,34.9772873 75.1321106,42.9623184 
	87.9603271,49.6111031 78.7885437,46.2518272 55.8956337,33.7080078 "/>
<polygon class="st23" points="90.9263229,48.1879578 89.2246246,49.6045074 76.2541962,42.7683868 55.1146851,30.395134 
	80.0154877,43.4668884 "/>
<polygon class="st23" points="88.5115509,52.3704643 86.9846039,54.1404305 73.1581192,47.7991447 49.6324615,33.6904984 
	77.0269852,47.5496368 "/>
<polygon class="st23" points="93.9006882,42.7081375 92.080368,44.8769188 78.8785477,38.2228699 59.873661,26.8505573 
	83.1152954,38.7539482 "/>
<polygon class="st24" points="2.0415645,146.3041534 3.566165,140.4923859 4.3637409,135.5024567 6.2069573,135.8090515 
	7.6856799,136.7469635 5.3800817,141.2871094 2.92559,146.2674103 "/>
<path class="st25" d="M54.7747192,12.4312372c0.0771332-0.5382671,3.0692101-5.7132411,3.7015343-5.9374018
	s1.1165428-0.6180062,1.8093834-0.2179952s6.2656174,3.727386,6.2656174,3.727386s-3.5265656,0.1267633-4.3329849,0.5029402
	c-0.8064194,0.3761759-2.7090073,2.9500189-3.5602989,3.4001904c-0.8512917,0.4501705-1.3469849,0.4308548-2.0558891,0.0564861
	C55.8931808,13.5884733,54.6975861,12.9695034,54.7747192,12.4312372z"/>
<path class="st26" d="M67.7256546,2.574595c0.2942123-0.4404154,3.1140137-0.4327919,5.3441772-0.0711458
	s4.7237091,1.0437114,4.9757614,1.4417601c0.252037,0.398042-0.0165405,0.9301822-0.5217209,1.1156318
	c-0.5051956,0.1854429-3.2992325-0.1933475-4.7453842-0.3828125s-3.817627-0.5347333-4.291069-0.878103
	S67.4314423,3.0150104,67.7256546,2.574595z"/>
<path class="st27" d="M7.2512836,92.1563339c1.3850756-2.3990173,17.0387745-29.2204247,17.0387745-29.2204247l13.7993126-22.588932
	c0,0-28.0686359,49.1994934-28.8340721,50.5252686s-1.6233053,3.103241-1.6399198,4.4404678
	c-0.0166149,1.3372269,0.2365251,2.0726089,0.8636155,3.0238953s1.8611393,1.5223999,3.1663752,1.6597595
	c1.4263601,0.1500931,3.464818-0.0198212,3.464818-0.0198212s-1.6535187,1.4022751-3.9396629,1.4291916
	c-1.2767172,0.0150299-2.8081179-0.5269775-3.6545157-1.6890564s-1.1942773-1.867981-1.3631377-2.8914108
	S5.8662071,94.5553589,7.2512836,92.1563339z"/>
<path class="st28" d="M18.4695778,100.5692749c0.2208652-0.5395203,12.2710552-20.5251007,12.2710552-20.5251007
	l-2.1628952,4.4752274c0,0-9.185997,15.6655045-9.3674908,16.224968c-0.4830437,1.4890213-0.0250721,4.6823883,0.6769066,5.8622665
	c0.8010216,1.3463211,1.9983959,2.3743362,3.9987755,3.5713425c2.0004025,1.1970215,3.9486942,1.9851608,5.7951698,2.2094574
	c1.8464966,0.2243195,4.2541542-0.1112289,4.2541542-0.1112289s-2.9326401,1.5476227-5.4405327,1.4044189
	c-2.507906-0.1432114-3.7337837-0.6405258-5.5929241-1.7980804c-1.8591175-1.1575394-2.9346733-2.1993942-3.983633-4.0676498
	C17.8691921,105.9466248,17.6542606,102.5609055,18.4695778,100.5692749z"/>
<path class="st23" d="M42.8596153,25.3639011c0.4010887-0.6947021,1.3023758-0.9516563,1.9250336-0.6957417l3.0583267,1.2660942
	l-2.6571045-2.0356865c-0.5323753-0.4114342-0.7285347-1.302002-0.327446-1.9967022l0.7502708-1.299511
	c0.4010849-0.6947002,1.3027458-0.9514427,1.9252472-0.6961098l3.0591812,1.2646122l-2.6579628-2.0342045
	c-0.5329552-0.4112797-0.7287445-1.3016319-0.3276596-1.9963341l0.7504883-1.299881
	c0.5636139-0.9762058,1.9776649-2.0093775,2.4046021-1.7638702l1.9779778,1.1271877l0.118-0.1844006l-1.649437-1.6945992
	c-1.1822472-0.6825724-3.0000534,1.0240326-3.6087265,2.07829l-0.7504883,1.2998819
	c-0.408989,0.7083874-0.4627991,1.5251656-0.1987991,2.1929989c-0.7107887,0.1060295-1.3910217,0.560648-1.8000069,1.2690353
	l-0.7502747,1.2995129c-0.408989,0.7083874-0.4625854,1.5247955-0.1990128,2.1933689
	c-0.7103615,0.1052876-1.3908081,0.5602779-1.7997932,1.2686653l-0.5727959,0.9921112
	c-0.2229843,0.3862209-0.6622734,0.9961472-0.5751839,1.6960716c0.0364113,0.2926064,0.5810013,0.0434227,0.5810013,0.0434227
	L42.8596153,25.3639011z"/>
<path class="st29" d="M87.7464676,52.60215l-0.1776962,0.3077698c-0.4299164,0.7446404-0.8032455,0.7347679-1.4576874,0.357914
	c0,0-6.5985718-2.7259216-12.1122208-5.5725212c-5.5136414-2.8465996-15.4631538-8.6751251-20.2410088-11.6861534
	c-4.7778587-3.0110245-10.3808365-6.8982716-10.3808365-6.8982716c-0.9172058-0.6347675-1.0771484-0.7586784-1.3065681-1.0173988
	c0,0-0.4070282-0.5099297-0.3495598-0.8015747l-0.434948-0.1145763c-0.1771507,0.022747-0.3884239-0.0346909-0.3288689,0.4495106
	c0.0685616,0.5574417,0.6489449,1.3664455,1.1858177,1.6764107c0.00037,0.0002136,0.0011101,0.0006409,0.0011101,0.0006409
	s7.3279724,5.6197147,10.8113136,7.820219s17.3040543,10.0536346,20.4147949,11.6602249s12.1700668,5.5748444,12.1700668,5.5748444
	c1.0468597,0.6044044,2.1181335,0.1452179,2.7861862-1.0118752l0.1776886-0.3077698
	C88.5040512,53.0395432,88.5040512,53.0395432,87.7464676,52.60215z"/>
<path class="st30" d="M89.0723648,52.0448418c0.408989-0.7083855,0.4624252-1.5253792,0.1987991-2.192997
	c0.7109451-0.1054459,1.3908081-0.5602798,1.7997971-1.2686691l0.7504807-1.299881
	c0.408989-0.7083855,0.4622192-1.5250092,0.1990128-2.193367c0.7099915-0.1055031,1.3908081-0.5602798,1.7997971-1.2686653
	l0.7504883-1.2998848c0.628746-1.0890274,1.2965164-3.0579338,0.1046524-3.7460594
	c-0.0007401-0.0004272,0.0150452,0.0086861,0.0150452,0.0086861l-2.7426071-0.9363403l-0.1927032,0.2517548l2.5223312,1.4562683
	c0.4387207,0.2532959,0.1223755,1.5121422-0.4643097,2.5283012l-0.7504807,1.299881
	c-0.4010849,0.6946983-1.0439072,1.1003876-1.6660385,0.8452721l-2.9282761-1.1910095l2.4616623,1.9228439
	c0.5327377,0.4116478,0.5349274,1.1902275,0.1338425,1.8849258l-0.7504883,1.2998848
	c-0.4008713,0.6943283-1.0439072,1.1003876-1.6667786,0.844841l-2.9283829-1.1890984l2.5106964,1.9225502
	c0.5320053,0.4112206,0.5280991,1.2729225,0.1636047,1.9042435s-0.8488998,1.3196793-0.8488998,1.3196793
	c0.385643-0.3034515,0.9559555,0.0889511,0.9559555,0.0889511L89.0723648,52.0448418z"/>
</svg>
