<svg id="Layer_1" xmlns="http://www.w3.org/2000/svg" width="100" height="150.917" viewBox="0 0 100 150.9170074"><style>.st0{fill:#f4db73;stroke:#af8f58;stroke-width:.874785;stroke-miterlimit:10}.st1{fill:#fff3c0}.st2{fill:#b78534}.st3{fill:#cea645}.st4{fill:#f4bc1e}.st5{fill:#f9d023}.st6{fill:#fcee21}.st7{fill:#ad8618}.st8{fill:#7f5e13}.st9{fill:#c68d28}.st10{fill:#e0ac07}.st11{fill:#eac511}.st12{fill:#ccc}.st13{fill:#a06e1f}.st14{fill:#a57a0f}.st15{fill:#c64f6e}.st16{fill:#962f6a}.st17{fill:#db8db6}.st18{fill:#a32e52}.st19{fill:#e8a3cb}.st20{fill:#722f49}.st21{fill:#e6e6e6}.st22{fill:#fff}.st23{fill:#a8a8a8}.st24{fill:#c9c9c9}.st25{fill:#ffcff0}.st26{fill:#ffe9f7}.st27{fill:#fffbd7}.st28{fill:#fcee86}.st29{fill:#544f43}.st30{fill:#8e8e8e}</style><path class="st0" d="M46.237 120.42l-16.62-19.034-24.798-4.871.212 21.211-1.294 18.067 8.803 5.335 16.945-11.303z"/><path class="st1" d="M5.354 130.287l1.418-13.828-.248-13.275 3.054 4.625 4.042-2.043-5.903 17.805z"/><path class="st2" d="M14.59 139.66l-3.19-2.347 11.772-12.227 9.86-12.995 15.366 5.168-6.19 5.181-15.67 9.43z"/><path class="st3" d="M11.153 138.03l-3.788-2.186 3.34-9.866 5.084-12.305 6.127-7.113 10.304 6.937-9.042 13.038z"/><path class="st4" d="M39.174 120.262c-2.922-1.687-3.933-5.46-2.246-8.382l39.576-68.547c1.935-3.35 6.258-4.51 9.608-2.575l.005.003c3.35 1.934 4.509 6.258 2.575 9.608l-38.676 66.988c-2.183 3.78-7.061 5.088-10.842 2.905z"/><path class="st5" d="M22.713 113.537c-5.539-3.198-7.454-10.346-4.256-15.885l35.471-61.438c3.198-5.538 10.346-7.454 15.884-4.256 5.539 3.198 7.454 10.346 4.257 15.884L38.597 109.28c-3.197 5.539-10.345 7.454-15.884 4.257z"/><path class="st6" d="M7.796 102.146c-3.381-1.952-4.55-6.316-2.598-9.697L44.26 24.79c1.952-3.38 6.315-4.55 9.697-2.598 3.381 1.952 4.55 6.316 2.598 9.697L17.493 99.548c-1.952 3.38-6.316 4.55-9.697 2.598z"/><path class="st7" d="M35.816 113.54c-3.434 2.736-9.545 3.926-14.018 1.343l-.444-.256c-4.53-2.616-6.425-7.713-5.956-11.844-2.047 1.997-5.438 1.885-7.647.61-3.559-2.055-4.221-8.29-2.471-11.32l6.614-11.02L5.826 92.44c-1.116 2.807-.88 7.736 2.175 9.5 2.652 1.53 6.206 1.643 7.834-1.177l10.067-16.27-8.72 16.27c-1.596 4.344.114 9.501 5.047 12.35l.443.256c4.124 2.38 10.683 2.232 13.839-1.616l11.879-19.41-11.348 20.093"/><path class="st8" d="M37.1 112.336c-1.656 2.867-.586 5.975 2.695 7.87 3.11 1.794 6.689-.1 7.313-.493.662-.417 1.211-.858 1.728-1.317s1.577-1.783 1.577-1.783c-.725 1.475-1.607 2.912-3.893 4.192-3.471 1.942-23.444 13.77-31.289 19.057-1.21.815-.73-.204-1.071-.114-.94.25 27.52-17.386 26.712-17.617-.434-.124-1.26-.584-1.76-.89-2.997-1.829-3.888-4.941-3.22-7.835"/><path class="st9" d="M73.948 48.74l12.554 5.585-36.284 62.554s13.54-25.2 14.497-27.152 3.91-6.518 4.852-11.761c.942-5.244.316-6.89-.518-8.507-.693-1.345-2.258-1.556-3.96-.645-.87.465-1.573 1.197-2.488 2.268S55.224 81.09 55.224 81.09l18.724-32.35z"/><path class="st10" d="M54.402 35.799l21.27 10.968-14.799 24.537c.186.056 4.018-9.296 3.505-13.506-.272-2.234-1.084-4.449-2.009-5.706-2.1-2.854-4.732-3.526-6.629-3.827-1.795-.284-3.543.164-5.104.967-1.56.804-2.792 1.924-4.453 3.995s-6.687 9.397-6.687 9.397l-5.777 8.912L54.402 35.8z"/><path class="st11" d="M41.939 28.302l12.08 8.363-8.055 13.658s1.257-4.77 1.007-6.996c-.25-2.226-.792-3.36-1.59-4.388-.796-1.029-1.222-1.338-2.182-1.83-.96-.49-1.513-.62-2.56-.34-1.047.279-1.976.816-2.386 1.526-.41.71-12.403 20.617-12.403 20.617L16.233 74.7l-4.3 6.356 29.834-52.306.172-.447z"/><path class="st12" d="M88.55 51.214l-1.71 2.38-13.21-6.28L52.49 34.94l23.676 11.48z"/><path d="M15.155 139.986l-1.872-2.217-3.001-2.238-3.818-1.699-2.99-.717-1.336 7.54L0 149.354l1.172 1.3 2.09.263 6.104-6.409z"/><path class="st13" d="M64.005 43.314l11.171 5.987 11.044 5.366-14.507 25.127 7.59-14.895 2.03-5.267-.21-3.426-1.6-2.48-2.985-1.681-2.557-.236-1.808 1.819-5.088 7.5s4.163-7.971 4.552-8.904c.389-.933.487-1.874-.071-2.65-1.786-2.484-4.518-4.313-4.518-4.313l-3.043-1.947z"/><path class="st14" d="M53.794 36.62l9.018 5.374-6.967-3.096-2.44-.147-3.549 4.98 1.88-3.986.064-2.151-3.62-3.353-4.687-2.706-2.778.984L29.66 51.011l-8.307 13.512 20.478-35.737z"/><path class="st15" d="M69.276 37.393l-4.154-2.399c-10.417-6.014-21.6-6.326-15.587-16.743l6.27-10.86c5.088-8.811 18.413-8.71 28.83-2.696l1.124.65c10.417 6.013 17.167 17.503 12.08 26.314l-6.27 10.86c-6.014 10.417-11.876.888-22.293-5.126z"/><path class="st16" d="M85.632 47.6c-2.827 0-5.784-2.211-9.421-4.93-2.111-1.58-4.504-3.369-7.154-4.899l-4.154-2.398c-2.65-1.53-5.396-2.707-7.819-3.746-4.692-2.013-8.398-3.602-9.413-6.654-.62-1.865-.134-4.135 1.486-6.94l6.27-10.86c5.378-9.318 19.185-8.77 29.427-2.856l1.124.649c5.266 3.04 9.65 7.52 12.027 12.292 2.585 5.189 2.66 10.381.213 14.62l-6.27 10.86c-1.62 2.806-3.343 4.361-5.268 4.757a5.196 5.196 0 0 1-1.048.105zM69.495 37.014c2.694 1.556 5.109 3.361 7.24 4.955 3.912 2.926 7.006 5.236 9.77 4.669 1.665-.342 3.198-1.761 4.685-4.337l6.27-10.86c2.296-3.977 2.212-8.875-.238-13.793-2.302-4.621-6.56-8.968-11.682-11.925l-1.124-.649C74.547-.623 61.288-1.232 56.184 7.61l-6.27 10.86c-1.487 2.576-1.95 4.613-1.413 6.227.89 2.679 4.438 4.2 8.929 6.125 2.444 1.05 5.215 2.237 7.91 3.793l4.155 2.399z"/><path class="st17" d="M53.835 13.074l-.177 1.328 7.649 4.248s.986.401 2.287-.32c1.3-.723 4.045-2.917 5.836-3.399 1.79-.48 3.104-.05 5.343 1.243l21.528 12.429-.245-.74S59.554 5.943 58.92 5.577s-1.47 1.38-1.47 1.38l-3.616 6.117z"/><path class="st18" d="M98.314 30.294l-3.842 6.873-12.897-5.805-6.304-3.808s-1.033-1.775.931-1.062c1.964.714 5.732 2.215 7.486 1.797s4.047-2.173 4.523-2.366a3.102 3.102 0 0 1 2.791.191c.884.51 7.312 4.18 7.312 4.18z"/><path class="st19" d="M86.485 7.26c.032-.465-3.305-2.181-6.007-3.3-2.703-1.118-5.533-1.931-7.55-2.086-2.017-.154-5.08-.491-7.215-.04-2.136.45-3.77 1.358-4.358 1.86s-.646.869-.357 1.057c.289.188 5.063 1.513 8.715 2.254S79.4 8.494 81.091 8.439c1.692-.054 5.305.138 5.394-1.178z"/><path class="st20" d="M53.836 9.939l-2.75 4.725L70.653 27.54l23.016 12.257 3.522-6.173-1.558.215-2.124 2.226-10.232-4.73-21.123-12.11-8.032-5.48.226-2.142z"/><path class="st21" d="M93.446 43.605l.75-1.3c.557-.963 1.224-2.697.391-3.178L82.688 33.52l-20.55-11.865-11.05-7.642c-.833-.48-2.548.648-3.104 1.611l-.75 1.3c-.517.895-.351 1.97.341 2.506-.81-.333-1.824.062-2.34.956l-.751 1.3c-.516.894-.35 1.97.342 2.505-.81-.332-1.824.062-2.34.957l-.751 1.3c-.556.963-.227 2.236.606 2.717l11.334 7.806 20.265 11.7 11.9 5.608c.833.48 1.551-.187 2.108-1.15l.75-1.3c.516-.895.35-1.97-.342-2.506.81.333 1.824-.062 2.34-.956l.751-1.3c.517-.894.35-1.97-.342-2.505.81.332 1.825-.062 2.341-.957z"/><path class="st22" d="M49.237 16.227l1.38-1.298 15.634 10.466 16.793 9.695 10.526 4.806-12.471-5.227-24.614-13.645zM46.175 21.53l1.458-1.43 15.71 10.332 16.128 8.806 11.114 5.828-12.51-5.16-18.545-10.16zM43.551 26.076l1.875-.77 15.292 9.671 14.414 7.985 12.828 6.65-9.171-3.36-22.893-12.544z"/><path class="st23" d="M90.926 48.188l-1.701 1.417-12.97-6.837-21.14-12.373 24.9 13.072zM88.512 52.37l-1.527 1.77-13.827-6.34-23.526-14.11 27.395 13.86zM93.9 42.708l-1.82 2.169-13.201-6.654L59.874 26.85l23.241 11.903z"/><path class="st24" d="M2.042 146.304l1.524-5.812.798-4.99 1.843.307 1.479.938-2.306 4.54-2.454 4.98z"/><path class="st25" d="M54.775 12.431c.077-.538 3.069-5.713 3.701-5.937s1.117-.618 1.81-.218 6.265 3.727 6.265 3.727-3.526.127-4.333.503c-.806.376-2.709 2.95-3.56 3.4-.851.45-1.347.431-2.056.057-.709-.375-1.904-.993-1.827-1.532z"/><path class="st26" d="M67.726 2.575c.294-.44 3.114-.433 5.344-.072s4.724 1.044 4.976 1.442c.252.398-.017.93-.522 1.116-.505.185-3.3-.194-4.746-.383s-3.817-.535-4.29-.878-1.057-.785-.762-1.225z"/><path class="st27" d="M7.251 92.156c1.385-2.399 17.04-29.22 17.04-29.22l13.798-22.589s-28.068 49.2-28.834 50.525-1.623 3.103-1.64 4.44c-.016 1.338.237 2.073.864 3.025s1.861 1.522 3.166 1.66c1.427.15 3.465-.02 3.465-.02s-1.653 1.402-3.94 1.429c-1.276.015-2.808-.527-3.654-1.69s-1.194-1.867-1.363-2.89-.287-2.27 1.098-4.67z"/><path class="st28" d="M18.47 100.57c.22-.54 12.27-20.526 12.27-20.526l-2.162 4.475s-9.186 15.666-9.368 16.225c-.483 1.49-.025 4.683.677 5.863.801 1.346 1.999 2.374 3.999 3.571s3.949 1.985 5.795 2.21c1.847.224 4.254-.112 4.254-.112s-2.932 1.548-5.44 1.405c-2.508-.144-3.734-.64-5.593-1.798-1.86-1.158-2.935-2.2-3.984-4.068-1.049-1.868-1.264-5.254-.448-7.246z"/><path class="st23" d="M42.86 25.364c.4-.695 1.302-.952 1.925-.696l3.058 1.266-2.657-2.035c-.533-.412-.729-1.302-.328-1.997l.75-1.3c.402-.694 1.303-.951 1.926-.696l3.06 1.265-2.659-2.034c-.533-.412-.729-1.302-.327-1.997l.75-1.3c.564-.976 1.978-2.009 2.405-1.763l1.978 1.127.118-.185-1.65-1.694c-1.182-.683-3 1.024-3.609 2.078l-.75 1.3c-.41.708-.463 1.525-.199 2.193-.71.106-1.39.56-1.8 1.269l-.75 1.3c-.41.708-.463 1.524-.2 2.193-.71.105-1.39.56-1.799 1.269l-.573.992c-.223.386-.662.996-.575 1.696.036.292.581.043.581.043l1.325-2.294z"/><path class="st29" d="M87.746 52.602l-.177.308c-.43.745-.803.735-1.458.358 0 0-6.598-2.726-12.112-5.573-5.514-2.846-15.463-8.675-20.241-11.686-4.778-3.01-10.381-6.898-10.381-6.898-.917-.635-1.077-.759-1.307-1.018 0 0-.407-.51-.35-.801l-.434-.115c-.177.023-.388-.034-.329.45.069.557.649 1.366 1.186 1.676h.001s7.328 5.62 10.811 7.821S70.26 47.178 73.37 48.784s12.17 5.575 12.17 5.575c1.047.605 2.118.145 2.786-1.012l.178-.307-.758-.438z"/><path class="st30" d="M89.072 52.045c.41-.709.463-1.526.2-2.193.71-.106 1.39-.56 1.799-1.269l.75-1.3c.41-.708.463-1.525.2-2.193.71-.106 1.39-.56 1.8-1.269l.75-1.3c.628-1.089 1.296-3.058.104-3.746l.015.009-2.742-.936-.193.251 2.522 1.457c.44.253.123 1.512-.464 2.528l-.75 1.3c-.401.695-1.044 1.1-1.666.845l-2.929-1.19 2.462 1.922c.533.412.535 1.19.134 1.885l-.75 1.3c-.402.694-1.045 1.1-1.667.845l-2.929-1.19 2.51 1.923c.533.411.529 1.273.165 1.904s-.85 1.32-.85 1.32c.386-.303.957.089.957.089l.572-.992z"/></svg>