<svg xmlns="http://www.w3.org/2000/svg" width="100" height="100" viewBox="0 0 100 100"><path fill="#00a8e6" d="M78.323 91.237A49.644 49.644 0 0 0 89.73 80.41L49.911 49.966l47.24 16.75A49.643 49.643 0 0 0 100 51.25l-50.1-1.221 48.06-14.214a50.162 50.162 0 0 0-6.783-14.19l-41.25 28.46 30.528-39.75a50.364 50.364 0 0 0-6.617-4.293 50.365 50.365 0 0 0-7.209-3.202L49.982 50.114 51.316.016a50.16 50.16 0 0 0-15.592 2.06l14.32 48.03L21.676 8.792A49.643 49.643 0 0 0 10.27 19.62l39.818 30.443-47.24-16.75A49.643 49.643 0 0 0 0 48.78L50.1 50 2.04 64.215a50.16 50.16 0 0 0 6.783 14.19l41.25-28.46-30.528 39.75c2.06 1.578 4.265 3.018 6.617 4.293s4.763 2.337 7.209 3.202l16.647-47.275-1.334 50.098a50.16 50.16 0 0 0 15.592-2.06l-14.32-48.03 28.367 41.314z"/></svg>