<?xml version="1.0" encoding="utf-8"?>
<!-- Generator: Adobe Illustrator 19.2.1, SVG Export Plug-In . SVG Version: 6.00 Build 0)  -->
<!DOCTYPE svg PUBLIC "-//W3C//DTD SVG 1.1//EN" "http://www.w3.org/Graphics/SVG/1.1/DTD/svg11.dtd">
<svg version="1.1" id="Layer_1" xmlns="http://www.w3.org/2000/svg" xmlns:xlink="http://www.w3.org/1999/xlink" x="0px" y="0px"
	 width="100px" height="100px" viewBox="0 0 100 100" style="enable-background:new 0 0 100 100;" xml:space="preserve">
<style type="text/css">
	.st0{fill:#00a8e6;}
</style>
<g>
	<path class="st0" d="M78.3231583,91.2373505c4.2775879-2.9338074,8.1455078-6.5553665,11.4061127-10.8281174L49.9112854,49.9664116
		L97.1518326,66.716568C98.9525909,61.652462,99.876236,56.4348602,100,51.2493324l-50.1000404-1.2215996l48.0603752-14.213562
		c-1.4900436-5.0323658-3.7788849-9.8243675-6.7835159-14.1899796L49.9268456,50.0839996l30.5279579-39.7508278
		c-2.0596771-1.5768251-4.2647095-3.0172906-6.6172562-4.2925653c-2.3525391-1.2752748-4.7630692-2.3367748-7.2084503-3.202069
		L49.9816666,50.1137199l1.3345413-50.0972519c-5.2979584-0.1351424-10.5624428,0.5623248-15.5924606,2.0602744
		l14.3197365,48.0287933L21.6768436,8.7916431c-4.2775917,2.9338045-8.1454878,6.5553255-11.4060888,10.8280754
		l39.8179359,30.4428616L2.8481433,33.3124657C1.047388,38.3765717,0.1237627,43.5941353,0,48.7796593l50.1000137,1.2215958
		L2.0397291,64.2148056c1.490042,5.0323639,3.77882,9.8243866,6.7834787,14.1899567l41.2499237-28.459774l-30.527914,39.7507896
		c2.0596752,1.576828,4.2647343,3.0173569,6.6172771,4.2926331s4.7630024,2.336792,7.2083855,3.2020874l16.6474304-47.2752266
		l-1.3345413,50.0972939c5.2979164,0.1351242,10.5624657-0.5623627,15.5924835-2.060318L49.9564896,49.9234543
		L78.3231583,91.2373505z"/>
</g>
</svg>
