<?xml version="1.0" encoding="utf-8"?>
<!-- Generator: Adobe Illustrator 17.0.0, SVG Export Plug-In . SVG Version: 6.00 Build 0)  -->
<svg version="1.2" baseProfile="tiny" id="Layer_1" xmlns="http://www.w3.org/2000/svg" xmlns:xlink="http://www.w3.org/1999/xlink"
	 x="0px" y="0px" width="32px" height="32px" viewBox="0 0 32 32" overflow="scroll" xml:space="preserve">
<rect fill="none" width="32" height="32"/>
<rect fill="none" width="32" height="32"/>
<path d="M24.3482666,1.0447336C22.6729259,0.3482446,20.6555882,0,18.2964382,0
	c-2.6729374,0-5.1419821,0.4770675-7.4070415,1.4306512C8.6241531,2.3844185,6.7200179,3.6394773,5.1765318,5.1953678
	c-1.5688465,1.5811591-2.7797084,3.385231-3.6329536,5.4117575c-0.8535207,2.0267096-1.2800514,4.1382294-1.2800514,6.3340998
	c0,2.497345,0.4735759,4.693491,1.4211869,6.5881615c0.9473355,1.8950386,2.19293,3.4635181,3.7365079,4.7058964
	c1.5182176,1.2423782,3.2752447,2.1803417,5.2705297,2.8141651C12.6870365,31.6829052,14.669733,32,16.6400261,32
	c2.3340645,0,4.3952312-0.3482437,6.1835003-1.044733c1.7882671-0.6963978,3.3976345-1.6158924,4.8281937-2.7576561
	l-0.7340698-1.1670341c-1.3053188,1.0165253-2.7858639,1.8037968-4.4423695,2.3623676
	c-1.6564121,0.5582008-3.5576077,0.8376236-5.7034912,0.8376236c-1.8823586,0-3.6018047-0.2887936-5.1576958-0.8664761
	c-1.5561657-0.577589-2.9114714-1.4379101-4.0658236-2.5805931c-1.1420403-1.130003-2.0393901-2.5397053-2.6917744-4.2284603
	c-0.6526599-1.6888485-0.978852-3.6447163-0.978852-5.867691c0-2.2725954,0.4109104-4.3288002,1.2330062-6.1685238
	C5.9323788,8.6791,7.0146933,7.1250472,8.357686,5.8567567c1.3676176-1.305871,2.8894186-2.2946467,4.5646687-2.9664187
	c1.6753407-0.671772,3.4100389-1.0079796,5.2047396-1.0079796c1.8696785,0,3.5323391,0.2671101,4.9881668,0.8008707
	c1.4556446,0.5338526,2.6665058,1.2656255,3.6329536,2.1950436c0.9661713,0.9294176,1.6941776,2.0158672,2.1835575,3.2594399
	c0.4893799,1.2434816,0.7340698,2.6002569,0.7340698,4.069684c0,2.9394045-0.5961514,5.3164721-1.7881756,7.1314783
	c-1.1923943,1.8150063-2.7735519,2.7222805-4.7435684,2.7222805c-0.4893799,0-0.8469982-0.1472912-1.0729427-0.4423351
	c-0.225853-0.2946758-0.3387814-0.6994286-0.3387814-1.214077c0-0.2382584,0.0406132-0.5835629,0.1222992-1.0353622
	c0.0815029-0.4517078,0.1723766-0.8028927,0.2729912-1.0541058l3.7835541-10.44697h-4.8447342L20.463274,9.5058823h-0.037674
	c-0.213541-0.6273003-0.5429497-1.0947189-0.9885006-1.4023504c-0.4456425-0.3073559-1.1015186-0.4611716-1.9673519-0.4611716
	c-1.2930069,0-2.5418167,0.3294082-3.7465229,0.9882245c-1.2049809,0.6588163-2.2340946,1.4965324-3.0873394,2.5129652
	c-0.8787889,1.0541067-1.5723381,2.2181988-2.080554,3.4917269c-0.5082169,1.2738943-0.7623711,2.5129662-0.7623711,3.7176704
	c0,1.5938396,0.4293795,2.8771076,1.288229,3.8494358c0.8588505,0.9726028,2.0596972,1.4587669,3.6020803,1.4587669
	c0.5893507,0,1.0593433-0.0532017,1.4105282-0.1599712c0.3511848-0.1064949,0.7273626-0.2728996,1.1289005-0.4988441
	c0.3634968-0.2131729,0.7049427-0.4800072,1.0249786-0.7999516c0.3196678-0.3200359,0.6238079-0.6367645,0.9123268-0.9506435
	h0.0938148c0.2505703,0.7280064,0.8211765,1.3270969,1.7114525,1.7976398
	c0.8903656,0.4706364,2.0253315,0.7059536,3.4047108,0.7059536c2.6635647,0,4.8903084-1.0979347,6.6808739-3.2941723
	c1.7902889-2.1958714,2.6856174-4.8752413,2.6856174-8.0376511c0-1.5934715-0.2667427-3.1341085-0.8000431-4.6210856
	c-0.5334854-1.4870687-1.3458424-2.8077331-2.4376202-3.9623616C27.4070301,2.6729379,26.0235157,1.7412229,24.3482666,1.0447336z
	 M16.7926464,19.9176598c-0.4038353,0.5514946-0.7949896,0.9494476-1.1731882,1.1934948
	c-0.3785667,0.2444153-0.807395,0.3665295-1.2867594,0.3665295c-0.5423975,0-0.9367685-0.2253017-1.1826534-0.6764565
	c-0.2458839-0.4512482-0.3688269-1.1027145-0.3688269-1.9547653c0-1.114933,0.1347036-2.2520123,0.4046621-3.4111423
	c0.27005-1.1588545,0.6308832-2.1894379,1.0829582-3.0917501c0.4643869-0.9147158,0.9884996-1.6538401,1.5723381-2.2176466
	c0.5835629-0.5638075,1.1894531-0.8458948,1.817028-0.8458948c0.6526604,0,1.1453476,0.2194214,1.477972,0.6578979
	c0.3326244,0.4385672,0.5052757,1.0023746,0.5179558,1.6915121L16.7926464,19.9176598z"/>
</svg>
