<?xml version="1.0" encoding="utf-8"?>
<!-- Generator: Adobe Illustrator 17.0.0, SVG Export Plug-In . SVG Version: 6.00 Build 0)  -->
<svg version="1.2" baseProfile="tiny" id="Layer_1" xmlns="http://www.w3.org/2000/svg" xmlns:xlink="http://www.w3.org/1999/xlink"
	 x="0px" y="0px" width="32px" height="32px" viewBox="0 0 32 32" xml:space="preserve">
<rect fill="none" width="32" height="32"/>
<rect fill="none" width="32" height="32"/>
<path fill-rule="evenodd" d="M4.8548336,21.9582939c0.4219618,0.7062397,0.8489485,1.0500259,1.3531618,1.6146049
	l-3.717653,5.8614483l4.4446936-4.3458138c1.5354662,1.7385597,2.783987,2.1717052,6.5479469,2.9916801l0.045866,2.0249519
	c-3.0510931,0.0594215-4.4312534-0.3671379-4.4312534,0.5823021C9.0975952,31.6765862,11.7465668,32,14.9986086,32
	c3.2531195,0,5.9010248-0.4223995,5.9010248-1.4130135c0-0.931839-2.3645973-0.6276264-5.3958511-0.7067738l-0.0228148-1.7250137
	c0.3645744-0.0198383,2.7208452-0.2295914,3.0666666-0.2781849c3.8690319-0.5436802,11.0437222-4.0401077,10.9613743-12.711894
	C29.429863,6.8603644,24.174715,4.4957867,24.174715,4.4957867L27.1881561,0l-4.630188,3.4656l-2.1239452-1.7172266
	L19.585062,3.44576c0,0,1.0115204,0.8682668,1.5166931,1.2708266L20,6.2916665
	c-1.1114674-0.6671996-2.8378716-1.0697999-4.8190975-1.0697999c-5.0135469,0-9.49792,3.9828272-9.49792,9.4379644
	c0,2.6484365,1.4749866,5.1156359,3.03232,6.8917341l-1.09376,1.334301
	c-0.4854403-0.5447464-1.4323092-1.2316799-1.8177071-1.8593063L4.8548336,21.9582939z M22.5382347,5.9088001
	c0,0,4.8072662,2.5067644,4.8072662,9.2958937c0,6.9942389-6.4260387,10.7953062-11.8417187,10.9358931v-0.1208534h-0.9290667
	v0.0989857c-2.2635736-0.1817589-4.8093863-1.1505051-6.4062929-2.666666l1.0718927-1.3338661
	c1.6155853,1.557333,3.7176533,2.4849072,6.0426664,2.4849072c5.0115204,0,10.2448006-3.0906677,10.2448006-9.5166941
	c0-3.8213329-1.7781334-6.1655464-4.2229328-7.7604265L22.5382347,5.9088001z"/>
</svg>
