<?xml version="1.0" encoding="utf-8"?>
<!-- Generator: Adobe Illustrator 17.0.0, SVG Export Plug-In . SVG Version: 6.00 Build 0)  -->
<svg version="1.2" baseProfile="tiny" id="Layer_1" xmlns="http://www.w3.org/2000/svg" xmlns:xlink="http://www.w3.org/1999/xlink"
	 x="0px" y="0px" width="32px" height="32px" viewBox="0 0 32 32" xml:space="preserve">
<rect fill="none" width="32" height="32"/>
<rect fill="none" width="32" height="32"/>
<path d="M22.1366997,8.1083565l0.0195999,2.4892998c0,1.1377001,0.2451,2.1865005,0.7362995,3.1475
	c0.4902,0.9609003,1.4346008,2.2255001,2.8320007,3.7939005c0.9160004,1.033186,1.562521,1.8993988,1.9424,2.5977001
	c0.3778992,0.7001991,0.6270008,1.5067997,0.7441998,2.4228001c0.1181011,0.8495998,0.2420998,1.3388996,0.3730011,1.470686
	l0.1962986,0.2158127c0.1445007,0.1563015,0.2147999,0.4375,0.2147999,0.8428001l-0.0184994,1.2940006
	c0,0.8495998-0.5751991,1.2743874-1.7255993,1.2743874L4.2549005,27.6367569c-1.0586002,0-1.5889001-0.214901-1.5889001-0.6455135
	l-0.0195-0.4912872v-1.4111004v-0.2549l0.1768-0.3134995l0.3729999-0.4316006
	c0.1426001-0.1571999,0.2608213-0.6864986,0.3526001-1.5888996c0.1298001-1.0839005,0.4042213-1.9969997,0.8232214-2.7353001
	c0.4179997-0.737299,1.1767783-1.6240005,2.2743783-2.6562996c0.8887-0.8358994,1.5586219-1.6288996,2.0098004-2.3719997
	c0.4510994-0.7461138,0.7558212-1.5889006,0.9120998-2.5303001l0.1757994-1.0194998
	c0.0527-0.2617998,0.0791006-0.4776001,0.0791006-0.6475L9.8037004,8.1669569
	c-0.6142006,0.1435995-1.1044998,0.3848-1.4707003,0.7255993c-0.3662,0.3389006-0.5488,0.7256002-0.5488,1.1572008
	c0,0.2216997,0.085,0.4951992,0.2549214,0.8223c0.2343788,0.4706993,0.352479,0.8505993,0.352479,1.1366997
	c0,0.8769999-0.4970002,1.5566998-1.4902005,2.0410004c-0.6669998,0.3271999-1.4696999,0.6044865-2.4120998,0.8320999
	c-0.9403999,0.2294998-1.7314999,0.3436995-2.3720999,0.3436995c-0.7715,0-1.3163999-0.1464996-1.6377-0.4413996
	c-0.3203-0.2939138-0.4795-0.7870998-0.4795-1.4804001c0-3.0068998,1.4765999-5.2021999,4.4316998-6.5879002
	C5.9600005,5.983357,7.7735004,5.4052434,9.8721218,4.9804568c2.0985785-0.4247999,4.1737785-0.6377001,6.2255783-0.6377001
	c4.1434994,0,7.8104992,0.6669998,11,2C30.3661995,7.7285566,32,9.7812433,32,12.4999561
	c0,1.6612005-0.6601009,2.4902868-1.9804001,2.4902868c-1.3593998,0-2.767601-0.3241863-4.2255993-0.970686
	c-1.4580002-0.6475-2.1856003-1.2774-2.1856003-1.8926001c0-0.1816006,0.0321999-0.3525,0.0977211-0.5088005l0.4501781-1
	c0.1181011-0.2616997,0.1777-0.5098,0.1777-0.7460995c0-0.4316006-0.2001991-0.8095999-0.5986004-1.1367006
	C23.3360004,8.4081564,22.8036995,8.1992435,22.1366997,8.1083565z M15.9805002,12.7353563
	c-1.8564997,0-3.4189997,0.6211004-4.6864996,1.8622999c-1.2686005,1.2432003-1.9024,2.772501-1.9024,4.5888996
	c0,1.8563995,0.6991997,3.3856869,2.0986996,4.5888004l0.8037004,0.6865997c0.9931211,0.6660004,2.1893997,1,3.5878992,1
	c1.6864996,0,3.1474009-0.6348,4.3828001-1.9023991c1.2353001-1.2685013,1.8525009-2.7656002,1.8525009-4.4912014
	c0-0.299799-0.0557003-0.7451115-0.1660004-1.3319988c-0.1113014-0.5888996-0.2060795-0.9551144-0.2852001-1.0995998
	l-0.450201-0.7842007l-0.4315987-0.7255993c-0.5098-0.6797132-1.2256012-1.2481003-2.1465015-1.7051001
	C17.714901,12.9638567,16.830122,12.7353563,15.9805002,12.7353563z M19.5098,8.1669569
	c-0.9151001,0.4189997-2.1641006,0.6279993-3.7451,0.6279993c-1.0068998,0-2.125-0.2158995-3.3534994-0.6474991v1.1562996
	c0,0.8886003,0.4902,1.3338995,1.4715996,1.3338995l4.2734995-0.0194998c0.9022999,0,1.3535004-0.3799133,1.3535004-1.1377001
	V8.1669569z"/>
</svg>
