<?xml version="1.0" encoding="utf-8"?>
<!-- Generator: Adobe Illustrator 17.0.0, SVG Export Plug-In . SVG Version: 6.00 Build 0)  -->
<svg version="1.2" baseProfile="tiny" id="Layer_1" xmlns="http://www.w3.org/2000/svg" xmlns:xlink="http://www.w3.org/1999/xlink"
	 x="0px" y="0px" width="32px" height="32px" viewBox="0 0 32 32" xml:space="preserve">
<rect fill="none" width="32" height="32"/>
<rect fill="none" width="32" height="32"/>
<path id="path1873" sodipodi:nodetypes="cccccccccccccccccccccccccccccccccccc" d="M20.8,26.3l-4.1-9.7c-1.6,3.2-3.4,6.5-5,9.6
	c0,0-0.7,0-0.7,0C8.6,20.8,6.2,15.4,3.8,9.9C3.2,8.5,1.3,6.4,0,6.4c0-0.2,0-0.5,0-0.7l8.1,0l0,0.7c-1,0-2.6,0.7-2.2,1.7
	c1.1,2.5,5.2,12,6.3,14.4c0.8-1.5,2.9-5.5,3.8-7.2c-0.7-1.4-3-6.7-3.6-8c-0.5-0.9-1.8-1-2.8-1c0-0.2,0-0.4,0-0.7l7.1,0v0.6
	c-1,0-1.9,0.4-1.5,1.3c1,2,1.5,3.4,2.4,5.2c0.3-0.5,1.7-3.5,2.4-5.1c0.4-1-0.2-1.4-1.9-1.5c0-0.2,0-0.5,0-0.7c2.2,0,5.6,0,6.1,0
	l0,0.7c-1.1,0-2.3,0.6-2.9,1.6l-3,6.1c0.3,0.8,3.2,7.1,3.5,7.8L28,7.8c-0.4-1.1-1.8-1.4-2.4-1.4c0-0.2,0-0.5,0-0.7l6.4,0l0,0l0,0.6
	c-1.4,0-2.3,0.8-2.8,2c-1.3,2.9-5.2,12-7.8,17.9C21.4,26.3,20.8,26.3,20.8,26.3z"/>
</svg>
